<svg xmlns="http://www.w3.org/2000/svg" data-name="Graphic Elements" viewBox="0 0 1200 1200"><path d="m155 879-12-1-12 1a4 4 0 0 1-3 0c-2-1-4-2-11-1h-16l-21 1h-9a1 1 0 0 1 1-1c1-1 1-3-1-3l-1 1c0 2-1 2-2 1l-2-2a5 5 0 0 0-1-2l-2-6-1-6c-1-1-2-7 0-8l1-3 1-4 1-8c0-7 0-7-2-8l-3-3c0-2 0-3 3-5 3-4 2-5-2-4-3 0-3 0-3-2a5 5 0 0 0 0-3l-1-10c3-6 4-8 4-14l1-8a6 6 0 0 0 1-4l1-4v-14a11 11 0 0 0-2-3 3 3 0 0 1-2-3c1-1 0-3-3-6-4-4-5-6-3-9a7 7 0 0 0 2-3c0-2 3-4 5-4l1-1-3-1h-3v-6l1-8 1-4c0-4 2-5 13-14l5-5 5-4a81 81 0 0 0 8-6l3-2 6-4c4-4 4-5 5-8l-1-4-4 3a31 31 0 0 1-6 6 56 56 0 0 0-8 7 29 29 0 0 1-6 6 7 7 0 0 0-3 3l-2 2-4 3-4 2c-2 0-2 0-2-4s1-6 8-11a109 109 0 0 0 9-8l7-6c2 0 16-14 16-15a4 4 0 0 1 1-3 2 2 0 0 0 0-2c-1-2-4-1-7 3-2 3-3 4-5 4s-2 1-3 3c-2 4-16 19-21 21-4 3-5 1-5-5a27 27 0 0 0-2-8c-1-4-1-4 1-6a7 7 0 0 1 3-2 4 4 0 0 0 3-2c1-2 2-3 5-2l2-1 12-14a40 40 0 0 1 9-7l4-3 2-1c3 0 3 0 3-6 1-5 0-5-1-6-2 0-2 0-2 2s-2 4-9 11a74 74 0 0 1-14 12l-4 2-3 2-4 3-4 3c-8 7-11 8-11 3a4 4 0 0 1 2-3 11 11 0 0 0 2-2 24 24 0 0 1 6-3 16 16 0 0 0 4-3l3-2 10-9 5-5 7-6a12 12 0 0 1 3-2c2 0 5-5 5-6-1-2 0-2 3-2s4-1 7-4l5-6 2-4a2 2 0 0 1 1-1 2 2 0 0 0 1-2l-5 3h-6a5 5 0 0 0-1 2c0 2-8 11-11 13l-9 7c-6 7-16 14-18 14a3 3 0 0 0-2 1l-4 1c-2 1-3 1-2-2l-1-3c-3-1-2-4 3-8 6-6 7-6 7-2 0 2 1 2 3 2 5-1 7-2 7-4s-2-3-6-2h-3c0-2 3-5 4-5 3 0 8-3 8-5l2-2 11-10 10-9a4 4 0 0 0 2-2c0-2 1-3 2-3l2-1a2 2 0 0 1 2-2v-4l-3 3-3 3-6 3c-3 4-4 4-6 3-1-1-2-1-3 1-2 1-2 1 0 1a4 4 0 0 1 2 1c1 1-4 5-5 5l-5 5a41 41 0 0 1-8 6 7 7 0 0 0-3 3 2 2 0 0 1-2 1c-2 0-2-1-2-3s0-2-2-2c-3 0-3-2-1-2l9-8 2-2 2-1 2-2c3-1 13-9 13-11l2-2s5-2 8-6c5-4 7-5 8-4s3 0 3-4l1-3a4 4 0 0 0 0-2l-1-3c-3 0-10 6-11 9-1 2-3 2-7 0s-5 0-2 3l3 2-2 3a13 13 0 0 0-2 4c0 1-4 4-6 4l-5 3a62 62 0 0 1-7 6 18 18 0 0 0-4 4l-7 4-1-2a10 10 0 0 0-1-4c-2-3-2-9 1-11l2-2 2 3c3 3 6 3 6 0 0-1 0-2-2-1-2 0-3-1-3-3l2-4a2 2 0 0 0 1-1 1 1 0 0 0-1-2l-2 1-3 3c-4 1-6 1-6-2 0-1 6-6 8-6a2 2 0 0 0 2-1 2 2 0 0 1 2 0l2-4c0-2 1-3 2-3l6-4 5-4 6-5 6-4a2 2 0 0 0 2-1 69 69 0 0 1 7-6l9-8c3-2 4-3 5-2 2 1 4-1 4-4a3 3 0 0 1 1-2 2 2 0 0 0 2-2 8 8 0 0 1 1-4l1-6c-1-4 0-5 1-5s2-1 2-3a6 6 0 0 1 1-4 6 6 0 0 0 1-4 6 6 0 0 1 2-4 5 5 0 0 0 1-4l-1-2a1 1 0 0 0-2 1l-7 7a30 30 0 0 0-5 4l-3 1c-1-1-4 1-5 3l-4 5-7 5a44 44 0 0 1-6 4l-3 2-2 1a3 3 0 0 0-2 1 2 2 0 0 1-3 1l-6 6c-5 5-6 5-7 4l-2-2c0-1 7-8 8-7a2 2 0 0 0 2-1 4 4 0 0 1 2-1l6-5a36 36 0 0 1 8-5 11 11 0 0 0 4-4l2-2 5-3a89 89 0 0 1 9-7 58 58 0 0 0 6-6 5 5 0 0 1 3-1l4-3a14 14 0 0 1 4-3 5 5 0 0 0 3-2 3 3 0 0 1 2-2l1-2h-5c-3-1-3 0-8 4-5 6-8 7-9 8a5 5 0 0 0-3 2 24 24 0 0 1-6 4 58 58 0 0 0-8 5l-5 3a5 5 0 0 0-2 2 8 8 0 0 1-4 1c-5 0-8 1-8 2l2 1c2 0 2 0 0 3a5 5 0 0 1-3 2 3 3 0 0 0-3 1 1 1 0 0 1-1 1l-4 2c-3 3-4 3-8 3-5 0-6-1-6-4 0-2 3-6 5-6a2 2 0 0 0 2-1l5-3a24 24 0 0 0 6-5l4-3a3 3 0 0 0 3-1 14 14 0 0 1 3-3 25 25 0 0 0 6-4l3-2 4-3a58 58 0 0 1 7-5 27 27 0 0 0 4-3 16 16 0 0 1 3-2c4-2 5-4 4-6h-2a6 6 0 0 1-4 1 8 8 0 0 0-5 3l-4 2a2 2 0 0 0-2 2l-4 4a45 45 0 0 0-5 3l-8 4c-3 0-5 1-3 2s1 3 0 3l-3 2a28 28 0 0 1-7 5c-5 2-9 5-10 8a3 3 0 0 1-2 2 4 4 0 0 0-3 2 5 5 0 0 1-4 1c-6-1-3-6 6-11a34 34 0 0 0 6-5l5-4 4-3 4-2a5 5 0 0 0 3-2 19 19 0 0 1 5-4l4-3a1 1 0 0 1 1-1l8-6c0-4-17 3-20 8a3 3 0 0 1-2 1l-1 1h-1a4 4 0 0 0-3 2c-2 4-11 10-14 11-4 1-5 1-5-2 0-2 0-2 2-1s2 0 2-3 0-4-2-4c-3 0-2-1 3-6 4-4 5-6 1-6-2 0-2-4 1-10v-9a36 36 0 0 1 0-9l-1-4-1-1a11 11 0 0 0-2-4v-8c1 0 2-2 2-7l1-8a9 9 0 0 0 1-4c0-2 0-3 2-3a4 4 0 0 1 3 1h4l-1-2c0-1-2 0-1-1s1 1 2 1h6a9 9 0 0 0-2-2c-2-3-5-3-7-1-1 1-5 2-6 0l1-1 1-5c0-4 1-6 3-4 1 1 2 0 3-2 2-4 2-4-3-4-5 1-8 0-8-2a8 8 0 0 0-2-3 18 18 0 0 1-3-4 21 21 0 0 0-1-3v-3c1-1 3-2 10-2a69 69 0 0 0 11 0 5 5 0 0 1 5 1c2 1 4 2 10 2l9 1h8a4 4 0 0 1 4 0l9 1c13 1 18 2 20 4s3 2 5 0h2c2 1 5 1 7-1h3c1 2 2 2 7 2s6 0 8 2 2 3 4 1h8a38 38 0 0 0 7 0 10 10 0 0 1 5 1 16 16 0 0 0 7 1l5 1a6 6 0 0 0 3 2l3 1a2 2 0 0 0 3 1 4 4 0 0 1 3 1 10 10 0 0 0 5 1l4 1a4 4 0 0 0 3 2 2 2 0 0 1 2 1 3 3 0 0 0 2 1 3 3 0 0 1 3 2 3 3 0 0 0 2 1l4 3c1 2 3 2 4 2 2 0 10 8 10 10a2 2 0 0 0 2 2c3 1 11 9 10 10a2 2 0 0 1-2 0 2 2 0 0 0-2 2l-2 1v2l6 1-2-1c-2 0-2-1 0-2 3-1 7 1 7 6a6 6 0 0 0 2 3 5 5 0 0 1 0 2 7 7 0 0 0 3 4l2 2 4-4c2-2 4-4 5-3s1-1 2-2a6 6 0 0 1 3-2l3-2 4-2a4 4 0 0 0 2-1 4 4 0 0 1 3-2 4 4 0 0 0 3-1 4 4 0 0 1 2-1 4 4 0 0 0 3-1l2-1 2-1a4 4 0 0 1 4-2 8 8 0 0 0 4-1 13 13 0 0 1 4-1 4 4 0 0 0 2-1 4 4 0 0 1 3-2 4 4 0 0 0 2-1 4 4 0 0 1 3-1 4 4 0 0 0 3-2 4 4 0 0 1 2-1 4 4 0 0 0 3-1 4 4 0 0 1 3-2 3 3 0 0 0 2-1 2 2 0 0 1 2-1 4 4 0 0 0 3-1l2-1 2-1a11 11 0 0 1 4-2l2-1 1-1a5 5 0 0 0 3-1 5 5 0 0 1 3-2 4 4 0 0 0 3-1 6 6 0 0 1 4-1c2 0 3-1 3-2a3 3 0 0 1 3-1 3 3 0 0 0 2-1 3 3 0 0 1 2-1 5 5 0 0 0 4-1l4-1 4-2a4 4 0 0 1 3-1 3 3 0 0 0 3-1 2 2 0 0 1 1-1 4 4 0 0 0 3-2 4 4 0 0 1 3-1 4 4 0 0 0 3-1 5 5 0 0 1 3-2 8 8 0 0 0 4-1 6 6 0 0 1 3-1 2 2 0 0 0 2-2l3-1 4-1a4 4 0 0 1 2-1 5 5 0 0 0 4-1 6 6 0 0 1 3-1 5 5 0 0 0 4-2c2-2 5-1 9 1 2 2 3 3 5 1s2-3-1-3l-2-1c0-1 0-2 2-2a3 3 0 0 0 2-1l5-1 5-1a2 2 0 0 1 2-1 3 3 0 0 0 3-1c2-2 10-2 11-1a3 3 0 0 0 3 1c2-1 1-2-1-2l-1-1 3-1a3 3 0 0 0 3-1 6 6 0 0 1 4-2 6 6 0 0 0 4-1 5 5 0 0 1 3-1 8 8 0 0 0 4-2 8 8 0 0 1 4-1l3-1 3-2a8 8 0 0 0 4-1 7 7 0 0 1 4-1 3 3 0 0 0 2-1l3-1 3-1 4-2 4-1c1-1 7-2 8 0h14a435 435 0 0 1 77 1l21 1c1 1-7 4-12 4l-6 1c-2 2-41 2-40 0a4 4 0 0 1 2-1c2-1 3-3 2-3l-7 2h-5a18 18 0 0 0-5-1 3 3 0 0 1-2-1c0-2-3-2-3-1l6 4 4 3 3 2c2 0 5 4 5 7l1 2a1 1 0 0 1 1 1 14 14 0 0 0 1 4 24 24 0 0 1 2 4c0 2 4 3 6 1s4-2 5 2l3 3 1-5c0-4 1-6 2-7 2-2 2-2 4 1 2 2 4 2 7 2 4 0 4 0 3 2 0 2 0 3 2 4s1 2 1 5 1 5 2 5a13 13 0 0 1 2 4l3 3c3 0 2-5-1-6-2-1-2-1-2-6s0-6 2-6c3 0 4 3 5 8a13 13 0 0 0 2 4c1 1 0 2-1 3l-1 2c1 2 3 0 4-4a19 19 0 0 1 3-6c1-2 5-4 4-2a2 2 0 0 0 0 2 3 3 0 0 1 1 2c-1 2 2 6 4 6l1-3c0-4 1-4 4-1 3 1 3 2 3 6 0 5 0 5-2 5s-2 2 0 2c2 1 2 1 2 3 1 4 2 4 3 0l2-3a3 3 0 0 0 3-1c1-1 2-1 3 2l3-2 4-3c2 0 2 1 2 5l-1 5-1 5c1 2 1 3 3 3s2 0 2-2a8 8 0 0 1 1-4 7 7 0 0 0 1-4 4 4 0 0 1 1-2c1-1 5 3 5 5l1 1v2l1 3c2 1 6-3 5-5a2 2 0 0 1 1-2v-2c-2-2-1-4 2-3l2 5c0 12 0 12 2 12a3 3 0 0 0 3-3c1-1 1-2 3-2 3 0 4 1 4 6 0 4 0 4 2 4a3 3 0 0 0 1-2l1-3 1-6c0-4 1-5 2-7l2-2 2 2c2 2 2 5-1 6-2 0-3 1-1 2l1 8a45 45 0 0 0 0 9c1 3 3 2 3-3l1-6c2-1 3-7 3-9s3-1 4 1c2 3 1 6-1 6s-2 1-1 4l1 4c1 2 1 2 3 0l2-4a13 13 0 0 1 3-4c2-3 2-8 1-11v-3l3-2 1 14 1 14 1-3c1-4 5-10 7-10v5l1 8c1 1 2 1 2-1l2-2 1-3 1-4h1l2 2c2 1 4 5 2 7a12 12 0 0 0-2 3l-2 1c-1-2-2-2-2 1-1 2 1 4 4 4 2-1 3-1 3-3l1-3 2-3a7 7 0 0 1 1-4l1-6c0-3 2-6 4-6 1 0 3 3 3 5a2 2 0 0 1-1 2 2 2 0 0 0-1 2 4 4 0 0 1-2 3 4 4 0 0 0-1 2 4 4 0 0 1-1 3l-1 5c-1 4-1 4 1 6 3 2 4 1 4-3a6 6 0 0 1 2-4 5 5 0 0 0 1-3l1-3a3 3 0 0 0 1-3c0-2 4-6 4-5l-1 15v4a3 3 0 0 0 2-2 4 4 0 0 1 1-2l2-4a12 12 0 0 1 2-6 20 20 0 0 0 3-7l2-3c2 0 2 1 2 5l-1 6c-2 2-2 7-1 8s5-3 5-5a4 4 0 0 1 1-2 7 7 0 0 0 2-4 3 3 0 0 1 2-3c3-1 5 0 3 2l-1 6c0 5 0 6-3 7v3c2 3 5 2 6-2a29 29 0 0 1 2-6 4 4 0 0 0 0-2l2-5a17 17 0 0 0 1-4c0-1 2-2 4-1v13l1 1a2 2 0 0 0 2-2 5 5 0 0 1 2-3 5 5 0 0 0 1-3l1-2 2-3c0-2 1-2 2-1a3 3 0 0 1 1 5c-2 1-2 9-1 10l4-2 3-4v-2c2 0 3 1 2 3-2 2-2 9-1 9 2 0 4-4 4-6l1-3 6-14c0-2 3-9 4-8 2 0 2 7 0 8s-2 6 0 7-1 6-3 8l-2 2 2 2c2 2 4 1 4-1a17 17 0 0 1 1-3 7 7 0 0 0 1-3 6 6 0 0 1 1-3c1-2 2-2 3-1 3 0 5 4 3 4v3l4-5a6 6 0 0 1 1-2 8 8 0 0 0 1-5l2-2 1-4a7 7 0 0 1 2-5h3c2 1 2 3 2 10l1 8 3-2 2-3 2 2a8 8 0 0 1 2 5l3 1a3 3 0 0 1 2 2 3 3 0 0 0 3 1l2-2a9 9 0 0 1 2-5c2-2 2-2 4-1a2 2 0 0 1 1 3c0 2 2 3 3 1l3-1 2 2c3 0 3 5 0 8-2 1-2 2-4 1-3-1-3-1-3 1a5 5 0 0 1-1 3c-2 2-1 2 2 1h3a3 3 0 0 0 2 1l3-6 3-3c2-1 3-2 3-4 0-3 2-7 5-7l1 4c0 4 0 5-2 7-3 3-3 3-2 5h3a10 10 0 0 0 2-3v-2a16 16 0 0 1 3-3c4-4 7-3 7 2l1 2c2 0 4-3 4-5s3-4 5-4l3 2c2 2 4 3 5 0s3-6 5-7c3-1 4 0 4 4s1 6 4 4h3c3 3 10 1 8-3l2-3a4 4 0 0 0 1-3 11 11 0 0 1 1-5 25 25 0 0 0 1-7 12 12 0 0 1 1-5 2 2 0 0 0 0-2c-2-2 0-3 3-3s4 2 3 6v21c1 1 3 0 3-2l3-5 3-3 2 2c2 3 2 5-1 4-2-1-3 1-1 2s2 2 0 6v4c1 1 4-1 4-3l6-7 3 4c2 6 5 5 6-2 0-4 3-6 6-3 1 2 2 3 1 5l-1 2c-2 0-1 3 1 5 3 2 4 2 6 0 2-3 2-4 0-4l-2-1a2 2 0 0 1 1-1 2 2 0 0 0 2-1v-1c-2 0-1-3 0-5a5 5 0 0 1 3 0c3 0 4 5 1 7-2 1-2 1-1 2 3 2 5 1 5-2l2-2 3-6c0-4 3-6 5-3 1 1 1 6-1 8a2 2 0 0 0 0 2c1 2 3 1 4-1s3-4 5-3c1 0 2 2 2 5 0 6 0 6 5 1 3-3 5-4 8-4h5l3-4a19 19 0 0 1 3-5 5 5 0 0 0 1-3c0-2 0-2 3-2 5 0 5 1 3 5-4 4-1 6 3 2 2-3 4-3 5-1 1 1 1 1 5-1s3-1 4-5l1-5 1 1 1 1v-2c-1-1 0-5 2-8 2-1 1-2-2-5l-4-6a6 6 0 0 0-1-3c-1-2-1-4 1-4a5 5 0 0 1 3 2 5 5 0 0 0 3 2 2 2 0 0 1 1 1 4 4 0 0 0 2 3v16l-1 8c0 3-1 4-2 4a3 3 0 0 0-1 2c0 2-1 2-2 2l-4 3c-2 2-3 3-4 2s-1-1 1-2l2-1c0-1-1-2-5-1l-4 1a2 2 0 0 0 2 1 3 3 0 0 1 2 1c1 1 0 2-1 3a6 6 0 0 0-2 3c0 2-3 5-5 5a2 2 0 0 0-2 1 2 2 0 0 1-2 2 6 6 0 0 0-3 1c-2 2-5 1-3-1s1-3-1-3c-3 0-3 1-2 3 2 1 1 1-1 2a7 7 0 0 0-3 2 2 2 0 0 1-3 1l-3 1a10 10 0 0 1-5 1c-2-1-3 0-4 1l-4 1c-3 0-5 1-5 2l-8 1-8 1c-1 2-25 2-27 1a11 11 0 0 0-4-1 6 6 0 0 1-3-3c-1-3-3-3-6 0-2 2-2 2-16 2l-18 1-7 1c-5 0-6 0-7-2l-3-2 1 2 2 4-21 1-22 1c-2 2-16 2-18 1a5 5 0 0 0-7 0h-5a2 2 0 0 0-2-2l-4-2c-3-4-6-4-7 0 0 1-1 2-3 2l-4 2h-5a2 2 0 0 1 1-2v-2a4 4 0 0 0-3 2c-1 1-1 1 1 2 2 2 0 3-4 3a13 13 0 0 1-4-1h-8l3 1c3 1 2 3-2 2a4 4 0 0 0-3 1 6 6 0 0 1-4 2 6 6 0 0 0-4 1c-2 2-5 2-6 0l-5-1-7-1a3 3 0 0 0-3 0c-2 1-2 3 1 4a20 20 0 0 1 4 3 7 7 0 0 0 3 2 4 4 0 0 1 2 1 4 4 0 0 0 3 1c2 0 5 4 4 5-1 2-4 1-6-1l-3-2a2 2 0 0 1-2-1 4 4 0 0 0-2-1c-2 0-8-3-12-8-4-4-5-5-6-3l-4 1a12 12 0 0 0-5 1v2c2 1 2 2-1 5l-2 2v-3c-1-1-1-2-3-2a11 11 0 0 1-4-1l-12-4a2 2 0 0 1-2-1 3 3 0 0 0-3-2l-2-1h1a1 1 0 0 0 2-2 1 1 0 0 0-2-1l-8 4-3-1a4 4 0 0 0-4-1l-2-1c-1-2-4-1-9 1l-6 2h-3l-5 7c-5 5-5 6-5 9a13 13 0 0 0 0 5v3c-2 1-2 1 0 1a4 4 0 0 0 3-1h2a5 5 0 0 0 3 2 4 4 0 0 1 4 2l4 2a5 5 0 0 1 4 0l15 1 16 1a6 6 0 0 0 5 1l10-5a2 2 0 0 1 1-2c2 0 2-1 2-3 1-4 3-4 3 0l-1 3-1 1 1 1 1 6c0 5-1 6-2 6-2 1-4 4-4 8a4 4 0 0 1-1 3v2c1 1 1 0 3-2s4-3 6-3c4 0 5 1 9 5 5 5 6 6 8 5a4 4 0 0 1 3 1 3 3 0 0 0 3 0 2 2 0 0 1 2 1 3 3 0 0 0 3 1 2 2 0 0 1 2 1 3 3 0 0 0 2 1 3 3 0 0 1 3 1 3 3 0 0 0 2 2c2 0 6 3 5 4s-13 0-15-1a5 5 0 0 0-2-2 2 2 0 0 1-2-1l-3-1a7 7 0 0 1-3-1l-10-1c-8 0-10-1-8-3 1-2-1-2-3 0a3 3 0 0 1-3 1 7 7 0 0 0-3-1c-2 1-2-1 0-2v-3l-6 5c-3 2-5 6-6 5a2 2 0 0 0-2 1 5 5 0 0 1-3 1l-6 3c-2 2-3 2-8 2l-7 2c-3 2-7 2-9 0s-4-2-4 1-2 3-3 1h-5l-2 1c-4 1-5 4-4 7s2 7 0 8-2-1-1-3a4 4 0 0 0-1-3 11 11 0 0 1-2-4c-1-3-3-4-6-2-3 1-3 1-4-1l-5-1a11 11 0 0 1-6-2c-1-1-3-2-5-1-3 0-4 2-3 3 2 1 2 12 0 12l-1-4a26 26 0 0 0-3-9l-4-4c-1 0-2 0-3 3 0 3-3 9-4 8l-1-6c-1-6-3-10-5-10a2 2 0 0 0-2 1c-1 2-3 2-3 0s-3-3-6-4l-4-1c0-2-4-1-4 0a8 8 0 0 0 2 3l2 8 1 6a7 7 0 0 1 2 4c0 2-1 2-3 3-2 0-4 2-2 2s1 2-1 4a14 14 0 0 0-2 5 5 5 0 0 1-2 3 10 10 0 0 0-3 2 10 10 0 0 1-2 2v1h5l4-5 4-5 3-5c3-3 3-4 4-9 0-8 3-14 5-9l1 4 1 4a35 35 0 0 0-2 7c0 6-2 11-5 12a1 1 0 0 0 0 1l-5 7c-3 5-5 6-7 6a13 13 0 0 0-5 1 12 12 0 0 1-4 2h-2c0 1 7 9 11 11l14 14a10 10 0 0 0 4 2c3 1 5 1 7-2a4 4 0 0 1 3-1l6-6c3-4 6-6 8-6s2-2 2-2c0-2 8-10 9-10s2 1 0 3l-2 4-4 6c-3 3-4 6-4 7a2 2 0 0 0 4 1h2a4 4 0 0 0 3 1c1-1 1 0 1 1l-1 1-2 1a1 1 0 0 0 1 2c2 0 6-4 6-6l1-1 6-6c0-1 6-7 8-7 5 0 5 5 1 9l-2 3-4 4c-4 4-5 6-3 6l5-3c3-3 4-3 7-2 2 1 3-1 1-3v-2a4 4 0 0 0 2-2l2-3 2-2a4 4 0 0 1 2-2 3 3 0 0 0 1-3 3 3 0 0 1 2-3c2-1 2-1 1 2l-1 3-1 4c0 3-1 4-3 6a9 9 0 0 0-3 5c0 2 0 3 2 3s3-1 3-2c2-3 13-16 14-15 2 0 1 5 0 7l-2 2-3 5c-4 4-5 7-2 8 2 0 11-9 11-10a3 3 0 0 1 1-2 5 5 0 0 0 2-3c0-2 0-3 2-3s2 1 2 4c0 4 0 4-3 6s-3 4 0 4a8 8 0 0 1 4 1c3 1 4 0 2-3v-4l5-5c0-2 3-5 5-5 2 1 1 7-2 10l-1 2-3 5-4 5h5a14 14 0 0 1 3-2 5 5 0 0 0 2-3 4 4 0 0 1 1-3 3 3 0 0 0 2-2c0-2 5-6 6-5 1 2 1 5-1 7a7 7 0 0 0-1 3 2 2 0 0 1-1 2c-2 1-2 3 0 3a4 4 0 0 0 3-2 85 85 0 0 1 6-7l4-6c0-1 4-5 6-4s2 3 2 6c-1 2-1 2-3 1h-3l2 2c2 2 2 2 0 3s-2 5 0 5a2 2 0 0 0 2-2 2 2 0 0 1 2-1c2 1 2 1 2 3l-1 4c-2 2-1 3 4 4l6-1c2-1 1-3-1-3s-3-1 0-5a41 41 0 0 0 2-4 16 16 0 0 1 3-4 7 7 0 0 0 2-4c0-2 1-2 4-2s3 0 4 2c0 3 2 2 4-1a35 35 0 0 1 5-6l3-5c0-2 3-5 4-5 2 0 2 2 0 6-2 3-2 6 0 6l5-5 6-8c1-4 1-4 5-4s5-2 2-3a6 6 0 0 1-2-2v-4c2-2 5-1 5 2 0 2 1 2 2 2 2 0 3 0 3-4s1-5 3-3v5l-1 6 2-2c1 0 6-6 6-8a3 3 0 0 1 1-2c2-1 4-9 4-15l1-7v-2c-3-2 1-4 7-3 2 0 2 6 0 7v3c1 2-1 4-4 5-2 1-2 2 0 4 2 1 2 2 1 3a3 3 0 0 0-1 2c1 1 0 2-1 3a5 5 0 0 0-1 4c1 2-2 8-5 10a6 6 0 0 1-3 1 2 2 0 0 0-2 2l1 1c2 0 2 1 0 3a6 6 0 0 0-1 4l-1 3a2 2 0 0 0-2 2c0 2-13 15-15 15a10 10 0 0 0-3 2c-2 2-4 2-8 3l-6 1a2 2 0 0 1-2 0c-2-1-3 0-2 2 1 1 0 1-1 2a8 8 0 0 1-3 2l-7 4a10 10 0 0 1-5 1l-3 1-6 2-8 2a10 10 0 0 1-4 1l-4 1-18 1h-18a12 12 0 0 1-3 0c-1 0-2-2 0-2a2 2 0 0 0 2-1c1-1-2-4-4-4-1 0-2 0-1 2l-1 2-15 1c-13 0-14 0-17-2a16 16 0 0 0-5-1c-2 0-6 4-6 6s-3 2-3 0a2 2 0 0 0-2-1 3 3 0 0 1-2-1c-3-3-6 0-8 9 0 2-1 2-3 2s-3 2-1 3 2 2-2 6-4 6 0 6c2 0 3-1 3-3s1-2 4-2c4 0 4 2 1 6a27 27 0 0 0-4 6c-1 2-1 3-3 3s-5 3-5 5a2 2 0 0 1-2 2l-6 4-8 3c-3 0-7 3-6 5h6a4 4 0 0 1 3-1l5-3a9 9 0 0 1 6-2c2 0 2-1 3-3 0-1 0-2 2-2a8 8 0 0 0 3-3c3-3 8-4 9-1 1 2 1 3-2 3a3 3 0 0 0-2 2c-1 2-6 8-8 8a4 4 0 0 0-3 1 6 6 0 0 1-4 2c-2 0-3 0-5 2l-4 3-1 1c0 2 3 2 4 0a2 2 0 0 1 3 0c1 0 2 0 3-2l4-2c1 0 6-2 9-5l3-1a6 6 0 0 0 3 1c4 0 3 1 0 4l-3 2-4 2c-3 1-6 3-5 4s4 1 5 0a3 3 0 0 1 2-2 3 3 0 0 0 2-1l2-1 16-11 5-4a2 2 0 0 0 3-2c0-3 4-5 6-5 2 1 1 5-3 7l-4 3c0 2-6 5-8 4-1 0-2 1 0 3v3a5 5 0 0 1-3 2 1 1 0 0 0-1 1 1 1 0 0 0 2 0l3-1 3-1 3-3a20 20 0 0 0 5-4 5 5 0 0 1 4-2 2 2 0 0 0 2-1 2 2 0 0 1 2-1c3 0 5-2 5-3l3-3h3c2 1 1 4-2 5l-3 3c0 2-2 2-4 1-2-2-4 0-3 2s-3 8-5 9c-1 0-2 1-1 2 0 2 3 1 6-2l4-2 4-2a11 11 0 0 1 4-3 7 7 0 0 0 3-3 4 4 0 0 1 4-2 3 3 0 0 0 3-1c0-2 4-2 4 0s-3 6-4 6a16 16 0 0 0-4 2c-3 2-4 5-2 5s11-6 11-7h5c5 0 5-1 5-3 0-1 0-2 2-2s3 0 3-2l1-2a1 1 0 0 1 2 1 4 4 0 0 1-2 2 4 4 0 0 0-1 3 6 6 0 0 1-2 3c-3 2-3 5-2 6 2 1 3 0 7-4l7-5c2 0 9-6 9-8a1 1 0 1 1 3 0l-6 7-2 4c1 1-1 4-2 4l-6 3-6 3a4 4 0 0 0-3 1 5 5 0 0 1-3 2c-2 0-2 1 0 3 2 1 2 1 9-3l4-2a23 23 0 0 0 6-4 24 24 0 0 1 5-4 47 47 0 0 0 8-6c5-4 8-6 8-3l-2 3a10 10 0 0 0-3 4l-4 4-4 3c0 2-1 2-3 3-5 1-5 3-1 3 3 1 3 2 0 3-2 1-1 2 2 2 2 0 3 0 3-2s3-7 5-7l5-5a31 31 0 0 1 3-5c4-5 6-6 9-5a3 3 0 0 0 4-1 4 4 0 0 1 2-2l6-6c3-3 3-4 7-4s3 1 3 2a4 4 0 0 1-1 3 4 4 0 0 0-2 3c0 2-11 12-14 12s-7 7-4 8l2-1c0-2 1-2 2-1l-15 14a4 4 0 0 0-3 1 3 3 0 0 1-2 1 6 6 0 0 0-4 1h-3c-2-2-8-1-9 2-1 2-2 2-4 2l-4 1-4 2a13 13 0 0 0-5 1 16 16 0 0 1-7 1c-3 0-4 1-4 2h-12a12 12 0 0 0-5-2 13 13 0 0 1-5-1c-3-2-3-2-6 0s-3 1-5 0a8 8 0 0 0-4-1 18 18 0 0 1-6-2 19 19 0 0 0-6-1l-3-1-4-2h-4l-12-4-3-1 2-1 2-2-3-1a5 5 0 0 0-3 1 4 4 0 0 1-3 2 2 2 0 0 1-2-2 3 3 0 0 0-3-1 3 3 0 0 1-2-1l-5-3-4-3-3-1c-2 0-3 0-3-2-1-2-6-5-7-5a2 2 0 0 0-1 2 4 4 0 0 1-1 3 8 8 0 0 0-2 4c0 2 0 3-2 3s-2-1 0-2v-3a6 6 0 0 1 1-5 9 9 0 0 0 2-3c0-2-4-8-6-8l-2-1a4 4 0 0 0-3-2l-1-1-2-2c-3-1-12-8-14-11a4 4 0 0 0-2-2 4 4 0 0 1-2-1c-2-2-3-1-3 3s-1 5-4 3-1-5 1-8c3-2 3-2 1-4-2-3-5-3-7 1a15 15 0 0 0-2 4c0 2-2 7-4 7a5 5 0 0 1-3-1c-1-2-1-2 3-9a9 9 0 0 0 1-4l2-3a7 7 0 0 0 2-2c0-2-6-8-8-8s-2 0-2 7l-1 10c-2 4-4 4-4 1 0-2-3-3-3 0a4 4 0 0 1-2 2c-2 2-2 3 2 3 3 0 3 1 1 3l-3 3c0 2-13 16-15 16s-2 2 0 3c2 2 6 1 9-3a35 35 0 0 1 5-4 15 15 0 0 0 4-6 31 31 0 0 1 3-5c2-2 4-2 4-1a4 4 0 0 0 1 3c3 2 1 6-2 8a29 29 0 0 0-7 8c-1 3-3 5-4 5a4 4 0 0 0-3 1h-14c-4-1-4-3-2-4s1-3-1-3c-3 0-7-8-6-11 2-3 2-5 0-6a2 2 0 0 1-2-1c0-1 1-2 3-1 5 1 5-1 3-5-1-3-2-3-3-3-2 0-2 0 0-2l-2-4-2-3a23 23 0 0 0-2-6l-1-4c2 0 9 8 11 11 2 5 5 8 6 8 2 0 2 0-1-7-2-3-2-7-1-6a38 38 0 0 1 5 4c3 3 4 4 4 7a10 10 0 0 1-1 5 7 7 0 0 0-2 3 5 5 0 0 1-2 4c-2 1-3 3 0 3 1 0 7-7 8-12 1-3 0-13-2-15a6 6 0 0 1-1-4 3 3 0 0 0-1-2 3 3 0 0 1-1-2l-4-7c-3-4-4-5-6-5l-3 1-4 1c-3 0-7 3-7 5l-3 3c-3 1-3 2-3 4l-2 4c-3 0-1 12 2 15 3 2 7 10 7 12a8 8 0 0 0 2 4c2 3 1 5-2 5-3 1-5 3-2 3 2 0 5 4 5 6a6 6 0 0 0 2 4l8 9c0 2 6 10 8 11l1 2a10 10 0 0 0 2 3c2 3 3 3 5 1l8-1c5 0 5 0 5-2 0-3-2-4-4-3-4 2-10 2-12 1-2-2-1-3 2-4a7 7 0 0 0 3-2 9 9 0 0 1 5-3l7-4c4-4 7-4 8-1 0 2-1 7-3 7v1c0 2 2 3 4 1a4 4 0 0 1 2-1l4-3c3-4 5-5 7-3s2 0 3-3c0-3 1-3 3-3 3-1 4 0 4 1 0 2-4 5-6 5l-4 4c0 1-4 6-6 6l-2 2a7 7 0 0 1-4 4 32 32 0 0 0-4 1 11 11 0 0 1-4 1l-4 2c-1 2-3 3-4 2l-2-1c0-2-1-2-3-1s-2 3 1 7c3 3 5 3 5 0a2 2 0 0 1 2-1 4 4 0 0 0 3-2 5 5 0 0 1 3-1 8 8 0 0 0 4-1 7 7 0 0 1 3-2l5-3c7-6 8-6 12-7s5 0 5 3l-10 9a12 12 0 0 0-3 2 4 4 0 0 1-2 2 3 3 0 0 0-3 1l-1 1-6 1-7 2c-5-2-7 1-3 4a19 19 0 0 1 4 4c4 7 6 8 10 4 2-2 1-3-2-2s-7-3-6-6c0-2 1-2 2-2a5 5 0 0 0 4-1 6 6 0 0 1 4-1l1-1 2-2a7 7 0 0 0 4-1 7 7 0 0 1 4-1l4-3 4-3 6-4 6-5c1 0 1 3-1 4a4 4 0 0 0-2 3 3 3 0 0 1-2 2 14 14 0 0 0-4 4 40 40 0 0 1-6 5c-2 2-3 2-8 2-6-1-7 1-4 4l2 2-2 1-2 1c0 2 5 1 8 0l2-1 2-1 3-2h2a4 4 0 0 1 2-2l7-5c4-3 6-5 8-5s3 2 1 3l-1 2-2 2c-2 0-3 2-3 3s-2 4-5 5c-5 3-7 4-10 3-2 0-3 0-2 1 1 3 0 5-4 6l-3 1a1 1 0 0 0 0 1h3a8 8 0 0 0 5-1 8 8 0 0 1 4-1 4 4 0 0 0 2-1 4 4 0 0 1 3-1 15 15 0 0 0 4-2 37 37 0 0 1 5-2 3 3 0 0 0 1-3 3 3 0 0 1 2-3 7 7 0 0 0 3-2l4-1 3-1 1-1h2l-13 14-6 5a4 4 0 0 0-3 1 7 7 0 0 1-3 2c-2 0-2 1-1 2a3 3 0 0 0 3 1h3c0 2 4 2 5 1l-2-2c-3 0-3-1 2-4a48 48 0 0 0 9-6l6-4h3c2-2 4-2 4-1 0 2-4 6-6 6a3 3 0 0 0-3 2 32 32 0 0 1-2 3 14 14 0 0 0-1 3 2 2 0 0 1-2 1c-2 0-4 3-4 4 0 2 5 1 7-1l4-3 2-2c1-2 1-2 3-2a3 3 0 0 0 2-1 2 2 0 0 1 2-2 6 6 0 0 0 4-2c3-3 6 1 3 5-3 3-5 4-6 2a1 1 0 0 0-2 0c-1 1-1 1 1 2 1 1 1 1-1 2a5 5 0 0 1-3 1c-2 0-2 0-2 2 0 4-8 7-10 4h-2a2 2 0 0 0 1 2v1c-2 1-2 3 1 3 2 1 13-4 16-8a6 6 0 0 1 4-2 3 3 0 0 0 2-1l2-1a10 10 0 0 0 4 1c2 0 2 2 0 4-6 6-8 7-9 7a2 2 0 0 0-3 1 2 2 0 0 1-2 2l-4 4h2l6-3 4-3h2l4-3c3-3 7-5 10-5s3 1 0 5c-2 3-10 10-12 10l-7 3-4 3c0 1 3 2 5 0l5-2a12 12 0 0 1 4-2 4 4 0 0 0 3-1 5 5 0 0 1 3-1l3-1a1 1 0 0 1 1-1l6-5 7-6c2 0 2 3 0 6a20 20 0 0 0-3 4l-5 4a4 4 0 0 0-2 1c-1 2-6 4-9 5l-1 2c0 2 4 1 7-1l6-3 3-3c1-2 3-2 4-2l2-1s1-2 3-2a25 25 0 0 0 6-5l4-3a4 4 0 0 0 2-1h2c1 1-2 4-10 12l-16 8h-1l3 3a14 14 0 0 1 4-1l3-1a2 2 0 0 1 2-1l4-3 4-3a4 4 0 0 0 2-1 4 4 0 0 1 3-1 2 2 0 0 0 2-1 3 3 0 0 1 3-2c1 0 7-5 7-7 0-3 6-7 6-4l-5 6a1 1 0 0 0-1 1v2l-3 3-3 4-4 3a3 3 0 0 1-2 2 3 3 0 0 0-2 1 14 14 0 0 1-4 3l-3 3c2 2 4 2 7-1a20 20 0 0 1 5-4 11 11 0 0 0 4-3h3l3 1c1 0 2 0 2 2a2 2 0 0 0 1 1c2 0 14-11 14-12l3-5c3-4 4-4 5-2h1a2 2 0 0 0-1-1c-1-1-1-4 1-6 6-5 7-6 9-6l2-1a8 8 0 0 1 0-2l-1-1-1-1a5 5 0 0 0-2-3c-2-2-1-7 0-10 2-3 4-3 4 0s0 3 4 2c2-1 3-3 1-2-2 0-3-2-3-5 0-2 1-2 2-2a3 3 0 0 1 2 1l2 1a2 2 0 0 0 1-3l1-1c2 0 2 7 0 9l-1 8-1 8a6 6 0 0 0-1 3 6 6 0 0 1-1 4l-2 5-1 4a8 8 0 0 0-6 6c-1 2-1 3 1 2s2 0-1 3a19 19 0 0 0-3 5l-2 3-3 3c1 2-5 8-7 8a3 3 0 0 0-2 1l-7 4a4 4 0 0 0-3 1 4 4 0 0 1-3 2 7 7 0 0 0-3 1l-6 1-5 1-19 1-19-1-5-1-4-1a6 6 0 0 0-4-1l-4-2-4-1-4-1-3-2a5 5 0 0 1-4-1 4 4 0 0 0-3-1 3 3 0 0 1-2-1l-5-2-4-1a4 4 0 0 0-3-1 3 3 0 0 1-3-1 3 3 0 0 0-2-1 4 4 0 0 1-3-2 6 6 0 0 0-4-1 9 9 0 0 1-4-1l-7-2-5-1a3 3 0 0 0-2-1 5 5 0 0 1-3-1 19 19 0 0 0-5-1h-6a9 9 0 0 1-5 2 6 6 0 0 0-4 1l-6 2-7 1-6 1-7 1a6 6 0 0 1-3 2 4 4 0 0 0-3 1l-4 1a12 12 0 0 0-5 1c-2 2-3 2-7 1l-3-1a2 2 0 0 0 2-2l1-1 1-2h-2a5 5 0 0 1-4 2c-3 0-7 2-7 3h5c3 1 0 4-3 4a5 5 0 0 0-3 1 6 6 0 0 1-4 1 9 9 0 0 0-5 2h-9l-4 1-3 1 2 1c3 2 3 3 0 3a9 9 0 0 0-5 1 5 5 0 0 1-3 1 4 4 0 0 0-4 1l-6 1-4 2h-8a4 4 0 0 1-2 1 4 4 0 0 0-3 1l-4 2a13 13 0 0 0-5 1l-5 1c-2-2-4-2-9 1l-10 2-7 1c-1 2-4 2-4 0h-8c-2 1-2 0 0-2 2-3 1-6-2-7a7 7 0 0 1-3-1c-1-2-3-1-3 2 1 1 1 2 3 2a4 4 0 0 1 3 2c0 1 0 3-2 3l-1 1c0 2-7 3-16 4l-12 1-14 1-12 1c-1 2-4 2-6 0a3 3 0 0 0-3-1 3 3 0 0 1-3-1c-2-2-3-2-4 0-1 1-2 2-4 1a11 11 0 0 0-5 1c-4 2-9 2-11 0h-2c-1 2-3 2-8 0a17 17 0 0 0-7-1c-3 1-4 0-4-2s-2-3-3-1-10 1-12-1-3-1-5 1h-3a4 4 0 0 0-3-2 7 7 0 0 1-4-1 10 10 0 0 0-5-1h-3v10a10 10 0 0 1-1 4 15 15 0 0 0-2 5v4s-2 2-2 5-1 4-1 4l-2 2-2 2-1 2c0 2-1 2-4 1l-7 1c-2 1 0 2 4 2 2 0 3 1 3 2a4 4 0 0 1-1 3 4 4 0 0 0-2 2c0 2-6 8-7 8l-2 2a4 4 0 0 1-3 3s-3 1-5 4l-6 3-2 1-3 2a13 13 0 0 0-4 1h-50a2 2 0 0 1-2 0h-6c-1 1-5 2-6 0Zm59-4-1-1c-2 0-2 1-1 3s2 0 2-2Zm-134-1a2 2 0 0 0-1-1 1 1 0 0 0-1 1l2 1v-1Zm36-2a8 8 0 0 1 2-2 5 5 0 0 0 3-2c0-2-4-2-5 0h-1l-3 1c-2 2-3 3-2 4s5 0 6-1Zm53 0c1-1-2-2-6-2-6 0-7 1-6 3h6a33 33 0 0 0 6-1Zm-44-2-2-3a1 1 0 0 0-1 1c0 2 1 3 3 2Zm73-1a4 4 0 0 0-2-2c-2-2-1-5 2-4s8 0 9-1c2-3 8-5 11-3 2 1 1 1-3 2-2 1 0 2 2 2s4-3 4-5a2 2 0 0 1 2-2l4-5a60 60 0 0 1 6-7l4-6a4 4 0 0 1 1-3 4 4 0 0 0 1-3 4 4 0 0 1 2-3 4 4 0 0 0 1-2l1-2 1-3c1-2 8-12 9-11 2 0 1 7 0 7a3 3 0 0 0-2 3 3 3 0 0 1-1 2 3 3 0 0 0-1 2 3 3 0 0 1-1 3 2 2 0 0 0-2 2c0 2-1 4-4 7l-3 3-2 4c-3 3-4 6-3 6s8-5 8-7l1-2 1-1a18 18 0 0 1 3-4 28 28 0 0 0 4-5c1-4 3-5 5-5 1 0 2-1 1-2a3 3 0 0 1 1-3l1-7c0-6 0-7-2-9a11 11 0 0 0-4-2l-4-1a11 11 0 0 1-4-2 7 7 0 0 0-4-2 5 5 0 0 1-3-1c-1-1-14-2-15-1v3l1 12c0 8 1 11 2 14v4a21 21 0 0 0-1 3 7 7 0 0 1-3 3c-1 1-2 2-1 3 1 2-9 12-13 12a12 12 0 0 0-5 3c-2 2-5 3-6 2l3-5 4-5a7 7 0 0 1 3-3 24 24 0 0 0 3-5l4-7c3-5 3-7 1-10a12 12 0 0 1-1-5 3 3 0 0 0-1-2c-1-1-1-4 1-7s2-4-1-7v-21c0-1 0-2-2-2-3-1-5 0-3 2s2 2 0 3a8 8 0 0 1-2 0l-4-11-2-7-2-4-1-5a25 25 0 0 0-1-6 24 24 0 0 1-1-6 14 14 0 0 0-1-5 17 17 0 0 1-2-7 41 41 0 0 0-1-8 38 38 0 0 1-1-7 5 5 0 0 0-2-3l-1-5a13 13 0 0 0-1-6v-7c-1-1-2-7-1-8v-4a3 3 0 0 0-1-5c-2-1-2-2-2-4 0-3-1-4-2-4v-3c1-2 2-2 1-10v-9c1-2 0-5-1-7l-1-15-1-14v-22a202 202 0 0 1 0-39 3 3 0 0 1 0-4l1-9 1-9a7 7 0 0 0 2-3 4 4 0 0 1 1-3l1-5 2-6a6 6 0 0 0 1-3l2-3c2-2 3-2 5-1 2 2 3 1 2-1s-1-3 1-3h1c0-2-3-2-3-2a6 6 0 0 1-3 2c-3 1-3-1-1-4a6 6 0 0 0 1-3 4 4 0 0 1 2-2 2 2 0 0 0 0-3l2-2a5 5 0 0 0 1-3 3 3 0 0 1 1-2 2 2 0 0 0 1-2l3-5 5-8 1-1 1-1 2-5 3-4 3-3c2-1 2-3 2-3 0-2 11-15 14-16 3-2 5-5 2-5a4 4 0 0 1-2-1 4 4 0 0 0-3-1 5 5 0 0 1-3-1c-2-1-2-1-7 1a36 36 0 0 1-4 2l-2 2-2 1a5 5 0 0 0-3 1l-5 1-4 1-2 2-8 5-7 5a6 6 0 0 0-3 2 6 6 0 0 1-3 3 2 2 0 0 0-2 3l-3 5c-2 2-2 4-2 5a3 3 0 0 1-2 2 2 2 0 0 0-1 2l-3 4c-2 1-2 3-2 4a9 9 0 0 1-2 4 9 9 0 0 0-3 5l-2 4c-3 2-3 3-3 7a28 28 0 0 1-3 9 47 47 0 0 0-4 10l-2 7-1 8c-1 7-1 7-3 8-3 0-4 2-4 4h2a3 3 0 0 1 2-1v4l-1 5a17 17 0 0 1-2 7l-1 12c0 8 0 10-2 12-1 1-2 2-4 1-2 0-3 2 0 4a5 5 0 0 1 2 3 8 8 0 0 0 1 3l-1 5-4 3a2 2 0 0 0-1 1c-1 1 0 1 1 1l2 1-1 2v12l-1 12-1 13v29c1 2 1 3-1 3-2 1-2 6 0 10 2 5 2 5 0 9v5c2 2 2 5 2 10l1 9c2 2 2 7 0 7s-2 5 0 7l1 12c0 8 1 12 2 14l1 11 1 9 2 7 1 7c2 2 2 6 1 7a4 4 0 0 0-1 3v2c-2 0-1 2 1 3 2 0 3 1 3 4a15 15 0 0 0 1 6 7 7 0 0 1 2 4l2 4a9 9 0 0 1 2 4 3 3 0 0 0 1 3c1 0 2 1 2 3a8 8 0 0 0 1 5l10 8 3 2 2 2a20 20 0 0 1 5 2 11 11 0 0 0 6 2 14 14 0 0 1 5 2h4l5-2c5 1 6 2 2 3a18 18 0 0 0-4 1 17 17 0 0 1-5 1l-4 1c-1 1 0 2 2 2a11 11 0 0 1 4 1 12 12 0 0 0 4 2c2 0 4 1 2 2-1 1 0 2 3 2l3-1Zm-23-24c-9-6-11-8-11-10v-1c-2 0-2-4-2-6l2-1c1 2 3 2 3 0l-3-3c-5-2-7-4-6-7a14 14 0 0 1 2-4v-8l1-6 1-2c1-3 6-9 7-9a4 4 0 0 0 2-1 5 5 0 0 1 3-1 3 3 0 0 0 3-1c1-2 3-1 3 1s0 2 3 2a7 7 0 0 0 4-1c1-1 2-1 6 3l4 6a4 4 0 0 0 0 2l3 5 3 6a54 54 0 0 1 0 29 4 4 0 0 0-1 2l-4 3a27 27 0 0 0-6 3 14 14 0 0 1-7 2c-4 0-5 0-10-3Zm9-1c0-2-1-3-3-3-4 0-5 0-3 2s6 3 6 1Zm4-20a3 3 0 0 0-1-2h-3a3 3 0 0 0 0 2 2 2 0 0 0 4 0Zm-17-3a11 11 0 0 0 1-4c0-3 3-5 7-8 6-3 4-7-2-6-3 0-5 1-8 5-4 3-5 4-5 7 0 6 5 11 7 6Zm21-14c0-2-5-4-6-3s-1 1 1 3 5 2 5 0Zm35 14c-1-1 0-3 1-3v5l-1-2Zm0-7a16 16 0 0 1 0-5c0-3 0-3 2-3s3 0 3 4c-1 5-3 7-5 4Zm-72-19a1 1 0 0 1 1-1c2 0 1 1 0 2l-1-1Zm27-10 1-1a1 1 0 0 1 1 1l-1 1-1-1Zm-35-5a15 15 0 0 1-2-6 17 17 0 0 0-1-5c-2-2-2-3 0-6l2-2 2 2 2 9v9c0 2-2 1-3-1Zm-4-34a6 6 0 0 1-1-4 6 6 0 0 0-1-4c-2-2-4-23-3-25 5-5 7 4 7 23 0 9 0 11-2 10Zm-3-39a2 2 0 0 0-1-2c-1 0-2-2-2-7l-1-8-1-19 1-19c4-4 6 5 6 31v13l-1 12-1-1Zm-5-58 1-4 1-15c0-8 1-12 2-13v-8a2 2 0 0 1 0-2 3 3 0 0 0 1-3 3 3 0 0 1 0-2c3-4 3 10 1 28v11c1 4 1 6-1 7l-4 1Zm9-71a3 3 0 0 0 0-2c-2-1-1-12 2-20a30 30 0 0 0 1-7 33 33 0 0 1 1-9 27 27 0 0 0 2-7l1-6a7 7 0 0 0 1-4 11 11 0 0 1 1-4 28 28 0 0 0 2-4l1-2c3 0 2 9 0 10l-1 3a9 9 0 0 1-1 4l-2 8a38 38 0 0 1-1 10 38 38 0 0 0-1 10l-2 8-1 8-1 5a2 2 0 0 1-2-1Zm21-86 1-1 1 1a1 1 0 0 1-1 0 2 2 0 0 1-1 0Zm9-19 4-6a51 51 0 0 0 4-7 4 4 0 0 1 2-2 4 4 0 0 0 3-2c0-2 6-8 7-8 2 0 1 2-2 5l-2 4a2 2 0 0 1-2 1 3 3 0 0 0-1 3l-2 2c-1 0-4 2-7 7-2 3-3 4-4 3ZM85 865c0-1 0-2-2-2a4 4 0 0 1-3-1l-2-1v2a3 3 0 0 1 1 3c-1 1 0 2 1 2 2 0 5-1 5-3Zm9-4 1-2c-1-1-6 3-5 4s3 0 4-2Zm28 1c1-1 0-1-1-1a1 1 0 0 0-1 1c0 2 2 1 2 0Zm39-6c4-2 5-3 2-3a2 2 0 0 0-3 1l-3 1c-2 0-2 0-2-2s-1-2-3-3-2-1-2-3l-3-6c-1-3-3-4-2-5a3 3 0 0 0-1-3 4 4 0 0 1-1-2c0-2-2-3-3-2-1 2-1 5 1 6s2 6 0 6a3 3 0 0 1-2-1l-3-1c0 2 4 4 6 3 2 0 2 0 2 3 0 2 1 3 2 3s2 1 1 3 0 2 2 4c3 3 7 4 12 1Zm86 1c0-1 0-2-2-1l-1 1a1 1 0 0 0 3 0Zm-135-6 1-1 2-1c0-1-2-1-3 1l-1 2a1 1 0 0 0 1-1Zm-39-2-2-3c-3-2-4-1-2 2 2 2 3 3 4 1Zm47-2a1 1 0 1 0-1 1 1 1 0 0 0 1-1Zm7-1c1-2 0-3-2-4-1-1-1 0-1 2l1 3 2-1Zm-39-3c0-2 0-2-2-2a4 4 0 0 0-3 3c0 2 0 2 2 2s2-1 3-3Zm19-5c4-2 5-3 5-5l-4-1c-6 1-8 3-8 6l1 3 6-3Zm18-3a5 5 0 0 0-1-3c-1-2-3 0-2 3 1 2 3 2 3 0Zm-48-8 3-1a6 6 0 0 1 0-2l-4-1c-5 0-8 2-8 4s1 2 9 0Zm57 0c0-1-3-4-5-4s-1 3 1 4h4Zm6-2a4 4 0 0 0-1-2l-1-4c0-3-2-6-3-5 0 1 0 7 2 11s3 3 3 0Zm-17-1a10 10 0 0 0-2-3l-1-8-1-6c-1 0-2 1-2 3 0 3-2 6-7 9l-3 3h8l3 1c3 2 5 2 5 1Zm-57-9a1 1 0 1 0-1 1 1 1 0 0 0 1-1Zm39 0-2-1-1 1 1 1 2-1Zm162 0-1-1a1 1 0 0 0-2 1c0 2 2 1 3 0Zm46-6c2-2 3-3 1-3a7 7 0 0 1-3-1c-3-2-3-1-2 2 0 3 1 4 4 2Zm-186-2a1 1 0 1 0-1 1 1 1 0 0 0 1-1Zm-54-2a1 1 0 0 0-1-2c-1-1-4 0-4 2s4 1 5 0Zm214 0c0-1-1-2-4-1-2 0-2 0-1 1h5Zm98-3-3-1c-3-1-5 2-2 4h3a4 4 0 0 0 2-3Zm-296 1c0-1-1-2-3-2l-3 1 2 1a4 4 0 0 1 2 1c1 2 3 1 2-1Zm13 0c2 0 6-3 6-5s-2-2-3-1a17 17 0 0 1-4 3l-4 3c0 1 1 2 2 1a32 32 0 0 1 3-1Zm331 1a2 2 0 0 0-2 0l1 1 1-1Zm-172-4a1 1 0 1 0-1 1 1 1 0 0 0 1-1Zm19-3-2-1-1-1-4-5-3-5a2 2 0 0 0-2-2 20 20 0 0 1-3-1 7 7 0 0 0-3-1c-2 0-12-10-13-13l-1-3c-1 0-2-5-1-6 1 0 4 2 8 7l9 8c2 0 6 2 13 7l8 5a4 4 0 0 1 2 1c1 1 5 2 5 0l-2-1a19 19 0 0 1-5-4l-3-3-14-11-9-7a3 3 0 0 1-2-2l-4-5-4-5c0-2 6-1 10 1l3 3 9 6 4 2 4 3 4 2 3 2 2 1s2 2 3 1l-1-1a5 5 0 0 1-1-3l-4-4-4-3h-2l-5-4a30 30 0 0 0-7-5 10 10 0 0 1-3-2l-10-7-2-2a20 20 0 0 0-4-5l-2-3-2-2a13 13 0 0 1-5-4l-2-4c2-2 1-3-3-2-3 2-4 3-2 4s5 7 5 9a1 1 0 0 0 1 1 13 13 0 0 1 4 2l12 10c0 1-4 2-9 2a22 22 0 0 0-6 0c-1 1 1 7 3 9 2 1 2 2 2 4a11 11 0 0 0 1 6 20 20 0 0 1 1 7 8 8 0 0 0 2 5 8 8 0 0 1 2 2 10 10 0 0 0 2 3c1 2 2 3 5 2s3 0 4 1a4 4 0 0 0 3 2l5 4 5 4a2 2 0 0 1 2 1 3 3 0 0 0 2 2l2-2Zm88 1c4-1 0-4-5-4-4 0-3 4 1 4a21 21 0 0 1 3 1 4 4 0 0 0 1-1Zm-20-1c1-2 1-3-2-3a33 33 0 0 1-7-1 34 34 0 0 0-8-2l-3-1a2 2 0 0 0-1-2l-5-2a12 12 0 0 0-3-2 5 5 0 0 1-3-2 5 5 0 0 0-2-1l-13-9c0-2-3-1-4 0v3c1 2 8 6 10 6l7 4a3 3 0 0 0 2 1 3 3 0 0 1 2 1c1 2 5 4 7 4a4 4 0 0 1 3 1 3 3 0 0 0 3 1 2 2 0 0 1 2 2l6 1 7 1h2Zm122 0a1 1 0 1 0-1 1 1 1 0 0 0 1-1Zm-345-1c3-1 3-2 0-2a5 5 0 0 1-3-1c-1-2-2-1-2 2 1 2 2 2 5 1Zm-57-1c-1-2-2-2-3 0l2 1a1 1 0 0 0 1-1Zm32-1c-1-1-3 0-2 1h1l1-1Zm303 0a3 3 0 0 1 3 0c3 0 5-2 4-4 0-2 0-2-1-1a10 10 0 0 1-4 2c-3 0-4 1-4 3 0 1 1 2 2 0Zm43 0a3 3 0 0 0 1-2h-3l-2-1a2 2 0 0 0-2 2c0 2 3 3 6 1Zm33 0-1 1h1a1 1 0 0 0 0-1Zm-106-1c0-2 0-2-2-2s-3 2-1 3c1 1 3 0 3-2Zm-265-1c2-3 2-6 1-7-2-2-6 5-5 8 1 1 3 1 4-2Zm195 0-2-1-2 1c0 2 3 2 4 0Zm-187-1a3 3 0 0 1-1-3c1-1-1-3-2-3v7a4 4 0 0 0 2 1l1-2Zm133-1c3-3 0-5-3-2l-1 2 2 1a5 5 0 0 0 2-1Zm49 0c0-1-1-2-3-2s-2 1-1 2 4 1 4 0Zm15 0-2-1c-2-1-2 0-2 1l2 1 2-1Zm50 0c1-1-3-3-7-5l-13-6-7-3a3 3 0 0 1-2-1l-6-4a28 28 0 0 1-7-4 5 5 0 0 0-3-1l-5-4-4-3-11-7-1-1-4-3c-1-2-4-2-5-2l-10-10v-1c2 1 3 0 2-2s-3-2-4 0c-1 1-2 0-4-1l-3-2-3-2-8-7-7-5-6-6-7-6a2 2 0 0 1-1-2c0-2-5-8-7-8-4 0 0 8 6 12 2 2 10 10 10 13a4 4 0 0 0 3 2l7 7c3 4 8 6 9 7a17 17 0 0 1 5 4l4 2 4 3a13 13 0 0 0 3 2l7 5a8 8 0 0 0 5 3 5 5 0 0 1 3 1 14 14 0 0 0 4 3 29 29 0 0 1 6 4l10 7 4 2 5 3a2 2 0 0 1 1 1 2 2 0 0 0 2 1l6 4c2 2 6 3 7 3a7 7 0 0 1 4 1 7 7 0 0 0 3 2 4 4 0 0 1 3 1 6 6 0 0 0 4 1 6 6 0 0 1 4 2h4Zm340 0a2 2 0 0 0-1 0h1c1 0 1 0 0 0Zm12-1h-1v1a1 1 0 0 0 1-1Zm-632-2c0-1-6-3-7-1-1 1 1 2 4 2l3-1Zm315 0-2-1a2 2 0 0 1-1-2 1 1 0 0 1 1-1c2 0 2-1 0-3l-5-1c-3 0-4 1-1 3a3 3 0 0 1 2 3 6 6 0 0 0 1 3c1 1 5 0 5-1Zm329 1a2 2 0 0 0-3-2 1 1 0 0 0 0 2h3Zm7 0c1-2-2-3-3-2a1 1 0 0 0 0 2 2 2 0 0 0 3 0Zm-605-2c-1-2-1-1-1 0l1 1a1 1 0 0 0 0-1Zm590 0a2 2 0 0 1 1-2c1-1 2-2 1-3h-3a3 3 0 0 1-2 1h-2a1 1 0 0 0 1 1 1 1 0 0 1 1 1c0 2 2 4 3 4v-2Zm-244-2c3 1 3 1 3-1s-1-2-4-2c-5 1-5 1-4 3s1 2 2 1l3-1Zm-384 0 1-3-5 4c0 2 3 1 4-1Zm24-4c0-4-2-5-4-2a4 4 0 0 0 0 4c2 3 3 2 4-2Zm270 2c1-1 0-1-2-1s-3 1-2 2 4 1 4-1Zm38 0c0-2 0-2-2-2a3 3 0 0 1-3-1 6 6 0 0 0-4-1l-4-1-3-1a5 5 0 0 1-3-1 7 7 0 0 0-4-2l-5-1h-2l3 3c4 3 7 4 10 3a4 4 0 0 1 4 2 7 7 0 0 0 4 1 5 5 0 0 1 4 2 3 3 0 0 0 5-1Zm9 0h-4v1c1 1 4 0 4-1Zm321 0a7 7 0 0 1 4-2l2-1c1-1-4-1-10 1h-3c-1-2-2-1-2 0l5 3c2 1 3 1 4-1Zm-623-2a2 2 0 0 0-1-2c-1 0-2 1-2 3s3 1 3-1Zm249 0-7-4c-2 0-2 2 1 4s5 2 5 0Zm-140-2-1-2c-2 0-4 2-4 4 1 1 5 0 5-2Zm-139-2a4 4 0 0 1 1-2 3 3 0 0 0 2-2l-2-1a1 1 0 0 0-1 1 1 1 0 0 1-1 2l-3 2c-1 3-1 4 2 2l2-2Zm337 1c0-1-1-2-3-2l-3 1c0 2 1 3 3 3s3-1 3-2Zm269 0-2-1a2 2 0 0 0-1 1c-1 1 0 1 1 1l2-1Zm-388-2c2 0 2-1 0-1h-6c0 2 4 3 6 1Zm51-1c0-1-4-5-8-5a4 4 0 0 1-3-2l-3-1-4-1-7-4-4-2-4-3a4 4 0 0 1-3-1 4 4 0 0 0-2-1l-6-4a52 52 0 0 0-8-5l-4-3a1 1 0 0 0-1-1 18 18 0 0 1-4-2l-5-3a66 66 0 0 1-12-9l-4-3-7-4-6-4-4-2-4-3-10-9-9-8a3 3 0 0 0-1 2c0 3 13 15 18 17l4 3c0 2 4 5 6 5l2 3c1 2 2 2 3 2a3 3 0 0 1 2 1 3 3 0 0 0 2 2 4 4 0 0 1 3 1 4 4 0 0 0 3 2l3 2a11 11 0 0 0 3 2l10 8 3 3 8 3c1 2 7 5 9 6a8 8 0 0 1 4 2 3 3 0 0 0 2 1l3 2 9 5a10 10 0 0 1 5 3l3 2 9 4 4 1c3 0 4-1 5-2Zm91 1-4-2-6-1-5-1a15 15 0 0 1-4-2 11 11 0 0 0-5-1 14 14 0 0 1-6-1 12 12 0 0 0-5-1 6 6 0 0 1-4-2 4 4 0 0 0-3-1 5 5 0 0 1-3-1 4 4 0 0 0-3-2 10 10 0 0 1-4-2 17 17 0 0 0-8-2l-5-2h-2l-4-3-4-3-7-3-2-1a4 4 0 0 1-3-1 4 4 0 0 0-2-2l-4-2-4-3a4 4 0 0 1-3-1 4 4 0 0 0-2-1l-5-4-4-3-16-11-5-2a4 4 0 0 1-3-3l-1-2a107 107 0 0 1-20-15l-5-3-8-7a324 324 0 0 1-16-12 1 1 0 0 1-1-1 78 78 0 0 0-7-7l-8-7a4 4 0 0 0-3-1l-3-2-4-2a4 4 0 0 1-2-2 4 4 0 0 0-3-1 4 4 0 0 1-2-1c-2-2-3-2-3 0s4 5 9 8l4 2a2 2 0 0 0 2 2l3 2a6 6 0 0 0 2 3 3 3 0 0 1 2 2l4 3 4 4c2 3 26 23 28 23 1 0 2 1 2 3l3 4 5 2a35 35 0 0 0 6 5c2 0 3 2 3 3a5 5 0 0 0 3 2l2 2 2 1a5 5 0 0 1 3 1 4 4 0 0 0 3 1 2 2 0 0 1 2 2 2 2 0 0 0 2 1c2 0 6 2 9 5l4 2 3 3c1 2 4 2 4 2a2 2 0 0 1 3 1 3 3 0 0 0 2 2l5 3a32 32 0 0 0 7 5l5 2 3 2a6 6 0 0 1 3 2l3 1a9 9 0 0 1 5 1 8 8 0 0 0 4 1l3 1a2 2 0 0 0 2 2l4 2 4 3a3 3 0 0 1 2 1l6 1c4 0 6 1 6 2a4 4 0 0 0 3 1l3 1 6 1 6 1 3 2 5 1 7 1 7-1Zm54 0c1-2 0-3-3-3-2 0-3 0-3 2a4 4 0 0 0 1 2c1 1 4 0 5-1Zm178-1c0-1 0-2-4-2l-4 1c0 2 2 3 5 3s3-1 3-2Zm49 0c3-3 2-4-1-1-2 0-2 2-2 2 1 2 2 1 3-1Zm24 0a1 1 0 0 0-1 1 1 1 0 0 0 1 1 1 1 0 0 0 0-2Zm-214 0h-1l-1 1h1a1 1 0 0 0 1-1Zm-459-3 3-3c2 0 8-5 8-6 0-2-3-2-8 3-5 4-6 4-9 4-3-1-3-1-3 1a2 2 0 0 0 1 1 4 4 0 0 1 3 1c1 2 2 2 5-1Zm613 1c0-1-4-2-5 0-1 1 1 2 3 2l2-2Zm-241-1c3 0 3-2 1-3s-6 2-4 3h3Zm183-1c0-2-3-4-7-3h-3l3 2c4 3 7 4 7 1Zm-256 0a2 2 0 0 0-2-2 10 10 0 0 1-5-2c-3-2-6-3-9-2s-2 1 0 2a19 19 0 0 1 5 3c3 2 12 3 11 1Zm282 0c2-3 2-4-2-4-4-1-8 0-8 1l7 4a5 5 0 0 0 3-1Zm-367-2c0-1-1-3-2-2s-1 2 1 2a2 2 0 0 0 1 0Zm212 0a2 2 0 0 0-3-2 1 1 0 0 0 0 2h3Zm56-1h-2 2Zm-501-1c3-1 2-4-2-4-3-1-3 0-3 1l2 4a12 12 0 0 0 3-1Zm39-1a2 2 0 0 0-1-1l-1 1 1 2 1-2Zm284 0c1-3 0-4-1-4-2 0-4 4-2 5 1 1 2 1 3-1Zm74 0c0-2-3-2-4-1-2 1-2 1 0 2 1 1 4 0 4-1Zm-172-1a1 1 0 0 0-1 1h1v-1Zm475-6c4-5 2-6-2-3l-3 3a6 6 0 0 1-1 3c-2 1-2 3-2 4 1 1 2 0 8-7Zm-337 5v-1a3 3 0 0 0-2-1c-2 0-3 1-1 2h3Zm22 0c0-2-5-4-9-4a12 12 0 0 1-6-2c-2-1-7-2-9 0-1 1-1 1 1 1a23 23 0 0 1 3 2c7 3 20 5 20 3Zm40-3a1 1 0 0 0-2-1c-2 0-3 1-1 3s3 1 3-2Zm26 2-3-1a2 2 0 0 0 0 2c0 1 3 1 3-1Zm10 1c2 0 2-1 0-2s-4 1-4 2h4Zm128 0c1-1-1-2-4-2-2 0-3 1-1 2h5Zm-431-1-3-2h-1c-2-2-2-1-1 1s5 3 5 1Zm-114-1c1-1-3-3-6-3a2 2 0 0 0-1 2l3 1h4Zm385-1-1-1c-2 1-2 2 0 2a1 1 0 0 0 1-1Zm47-2 3-4c-1-1-3 0-5 1s-2 1-3 0l-1-1v2c1 0 2 1 1 2l1 3 4-3Zm-181 1v-3a2 2 0 0 1-2-1 3 3 0 0 0-2-1l-5-3-4-3-5-2a13 13 0 0 0-4-2l-4-3-4-2-8-4a4 4 0 0 0-2-1l-4-4a29 29 0 0 0-8-5 23 23 0 0 1-6-4l-4-2a4 4 0 0 1-2-2 4 4 0 0 0-3-1l-5-4-18-14a138 138 0 0 1-11-10 2669 2669 0 0 0-24-24 50 50 0 0 0-8-6c-2-2-4-3-4-5l-3-1h-5c-1 2 4 8 6 8s7 4 8 7a15 15 0 0 0 8 8c3 1 5 3 20 18 4 5 8 8 9 8l6 6 6 5 8 8 3 1c3 0 4 1 7 4s4 4 6 4a6 6 0 0 1 5 2c2 3 8 6 11 6 2 0 2 0 2 2-1 1 0 2 1 3l2 1-2 1c-2 2-2 4 0 4a2 2 0 0 0 2-1 3 3 0 0 1 0-3l13 6 1 1a17 17 0 0 1 6 2l5 3 4 2a12 12 0 0 0 4 1 3 3 0 0 1 2 1c1 1 2 1 2-1Zm221-4c0-1-9-2-10-1-2 1 0 3 2 3a4 4 0 0 1 3 1h3a7 7 0 0 0 2-3Zm-74 3c0-1-1-2-3-1l1 2a2 2 0 0 0 2-1Zm-426-4c7-6 8-6 7-7 0-1-5 1-6 3a3 3 0 0 1-2 1c-1 0-4 3-3 4 1 2 2 1 4-1Zm120 1-2-1-1 1h3Zm223 0c0-2-5-5-7-4-2 0-3-3-1-4 2-2 2-3-2-3-3 0-5 1-2 2l1 1c0 2-3 2-4 0l-3-1-3-1a5 5 0 0 0-3-2 9 9 0 0 1-4-1v-3l1-2-8-1c-5 0-7 0-9-2l-3-3c0-1-3-3-5-3a12 12 0 0 1-4-2 11 11 0 0 0-5-2l-3-1-3-3a38 38 0 0 1-7-5l-8-6c-3-1-6-5-8-8l-16-12-7-6a115 115 0 0 0-10-9c-6-4-6-4-4-6h-2c-2 0-3 0-5-2a8 8 0 0 0-5-2l-2-1-7-4a2 2 0 0 1-2-1 4 4 0 0 0-2-1 3 3 0 0 1-3-1 2 2 0 0 0-2-2 4 4 0 0 1-2-1l-3-1 9 10a4 4 0 0 1 1 1l5 4 3 2 8 6 11 10 7 6a59 59 0 0 0 6 4 41 41 0 0 1 5 4 56 56 0 0 0 6 5l5 4c0 1 9 8 11 8a3 3 0 0 1 2 1c0 1 2 3 8 5l4 3a2 2 0 0 0 2 2 7 7 0 0 1 3 1 35 35 0 0 0 8 4 47 47 0 0 1 9 5 17 17 0 0 0 3 2l10 7 3 1c6-1 8 0 11 2a11 11 0 0 0 4 2 5 5 0 0 1 4 1 4 4 0 0 0 3 2 7 7 0 0 1 3 1c2 2 8 2 8 0Zm48 0-6-3c-16-4-18-5-13-6l3-1c0-2-3-2-5-1-4 2-6 2-9 0l-3-1-8-3-11-4-3-1a3 3 0 0 0-2-1 3 3 0 0 1-2-2 3 3 0 0 0-3-1 3 3 0 0 1-3-1 3 3 0 0 0-2-1 2 2 0 0 1-2-1 3 3 0 0 0-3-1l-4-3-4-3a4 4 0 0 1-3-1 5 5 0 0 0-4-1l-3-2a2 2 0 0 0-1-1l-4-2a10 10 0 0 0-4-3l-8-3-4-4a64 64 0 0 1-8-7l-5-3-2-2c0-3-1-4-4-5-6-1-7-1-6-4 0-3 0-3-4-5a28 28 0 0 1-10-6 94 94 0 0 0-8-6 52 52 0 0 1-4-4 2 2 0 0 0-3 0 13 13 0 0 1-7 0l-2 2c0 2 1 2 2 2l5 3a29 29 0 0 0 4 3l9 8 10 9 5 4 5 4c1 0 2 0 3 2s3 2 4 2l4 3 4 3 4 2a16 16 0 0 0 3 3 31 31 0 0 1 4 1 21 21 0 0 0 2 2 41 41 0 0 1 8 4 12 12 0 0 0 3 2l4 3 4 3a3 3 0 0 1 3 1l3 1 4 1a3 3 0 0 0 3 2l2 1 3 1 4 1a4 4 0 0 0 3 1l6 3c2 2 6 2 7 2a2 2 0 0 1 2 2l3 1 4 1a4 4 0 0 0 3 2 49 49 0 0 1 7 2 86 86 0 0 0 10 2l3 2 5 1 6 1c1 1 5 2 6 0Zm10 0-4-1c-5 0-5 2 0 2l4-1Zm141-1c3-2 1-3-3-1l-2 2c0 2 4 1 5-1Zm-564-2h-1a3 3 0 0 0 0 2h1a3 3 0 0 0 0-2Zm37 0c1-2 1-3-3-3-3 0-4 0-4 2s1 3 3 3l4-2Zm299 1c1-1-1-3-2-3v4a2 2 0 0 0 2-1Zm189-1h-1a1 1 0 0 0-1 1h1l1-1Zm49-2c0-1-3-4-5-4s-2 2 1 4 4 2 4 0Zm-363 0a1 1 0 1 0 0 1 1 1 0 0 0 0-1Zm-73-2c0-3 0-5-2-5l-1 3c0 4 2 6 3 2Zm160 1c0-2-5-5-6-3-1 1 2 4 4 4l2-1Zm-136-1a2 2 0 0 0-2-2 2 2 0 0 0 1 3 2 2 0 0 0 1-1Zm257 0-2-3c-3-2-6-1-6 2 0 1 0 2 1 1a4 4 0 0 1 3 0h4Zm29 0c0-1-1-2-4-2-2 1-4 0-5-1l-7-2-7-1a3 3 0 0 0-2-1 7 7 0 0 1-3-1 4 4 0 0 0-3-1v3l3 2a11 11 0 0 1 4 1 25 25 0 0 0 8 2l6 1a2 2 0 0 0 2 0 3 3 0 0 1 3 0c2 2 5 1 5-1Zm-214 0-1-1-1 1a1 1 0 0 0 1 0l1-1Zm-228-3-3-1c-3 0-4 1-2 2 3 1 5 0 5-1Zm11 0c3-3 4-4 1-4l-2 1s-1 2-3 2-2 1-1 2 3 1 5-1Zm214 0-1-1a3 3 0 0 0-3 1l2 1 2-1Zm243-1a1 1 0 0 0 1-1c0-2-3-2-4-1s-1 3 0 3a9 9 0 0 1 3-1Zm-475-1c0-1-1-2-3-1l1 2a2 2 0 0 0 2-1Zm156 0c1-1-3-3-4-3v3h4Zm7-2-1-2c-3-1-4 1-3 3 2 3 4 2 4-1Zm330 2-5-2a2 2 0 0 0-1 2l3 1 3-1Zm98-1-2-1c-2 1-3 1-2 2s4 1 4-1Zm-415 1a8 8 0 0 0-2-3l-3-1a3 3 0 0 0 3 4h2Zm276-2 2-1-2-1-3 1a6 6 0 0 0-2 2c0 2 3 1 5-1Zm59-1-3-1c-3 0-4 2-1 3 3 0 4 0 4-2Zm-97 1c1-1-5-5-7-5a10 10 0 0 1-4-1 12 12 0 0 0-5-1 17 17 0 0 1-6-3 28 28 0 0 0-6-2 7 7 0 0 1-4-2 3 3 0 0 0-2 0l-5-3c-1-2-3-3-5-3a19 19 0 0 1-7-2l-7-4a15 15 0 0 1-4-2c-1-2-6-4-9-4a4 4 0 0 1-3-1 4 4 0 0 0-2-1l-5-3-4-3s-3-1-5-4-4-3-5-3l-4-3a12 12 0 0 0-4-2 1 1 0 0 1-1-1c0-1-3-4-5-4l-4-3a60 60 0 0 0-9-7c-7-4-10-6-14-11a15 15 0 0 0-8-4h-8c-2 1-2 2-1 2a6 6 0 0 0 3 1l16 13 5 4a5 5 0 0 1 2 1 5 5 0 0 0 3 2l5 4 5 3 5 4 5 4a9 9 0 0 1 4 2 35 35 0 0 0 8 5 12 12 0 0 1 3 2c2 3 8 6 10 6a5 5 0 0 1 2 1 5 5 0 0 0 3 1 3 3 0 0 1 2 1 3 3 0 0 0 3 1l1 1c0 1 6 4 9 4l4 3a7 7 0 0 0 5 3 5 5 0 0 1 3 1 5 5 0 0 0 4 1 8 8 0 0 1 4 2 8 8 0 0 0 4 1l2 1 5 1 5 1a6 6 0 0 0 4 1 6 6 0 0 1 4 2 4 4 0 0 0 2 1 4 4 0 0 1 3 1c1 1 9 2 10 1Zm57-1a1 1 0 0 0-1 0c-1 0-1 0 0 0v1l1-1Zm-442-3 4-2c2 0 4-7 3-8-2-1-12 8-12 10s1 2 5 0Zm407 1a1 1 0 1 0-1 1 1 1 0 0 0 1-1Zm24-3-5-1-6 1c0 1 3 2 8 2 2 0 3-1 3-2Zm-14-2a2 2 0 0 0-2-2 18 18 0 0 1-3-1 34 34 0 0 0-7-1l-6-2-7-1-7-1c-1-1-1-2-3-1a4 4 0 0 1-4-1 7 7 0 0 0-4-2l-4-1a2 2 0 0 0-2-1 4 4 0 0 1-3-2l-4-1a15 15 0 0 1-5-1l-5-2a43 43 0 0 1-10-7 9 9 0 0 0-5-2q-2 0-5-3c-3-3-3-3-2-4 2-2 2-2-1-3h-3c0 2-5 1-8-2a21 21 0 0 0-5-3l-2-1-2-1a5 5 0 0 1-3-2 38 38 0 0 0-6-5l-5-4-5-3-4-3-2-1-5-4 3-1a6 6 0 0 0 3 0c2-1-1-3-5-2a7 7 0 0 1-5-1 39 39 0 0 0-7-3l-5-1-2 2c-2 2-2 2 1 3a9 9 0 0 1 4 3l3 2 5 4 5 3 5 4 5 4a4 4 0 0 1 3 1l4 3a53 53 0 0 1 5 4 6 6 0 0 0 3 2l2 1c0 2 3 4 5 4a10 10 0 0 1 4 2l5 2a4 4 0 0 1 2 2 4 4 0 0 0 2 1l5 2a11 11 0 0 0 6 3 5 5 0 0 1 4 2c2 2 5 4 11 6a47 47 0 0 1 5 3 32 32 0 0 0 3 1 6 6 0 0 1 3 2l7 1 8 1a6 6 0 0 0 4 2 7 7 0 0 1 4 1l5 1 5 1 5 2h5l4 2a18 18 0 0 1 6 0c2 1 4 1 4-1Zm-286 1a1 1 0 1 0-1 0 1 1 0 0 0 1 0Zm342-3c2-2 1-4-2-4s-7 2-6 4h8Zm-461-4a2 2 0 0 0-1-1l-1 1 1 2a2 2 0 0 0 1-2Zm117-6c0-6-1-8-2-9h-2v2c2 1 2 2 0 4v4a10 10 0 0 1 2 4l1 3 1-8Zm-145 7 3-6c0-1-3-1-6 1-4 2-4 2-2 4s3 2 5 1Zm429-3-5-1c-5 0-6 1-2 2s7 0 7-1Zm94-2c1 0-1-2-3-2a4 4 0 0 1-2-1c-1-1-2-2-3-1a2 2 0 0 0 2 3 2 2 0 0 1 1 2h3a12 12 0 0 0 2-1Zm-117-1-1-1a3 3 0 0 1-3-1 2 2 0 0 0-2-1c-2 0-2 2 0 2a5 5 0 0 1 3 2c1 1 3 1 3-1Zm43 1-1-2c-1-1-2-2-7-2l-7-2a12 12 0 0 0-6-1l-5-1a5 5 0 0 0-3-1 5 5 0 0 1-3-1c-1-2-9-4-13-4l-5-1a3 3 0 0 0-2-1 10 10 0 0 1-4-2 10 10 0 0 0-4-1 4 4 0 0 1-3-1 4 4 0 0 0-3-2 4 4 0 0 1-2-1 5 5 0 0 0-4-1 19 19 0 0 1-6-2 19 19 0 0 0-6-3 7 7 0 0 1-4-1 47 47 0 0 0-8-5 76 76 0 0 1-8-5 13 13 0 0 0-3-2 9 9 0 0 1-3-2 27 27 0 0 0-5-3 113 113 0 0 1-16-11l-4-4-4-2c-3-3-6-3-6-1s5 8 9 10a26 26 0 0 1 5 4 17 17 0 0 0 4 3 3 3 0 0 1 2 2 2 2 0 0 0 2 2 5 5 0 0 1 3 1 6 6 0 0 0 3 2 3 3 0 0 1 2 1l2 1 8 4a112 112 0 0 0 11 7 39 39 0 0 1 6 3 6 6 0 0 0 3 1c3 1 2 3-1 3l-3 2c-1 1 1 1 6-1s5-2 7 0a9 9 0 0 0 4 1 2 2 0 0 1 1 1l5 2a36 36 0 0 1 12 4 15 15 0 0 0 6 1l5 1a4 4 0 0 0 2 1 4 4 0 0 1 3 1l4 1 6 2 6 1 5 1 5 1c4 0 5 1 6 2 0 1 6 2 6 0Zm-181-3a1 1 0 0 0-1 0l1 1v-1Zm188 0c1-2-1-4-4-4-4 0-4 1-1 3s4 3 5 1Zm39 0h-8c-1 1 0 1 4 1l4-1Zm-467-4c0-4-1-5-2-4a8 8 0 0 1-3 2c-3 0-4 2 0 2 2 0 3 1 3 2 1 3 2 1 2-2Zm458 2a2 2 0 0 0-3-1l2 3 1-2Zm-80 0a1 1 0 0 0-1-1 2 2 0 0 0-2 1l1 1 2-1Zm-269-1c2-1 2-2 1-3s-2-1-3 0v4a6 6 0 0 0 2-1Zm342 0a2 2 0 0 0-2 0l1 1c1 0 2 0 1-1Zm-13-4-4-2a11 11 0 0 1-5-1l-6-1-5-1-5-1c-3 0-5-1-5-2a3 3 0 0 0-3-1 7 7 0 0 1-3-1 8 8 0 0 0-4-2 11 11 0 0 1-5-1 12 12 0 0 0-5-1l-3-2-3-1-4-1-3-2c-3 0-8-1-10-3a4 4 0 0 0-2-1 4 4 0 0 1-3-1 4 4 0 0 0-2-1 6 6 0 0 1-3-2 7 7 0 0 0-4-1 11 11 0 0 1-4-2 12 12 0 0 0-4-2 5 5 0 0 1-2-2 3 3 0 0 0-3-1 4 4 0 0 1-3-1 7 7 0 0 0-3-2l-5-2a23 23 0 0 0-5-3 5 5 0 0 1-2-1 35 35 0 0 0-5-3l-8-6c-4-2-6-3-7-2l-1 3a9 9 0 0 1 3 2 13 13 0 0 0 5 2l9 6 7 4 13 9 2 1a16 16 0 0 1 5 2 16 16 0 0 0 5 1 3 3 0 0 1 2 1 4 4 0 0 0 3 1 3 3 0 0 1 3 1 3 3 0 0 0 2 2 3 3 0 0 1 3 1 3 3 0 0 0 2 1 8 8 0 0 1 5 2 8 8 0 0 0 4 3l23 6a16 16 0 0 0 5 1 11 11 0 0 1 5 2 12 12 0 0 0 4 1 6 6 0 0 1 4 1l6 1 16 4c2 1 3 0 3-2Zm-462-2a3 3 0 0 0 2-2c0-2 1-2 3-2 4 0 9-5 11-10 2-4 3-4 4 0 0 3 2 2 2-1l1-3h-4c-3 0-4 0-8 3a25 25 0 0 0-4 6 4 4 0 0 1-2 2 9 9 0 0 0-3 2l-7 5a6 6 0 0 1-2-2c-2-2-5-2-5 0l2 2a8 8 0 0 1 4 2h3a11 11 0 0 1 3-2Zm9 3 3-3 1-1a4 4 0 0 0-4 1c-2 1-2 3-1 3a1 1 0 0 0 1 0Zm470-1c0-1-4-2-6-1s-2 1 0 2 5 0 6-1Zm-171-3-3-1c-2 0-3 1-1 2s4 1 4-1Zm-286-3c0-3-1-4-3-4-2 1-3 3-1 5s4 1 4-1Zm484 1c0-1-1-2-3-2l-2 1c-1 2-1 2 1 2l4-1Zm-398-2v2a2 2 0 0 0 0-2Zm31-1a1 1 0 0 0-1-1c-2 0-2 2-1 3s2 0 2-2Zm106 2-1-1a2 2 0 0 0-1 1 2 2 0 0 0 2 0Zm-124-1a1 1 0 1 0-1 1 1 1 0 0 0 1-1Zm281-1-1-1-1 1 1 2 1-2Zm-223-3-1-1a1 1 0 0 0-2 2c0 1 2 1 3-1Zm282-1c1-1 0-3-2-3a3 3 0 0 1-2-2c-1-2-2-2-4-1l-5 1h-4c0-1-3-3-5-3s-3 2-2 3a9 9 0 0 0 4 1l4 1a4 4 0 0 0 2 0 12 12 0 0 1 5 2c2 1 8 2 9 1Zm-342-4c-1 0-3 1-2 2h1l1-2Zm-83 1a1 1 0 0 0-1-1v1l1 1v-1Zm647-1h-1a1 1 0 0 0-1 1h1l1-1Zm-260 0a2 2 0 0 0-2 0l1 1 1-1Zm56-1c1-2-2-4-4-4s-4 2-2 4h6Zm-278-1a2 2 0 0 0 1-2c-1-1-5-2-6-1-1 0-1 1 1 2 2 2 3 3 4 1Zm-40-3c0-2-1-4-4-7a71 71 0 0 1-7-8c-5-6-5-6-8-6l-2 2c0 2 5 7 7 7a4 4 0 0 1 2 2 15 15 0 0 0 4 4l2 3c0 2 5 5 6 5a3 3 0 0 0 0-2Zm273 1-2-1c-2 0-3-2-3-2l-3-1a10 10 0 0 1-5-1 18 18 0 0 0-6-2 34 34 0 0 1-8-3 21 21 0 0 0-8-2c-4 0-8-3-6-4 2-2 1-3-3-3l-6-1a9 9 0 0 0-4-1 7 7 0 0 1-4-2 7 7 0 0 0-3-1 4 4 0 0 1-3-1 4 4 0 0 0-2-2l-6-3-3-3 2-1c3-1 3-1 1-3a8 8 0 0 0-4-1h-8c-4-1-5-1-5 1a5 5 0 0 0 2 3 7 7 0 0 1 3 3c0 2 0 2 2 2l2 1 3 2a3 3 0 0 1 3 1 3 3 0 0 0 2 1l2 1 2 2c2 0 3 1 2 3h1c1-1 6-1 8 1l10 3a24 24 0 0 1 6 3l5 3a24 24 0 0 1 5 2 20 20 0 0 0 8 2c3 0 4 1 5 2a3 3 0 0 0 3 1 3 3 0 0 1 3 1c1 2 11 2 12 1Zm-283-3c-1-1-2-1-2 1h1a1 1 0 0 0 1-1Zm531 0c5-4 4-7 0-5a35 35 0 0 1-5 2c-7 2-8 5-2 5a10 10 0 0 0 7-2Zm-508-1c0-2-1-2-2-2-2 0-2 0-1 3s3 1 3-1Zm-138-3c-1-1-2 0-1 2s1 2 1 0a3 3 0 0 0 0-2Zm628 1 4-3a1 1 0 0 0 1-1c-1-2-4-2-7 0a9 9 0 0 1-4 1c-3 0-4 2-2 4s5 1 8-1Zm-643 0a1 1 0 1 0-1 1 1 1 0 0 0 1-1Zm629-3a18 18 0 0 1 5-4c4-1 4-3 1-4-2 0-12 5-13 7-2 4 4 5 7 1Zm70 2-4-3a2 2 0 0 0 0 2c1 2 4 2 4 1Zm-596-4v-3h-5c-5 0-6 2-1 3 2 0 3 1 3 2 1 3 3 2 3-2Zm10 1-2-1-1 1a2 2 0 0 0 2 1 1 1 0 0 0 1-1Zm160 0-6-4c-2 1-1 2 1 2a2 2 0 0 1 2 2 1 1 0 0 0 1 1l2-1Zm153 0-6-3c-2 0-1 0 1 2s5 3 5 1Zm178 0-1-1a1 1 0 0 0 0 1v1l1-1Zm-588-3h-2v1c1 1 2 0 2-1Zm602-3 2-2h-4a4 4 0 0 1-3 1c-3 0-4 1-4 3 0 3 1 3 5 1a26 26 0 0 1 4-3Zm55 5a2 2 0 0 0 2-2l2-3c4-2 4-3 0-1l-2 2-2 1c-2 0-3 1-2 2l2 1Zm-374-2h-3l2 1 1-1Zm116 0c0-2-2-3-5-4a8 8 0 0 1-4-1l-5-1c-3 0-4 0-5-2s-1-2-5-2a23 23 0 0 1-6-2 16 16 0 0 0-5-2 21 21 0 0 1-5-1l-6-2a14 14 0 0 1-4-4 5 5 0 0 0-3-2 3 3 0 0 1-3-1l-8-3c-1 1 0 6 2 6a5 5 0 0 1 3 2 4 4 0 0 0 3 1 4 4 0 0 1 2 1 2 2 0 0 0 3 1 2 2 0 0 1 2 1 4 4 0 0 0 2 2 4 4 0 0 1 3 1 5 5 0 0 0 4 1 5 5 0 0 1 3 1 4 4 0 0 0 3 2 16 16 0 0 1 4 1l6 2a3 3 0 0 1 3 1 4 4 0 0 0 3 1 5 5 0 0 1 2 1l13 3 3-1Zm239 1 2-2c2-1 4-3 3-4l-4 1a24 24 0 0 1-4 3c-2 1-2 2 1 2h2Zm-564-6a1 1 0 1 0-1 1 1 1 0 0 0 1-1Zm-127-2-1-1a1 1 0 0 0 0 2c0 1 1 1 1-1Zm4-7a3 3 0 0 0-3-2c-2 0-2 1-1 3a21 21 0 0 1 1 3c1 2 1 2 3 0v-4Zm49 4c-1-2-2-2-2 0-1 1 0 2 1 2a1 1 0 0 0 1-2Zm85-2a20 20 0 0 0-1-6 11 11 0 0 1 0-5c1-2-2-4-4-3-1 1-1 2 1 3s1 2 1 6v7c1 3 2 2 3-2Zm338 2-3-1c-3 0-4 1-3 2s6 0 6-1Zm142 0-2-1-2 1 2 2 2-2Zm-179 0a3 3 0 0 0-2 0c-1 1-1 1 1 1l1-1Zm-252-2c1-1-1-4-2-4-1 1-1 5 1 5a2 2 0 0 0 1-1Zm275-1c1-2 1-2-3-2l-4-1 3 2c2 2 4 2 4 0Zm-408-6c-1-2-3-2-5-1-1 1-1 1 1 3 1 1 2 2 3 1s2-1 1-3Zm394 2-4-1-5-1a30 30 0 0 0-6-3 70 70 0 0 1-10-4c-5-3-8-3-8 0 0 2 1 3 2 3a5 5 0 0 1 3 1 6 6 0 0 0 4 1l8 3c4 2 5 2 10 2l6-1Zm-298-1a3 3 0 0 0 0-3c-1-1-3 1-3 3h3Zm-27-2c0-1 0-2 2-2a3 3 0 0 0 2-2c0-2-3-2-6 0-2 2-2 3-1 4 1 2 3 2 3 0Zm486 1a4 4 0 0 1 3-1l10-7a5 5 0 0 1 3-1c2-1 2-1 2-3a12 12 0 0 0-1-3c-1-1-5 2-8 5s-4 3-7 3-5 1-9 3l1 3c2 2 4 3 6 1Zm-329-1a1 1 0 0 0-1 0l1 1v-1Zm357 0a1 1 0 0 0-1 0 2 2 0 0 0-1 0c-1 1 0 1 1 1l1-1Zm-413-4-2-1c-2 0-2 0-1 1a4 4 0 0 0 2 2l1-1Zm-107 0v-1a1 1 0 0 0-1 1h1c1-1 0 0 0 0Zm483 0-1-1c-1-1-2-3 0-3l1-2h-6c-1 1 0 4 1 6h5Zm-121-1c2-1 1-3-1-3s-3 1-2 3h3Zm-71-2c0-1-9-2-10 0-1 1 3 2 6 1l4-1Zm-273-2a2 2 0 0 0-1-2l-2 2c0 1 1 2 2 1a2 2 0 0 0 1-1Zm313 0c1-1 1-2 2-1s5-1 5-2c0-2-4-2-6 0h-3c-3-2-4-2-5 0s-2 1-3 0c-2-2-5-2-5 0-1 2 6 5 10 5 3 0 4-1 5-2Zm144-2a2 2 0 0 1 1-2l1-2h-9c-1 2-1 4 1 4a7 7 0 0 1 4 1c2 2 3 1 2-1Zm20-2a5 5 0 0 0 0-3c-1-2-1-2-2-1h-5v1c2 0 2 2 0 3a2 2 0 0 0-1 2l4 1 4-3Zm-559-2c0-4-2-6-3-4s1 9 2 9l1-4Zm94 2a15 15 0 0 1 1-6c2-3 2-3 0-4a3 3 0 0 0-2-1c-1 1-2 12-1 13 1 2 2 1 2-2Zm208 2c1-1-3-5-5-5l-5 2 9 4 1-1Zm-308-3c1-1 1-2-1-2s-4 1-3 2c1 2 2 2 4 0Zm587 0c1-1-1-2-3-1-2 0-2 1-1 2 2 1 3 0 4-1Zm-303 0-1-1-1 1 1 1 1-1Zm-196-1c1-2 0-7-1-7-2 1-3 3-2 5s2 3 3 2Zm80-2c0-1-3-3-5-3s-2 0 1 3c1 1 4 2 4 0Zm155 1c1-1-4-7-6-7l1 5c1 3 4 4 5 2Zm32-1-5-3c-2-1-1 3 0 4s4 1 5-1Zm-159 0-4-3a11 11 0 0 1-3-3l-10-5-2-2a12 12 0 0 0-5-4 52 52 0 0 1-7-5l-7-5-3-3 4-1c6-1 3-2-4-2-6-1-6-1-11-4l-4-5-4-3a25 25 0 0 1-6-5 53 53 0 0 0-5-5l-2-4a13 13 0 0 0-3-3 13 13 0 0 1-2-4l-1-1-2-3-2-2c0-1-3-5-4-4l-1 5c0 4 0 4 3 7l4 3 8 9a3 3 0 0 0 2 2c1 0 4 1 6 4l6 6 3 4 2 2a9 9 0 0 1 3 2 4 4 0 0 0 3 2l4 2 4 5c1 2 3 2 4 2l5 5c5 4 15 10 18 10a2 2 0 0 1 2 1 2 2 0 0 0 2 2 5 5 0 0 1 3 2c1 2 6 3 6 1Zm27 0-2-1-1 1 1 1 2-1Zm36 0-4-3c-3-1-4 0-3 3h7Zm-186-2-1-1a1 1 0 0 0-2 1h3Zm303 0a2 2 0 0 0-2-2 21 21 0 0 1-3-1 7 7 0 0 0-3-1 4 4 0 0 1-2-2h-2c-1 1 1 3 4 4a7 7 0 0 1 3 2c1 2 5 1 5 0Zm180-1c1-2 1-2-1-3s-2-1-3 1a8 8 0 0 0-2 3c0 2 4 1 6-1Zm-560 0a1 1 0 1 0-1 1 1 1 0 0 0 1-1Zm128 1c0-1-3-4-5-4a3 3 0 0 1-2-2c0-2-4-8-6-10-2-1-3 0-3 2a779 779 0 0 1 4 12c1-1 3-1 5 1l7 1Zm117-1a1 1 0 0 0-1-1c-3 0-3 2-1 2l2-1Zm345 1a9 9 0 0 1 1-2l-1-1-2 3h2Zm-51-2-2-2c-2 0-3-1-3-3s1-2 3-2 2-1 2-3l-1-2-1 1c0 1-7 2-8 1v-3c4-2 2-4-1-4a20 20 0 0 0-5 0v2a26 26 0 0 1 2 4 24 24 0 0 0 4 5 16 16 0 0 1 3 4c1 3 7 4 7 2Zm-393 0c1-1-8-10-9-10l-8-8-4-4c-3-2-4-4-4-5 0-2-4-5-7-6-1 0-2 1-2 4v9a2 2 0 0 0 3 0l2-1a7 7 0 0 0 3 2l3 2 3 3 10 9 3 3a4 4 0 0 1 2 1c2 2 4 2 5 1Zm72 0c1-1 0-2-1-2-3-1-3-1-1-2a8 8 0 0 1 3-2l-2-1a18 18 0 0 0-6 0c-2 1-5-1-10-4l-11-7-6-1c0 1 9 7 11 7l1 3c0 2 1 2 2 2l6 2 6 3a4 4 0 0 1 3 1c1 2 5 2 5 1Zm366 0-2-3a6 6 0 0 1-2-3 10 10 0 0 0-3-5 12 12 0 0 1-2-3l7-8c1 0 2-1 1-2h-7c-1 6-2 7-5 7-2 1-3 1-2 3 0 4 0 5 4 5 2 0 3 0 3 2l2 5c3 3 5 3 6 2Zm-419-1a9 9 0 0 0-1-2 2 2 0 0 0-3-1l-2-1-1-2-5-5c-2-3-6-4-7-5a3 3 0 0 1-2-3l-1-2-4-3-3-2c-1 0-4-4-4-6l-1-1-4-3-4-3-1-2-9-10a8 8 0 0 0-2 3c-2 2-2 2 0 4 2 4 4 6 7 6l7 4 4 6 2 2c3 1 5 3 5 5l8 8 7 5 7 5a5 5 0 0 1 3 2c2 2 4 2 4 1Zm78-1c0-2-1-3-2-2s0 3 1 3l1-1Zm-8-1-3-3c-5-2-9 0-4 2 3 2 7 2 7 1Zm16-1a3 3 0 0 0-1-2c-1-1-3 1-2 3s3 1 3-1Zm20 1c0-3-1-4-3-4-4 0-4 1-1 3s3 2 3 1Zm118 0a2 2 0 0 0-2-1 1 1 0 0 0-1 1h3Zm46-3h-5v2c0 2 0 2 3 0l2-2Zm-82 2c3-2 0-4-4-2v2h4Zm-249-6 1-7c1-1 1-2-1-4s-2-2-3-1a3 3 0 0 0 0 3l-2 2c-2 1-2 2 1 3 2 0 3 6 1 7s-2 2-1 2c3 2 3 1 4-5Zm451 4c2-2 2-6 0-6s-5 5-4 7c0 2 2 2 4-1Zm-225 0a1 1 0 1 0-1 1 1 1 0 0 0 1-1Zm65 0c0-2-2-1-3 0l1 1a1 1 0 0 0 2-1Zm194 0 1-3-1 1a4 4 0 0 1-3 1c-3 0-3 2-1 2a6 6 0 0 0 4-1Zm-299-2c0-2 0-2-3-2-4 0-5 1-3 3 1 1 6 0 6-1Zm18 1c2-1 1-2-1-3-3-3-6-3-6-1l2 3c4 2 4 2 5 1Zm30-1c0-3-3-4-7-4-3 1-4 3-2 3a8 8 0 0 1 4 1c2 2 5 2 5 0Zm-41 0c0-1-3-3-4-2a2 2 0 0 0 0 2h4Zm61-2-4-4v3c2 2 3 3 4 1Zm161-1a1 1 0 1 0-1 1 1 1 0 0 0 1-1Zm-256-2c2-2 15-2 15 0h1v-2c-1-1 0-1 8-2a30 30 0 0 0 6-1 41 41 0 0 1 5-2c2 0 3-1 2-2a1 1 0 0 0-1-1 54 54 0 0 1-7 1l-7-1c0-1-1-2-4-2s-3 0-3-1-1-2-2 0c-1 1 2 4 4 4 3 0 2 2 0 3h-9c-5-1-7-1-10-3-4-3-8-4-8-2l2 3c4 3 4 4 1 5-4 3-15 0-15-3h-2l-6-3-7-4-3-2-1-1-5-4c-3-3-5-4-7-4-3 0-9-5-9-8l-2-1a4 4 0 0 1-2-1 68 68 0 0 0-7-6l-6-6-1-3c-1-1-2-1-1-2s8 0 9 2a5 5 0 0 0 2 1l2 2 3 2c2 0 8 6 8 8 0 1 2 3 5 4l7 4a3 3 0 0 0 2 2c2 0 6 3 7 5 0 2 1 2 4 2s5 1 5 2a2 2 0 0 0 2 1 4 4 0 0 1 3 1c0 1 2 2 4 1l3 1 2 1c2 0 2-1 0-2-2 0-5-4-4-5s-1-2-2-1-3 0-7-2c-6-3-8-5-6-7 2-1 0-3-4-3-3 0-4 0-7-3a21 21 0 0 0-6-4l-3-2c0-1-6-8-8-8s-10-8-10-9a5 5 0 0 0-2-2 3 3 0 0 1-3-3c0-2 1-3 3-3l3 1 3 1c4 0 16 13 16 16 0 2 2 3 5 2l4 2c6 6 8 8 11 9s4 4 2 4l6 2c3 0 10 5 10 8 0 1 1 2 3 2a32 32 0 0 1 6 2c4 1 7 1 7-1l-2-1a11 11 0 0 1-4-3 6 6 0 0 0-3-2 4 4 0 0 1-3-1 4 4 0 0 0-2-1l-2-1a18 18 0 0 0-4-3c-7-5-16-13-16-15a3 3 0 0 0-3-1c-2 0-7-4-13-9l-4-6s0-2-3-4c-4-1-14-11-14-12l2-1c3-1 1-3-3-3-2 0-3-2-5-6l2-2h5c4 2 7 7 5 9s3 4 7 4c2 0 3 0 5 3 2 4 1 5-1 3h-5l3 3c3 2 4 2 5 1 3-1 5 1 3 3-3 1-2 2 3 2l4 1a2 2 0 0 0 1 1c2 0 13 11 13 13 1 2 1 2 5 2 3 0 4 1 7 3l3 3 5 3 5 3a12 12 0 0 1 3 2l24 12a35 35 0 0 0 6 2 20 20 0 0 1 4 2c4 1 4 2 3 3-2 3 0 5 2 4l6-1a26 26 0 0 1 7-1c4 1 4 0 2-2-3-1-2-3 1-3a3 3 0 0 0 2-1l4-1a7 7 0 0 0 5-2c3-2 2-4-3-3l-4-1a1 1 0 0 0-1-1l-1 2c1 1 0 2-6 5l-4 3-3-2c-6-3-8-4-12-4l-4-1-2-1a6 6 0 0 1-4-1 51 51 0 0 0-7-5l-12-7a10 10 0 0 0-4-2c-2 0-5-4-5-5 1-2-1-3-4-3-5 0-12-6-12-10l-1-1-4-3 9 1a5 5 0 0 0 3 1l8 5 7 5c2 1 2 2 1 3-2 1 0 2 4 2l6 1a7 7 0 0 0 3 1l4 3 4 3a7 7 0 0 1 4 1 6 6 0 0 0 3 1 4 4 0 0 1 3 2 5 5 0 0 0 3 1 9 9 0 0 1 5 1h2c1-1-3-5-6-5-2 0-2 0 0-2s0-3-2-2h-6a51 51 0 0 0-6-2 7 7 0 0 1-3-2 3 3 0 0 0-2-1 4 4 0 0 1-3-2 4 4 0 0 0-2-1c-2 0-8-6-7-7h3c3 0 4-1 1-2a5 5 0 0 0-4-1c-3 1-7 1-7-1l3-1c3 0 4-1 2-2a32 32 0 0 0-7-1c-5 0-6 0-8-2a14 14 0 0 0-4-2l-2-2-2-3c-5-2-3-3 4-3 6 0 6 0 12 4a72 72 0 0 0 8 5l3 3c0 2 1 3 3 3s9 5 10 6l1 1a3 3 0 0 1 3 1c1 2 6 4 8 4a3 3 0 0 1 2 1c1 2 5 4 7 4a4 4 0 0 1 3 2 4 4 0 0 0 3 1 4 4 0 0 1 2 1c2 2 9 2 10 0l-2-1a5 5 0 0 1-3-1 5 5 0 0 0-3-2 4 4 0 0 1-3-1 4 4 0 0 0-2-1l-5-2a80 80 0 0 0-9-6 23 23 0 0 1-4-4l-5-3a6 6 0 0 1-3-1 7 7 0 0 0-3-2l-4-2-3-3c-2 0-4-3-4-5 1-1 0-2-2-2l-3-1a7 7 0 0 0-2-1l-4-2-11-11c1-1 12 1 14 2a4 4 0 0 0 2 1c1 0 12 10 13 13a4 4 0 0 0 3 2 10 10 0 0 1 5 2 13 13 0 0 0 3 2l7 5c4 4 6 6 8 6a4 4 0 0 1 3 1c2 1 7 2 7 0s-6-7-9-7c-2 0-8-5-8-7s-1-2-3-2-4-1-6-3l-4-3c-2 0-10-8-9-9h7c6 0 7 1 11 4a35 35 0 0 0 5 3 26 26 0 0 1 2 2 15 15 0 0 0 3 1l4 4c3 5 3 5 7 5a11 11 0 0 1 5 1c1 1 1 2-1 2s-3 1-1 2h5a10 10 0 0 0 4 0c3 0 10 3 11 5l2 1a13 13 0 0 1 6 2c3 2 5 2 10 3 7 0 9 1 9 3 2 5-8 8-13 5a12 12 0 0 0-5-1 6 6 0 0 1-4-1l-4-2-4-1c0-1-6-4-9-4l-3-1s-2-2-3-1c-3 0-3 2 0 3a9 9 0 0 1 4 2 7 7 0 0 0 4 2 7 7 0 0 1 3 1 11 11 0 0 0 5 2 11 11 0 0 1 5 1 7 7 0 0 0 4 1 3 3 0 0 1 2 2l4 1c4 0 5 1 1 3-3 1-6 2-7 0h-3l-2 1-3 5c-2 2-2 4-2 5s2 1 4-1a7 7 0 0 1 4-1 3 3 0 0 0 2-1 2 2 0 0 1 2-1 12 12 0 0 0 5-2 12 12 0 0 1 4-1l3-2a5 5 0 0 1 3-2l6-4c2-3 4-4 5-4 2 1 3-1 2-3-1-1-1-2 4-6a50 50 0 0 1 6-6l12-12 12-13a6 6 0 0 1 2-3 28 28 0 0 0 4-4 63 63 0 0 1 6-8l4-5a4 4 0 0 1 1-3l1-4a7 7 0 0 1 2-6l3-4a2 2 0 0 1 1-2 2 2 0 0 0 2-2l3-5a32 32 0 0 0 4-4 24 24 0 0 1 1-3v-4c-1-1-4 1-4 3l-3 2a9 9 0 0 0-3 1c-2 2-10 1-12-1a13 13 0 0 0-4-3 3 3 0 0 1-2-2c0-2-2-3-5-3a3 3 0 0 1-3-1l-4-3c-4-2-4-2-3-4l-1-3a18 18 0 0 0-4-1l-4-2-4-3c-2 0-2 0-2-4 0-5-1-7-4-6-2 1-6-3-6-5a4 4 0 0 0-1-2c-2-2-1-3 3-3s5 1 8 4 4 5 4 7c1 3 1 3 4 4s12 10 12 11c0 2 3 4 4 4a5 5 0 0 1 3 1l9 3v-1a1 1 0 0 1-1-1l-5-4c-5-2-9-6-10-10 0-2-1-3-2-3-3 0-6-3-6-5a3 3 0 0 1 1-2c2-2 2-2 0-3-5-2-7-4-9-7-2-5-1-6 4-3a14 14 0 0 1 4 3 30 30 0 0 0 3 4 8 8 0 0 1 2 3l2 2 10 10c1 3 2 3 5 3 4 0 4-1 1-4a9 9 0 0 1-3-4 2 2 0 0 0-2-2c-2 0-8-6-8-8a1 1 0 0 0-1-1v-4l-3-3c-3-2-4-5-2-7l3 3 2 2q3 1 3 3l5 5c2 0 10 9 10 11 0 1 5 5 7 4s1-4 0-5l-6-6-5-6a4 4 0 0 0-1-2c-2-2-2-3 1-3s9 7 10 10c0 4 2 2 2-2s0-5-3-7l-2-4a4 4 0 0 0-2-2c-1-1-1-1 1-3 3-3 5-3 7-1 1 2 2 3 1 5s0 3 1 4a5 5 0 0 1 2 4c1 2 1 3 3 3s3-1 2-3c-2-1-1-6 1-7s4 1 4 6l1 4a2 2 0 0 0 1-2 6 6 0 0 1 3-3c1-1 2-2 4-1 4 1 5 5 2 7l-2 2h3c3 0 3 0 3-3s-1-2 3-2 4 0 4 3a6 6 0 0 1-1 3 4 4 0 0 0-1 3l-1 1a1 1 0 0 0-1 1c0 3 12-9 12-12 0-4 4-5 6-2 1 2 1 2-1 4a7 7 0 0 0-3 5 9 9 0 0 1-3 5c-2 3-3 6 0 6 1 0 11-11 11-13l3-6a51 51 0 0 0 4-6c1-2 4-3 6-1s2 4-1 7l-3 4-2 5c-3 4-3 6 1 4l7-9c0-1 3-5 5-5s1-2 0-2 0-4 1-5a2 2 0 0 0 1-2 5 5 0 0 1 2-3 11 11 0 0 0 3-4c1-2 4-2 5 0l-1 3a9 9 0 0 0-2 4 5 5 0 0 1-1 4 4 4 0 0 0-1 2 4 4 0 0 1-2 2v5c1 0 4-2 4-4l4-6 4-7a2 2 0 0 1 2-2 2 2 0 0 0 1-1 1 1 0 0 1 1-2v3c0 3 0 3 3 3s4-1 6-3c4-3 6-3 6 0 1 4-5 12-6 10a2 2 0 0 1 0-2c1-2 1-3-2-3s-5 2-3 3c2 0 2 3 0 4s0 3 2 2h2c1 1 0 3-1 4a4 4 0 0 0-1 3 2 2 0 0 1-2 2v2l5-4a49 49 0 0 1 8-6 12 12 0 0 0 4-4c1-2 5-2 5 0a4 4 0 0 1-1 2 4 4 0 0 0-2 2 4 4 0 0 1-1 2 4 4 0 0 0-1 3l-5 7a2 2 0 0 0-1 1l-2 2-2 1c0 4 3 2 8-3a43 43 0 0 1 8-7 24 24 0 0 0 5-2l5-3v4l-2 2-11 15-3 6 14-10a53 53 0 0 1 6-5c4-2 9 0 6 2a3 3 0 0 0-1 2l-3 4c-2 1-2 3-2 3a2 2 0 0 1-2 3c-2 0-10 8-10 9 0 2 4 1 6-1l4-3 2-2a3 3 0 0 1 2-2c2 0 5-3 6-4l7-4c2 0 2 2 1 3a5 5 0 0 0-2 3l-2 3c-4 4-11 12-10 13 2 2 5 0 11-7 6-6 8-7 10-7 3 0 5 3 3 4a2 2 0 0 0-1 1 2 2 0 0 1-1 2 2 2 0 0 0-2 2c0 1-2 4-5 6-4 5-5 6-3 7l8-6c7-8 14-12 16-12 2 1 2 4 0 5a4 4 0 0 0-1 3l-5 6c-5 4-5 6-5 6h3l2-2 7-6 9-7a32 32 0 0 0 5-4c3-3 5-3 3 0a8 8 0 0 0-1 4l-3 4-3 4-4 5c-4 5-5 5-8 5-5 0-6 1-3 2a7 7 0 0 1 3 2c1 2 4 0 14-9l12-11c3 0 3 0 2-3a11 11 0 0 0-1-4 5 5 0 0 1-2-2c0-2-3-3-5-3-2 1-4-4-3-9a33 33 0 0 1 2-5 4 4 0 0 0 0-3c0-1 0-2 2-3s2-3 2-4l2-4a8 8 0 0 0 2-5c0-3-2-8-4-9l-8-4a3 3 0 0 0-3-1l-1-1a1 1 0 0 0-1-1l-3-2a37 37 0 0 0-8-5 46 46 0 0 1-7-4 22 22 0 0 0-3-3l-4-2-2-2a23 23 0 0 1-6-4l-4-3-4-3-4-2-3-2-4-3a3 3 0 0 1-2-1v-3l2 1 1 1c3 0 2-2-1-4-4-3-6-3-5-1s-4 3-5 1a4 4 0 0 0-3-2 7 7 0 0 1-3-1l-12-1-12-1-4-1a10 10 0 0 1-5-1c-1-1-4-2-10-2l-11-1c-2-2-4-2-10-4-4 0-10-3-11-4l-5-1-7-1-6-2-6-1a5 5 0 0 0-3-1c-1 1-4 0-6-1h-5l-15 1-15 1-16 1-16 2-3 2c0 2-3 4-5 4a3 3 0 0 0-3 2 2 2 0 0 1-2 1 3 3 0 0 0-2 1 3 3 0 0 1-2 1 5 5 0 0 0-3 1 6 6 0 0 1-4 1 6 6 0 0 0-3 2 4 4 0 0 1-3 1 4 4 0 0 0-2 1 5 5 0 0 1-3 1 3 3 0 0 0-3 1 6 6 0 0 1-2 2 41 41 0 0 0-9 6 14 14 0 0 1-4 2 9 9 0 0 0-3 2l-4 2a5 5 0 0 0-3 1 26 26 0 0 1-6 3 35 35 0 0 0-7 4 20 20 0 0 1-5 2l-2 2h-1a7 7 0 0 0-4 2h-4a2 2 0 0 1 1-1c1-1-1-2-4-2s-5 2-2 4l2 2-2 1a8 8 0 0 1-3 2 2 2 0 0 0-2 2 3 3 0 0 1-3 1c-2 0-7 2-8 4a3 3 0 0 1-2 1 4 4 0 0 0-3 1 2 2 0 0 1-2 1 3 3 0 0 0-2 1c-1 2-2 2-3 0a5 5 0 0 0-2-1c-2-1-5 1-5 2l-2 1-4 4c0 1 2 1 3-1 2-2 10-4 10-2l-2 1-4 3c-1 2-3 2-4 2l-4 3-4 3a2 2 0 0 0-2 1 2 2 0 0 1-2 1 7 7 0 0 0-4 2l-3 2-4 3a18 18 0 0 1-5 3l-2 1-1 1-5 3-4 3h-2l-8 4 3-7 4-3c5-4 8-6 9-4a2 2 0 0 0 1 1l6-3c0-2-2-2-4 0-4 2-3 0 0-3s5-5 3-5h-2l-1 1a5 5 0 0 0-3 2 5 5 0 0 1-3 2c-1 0-4 2-6 5s-6 4-6 4a3 3 0 0 0-2 2 4 4 0 0 1-3 1 4 4 0 0 0-3 1 4 4 0 0 1-2 2 7 7 0 0 0-4 2 34 34 0 0 1-5 3 39 39 0 0 0-5 4l-4 2-2 2a6 6 0 0 1-5 1c-4 0-3-1 1-4l10-8 13-11a9 9 0 0 0 3-3 9 9 0 0 1 4-2 46 46 0 0 0 5-4 15 15 0 0 1 4-3 8 8 0 0 0 3-2 10 10 0 0 1 5-2l2-2a3 3 0 0 1 3-1l5-3a19 19 0 0 1 5-4c3-1 5-4 4-5l-3 1a5 5 0 0 1-3 1l-3 2a8 8 0 0 1-5 2c-2 0-3 1-5 3-1 2-2 3-4 3a3 3 0 0 0-2 1l-4 4-4 4h-1l-5 3-3 2-4 3-4 3-3 2-4 3-3 2c-3 3-4 3-7 1h-3l-3 4c0 1-2 4-5 6-4 5-5 6-4 8 0 3-2 5-6 4-2 0-2 0 0 2 2 1 2 2 1 5s0 10 1 10l1 1c0 2-4 2-5 0 0-1-1-1-4 2s-4 7-2 10a7 7 0 0 1 2 4l4 6 3 7c0 3 2 7 3 7s4 4 4 6a3 3 0 0 0 2 2 10 10 0 0 1 2 3 23 23 0 0 0 4 5l7 10a13 13 0 0 0 3 3c2 2 3 3 2 4h-1l-6-1c-3 0-4 0-8-4l-5-6-2-3-2-4c1-2-1-5-3-5s-5-4-5-6a3 3 0 0 0-1-2v-1c2-2 2-5 0-6s-2-3 1-3 2 0 1-2-2-3-4-1c-1 2-1 2-2 1-1-2-4-1-5 3s2 9 4 9l1 4c0 2 1 4 5 8l5 6a4 4 0 0 0 1 2 4 4 0 0 1 1 3c0 2-1 3-3 2a8 8 0 0 1-4-1 5 5 0 0 0-2-1c-2 0-5-3-5-5a5 5 0 0 1 2-3c1-1 1-1-2-2a6 6 0 0 1-3-1c-2-4-6-2-5 3a5 5 0 0 1-1 4c-1 2-2 7 0 7a4 4 0 0 0 2-1c2-2 3-2 7 3a724 724 0 0 0 27 28 5 5 0 0 0 3 4 20 20 0 0 1 5 3c2 2 3 2 5 1l2-2c0-2-2-4-4-4-3 0-13-10-13-12l-3-3c-3-1-12-11-12-14 0-1 1-2 2-1a12 12 0 0 0 3 0l7 4 10 11a4 4 0 0 1 2 2l4 3c2 0 4 0 4 2l1 1 1 2a9 9 0 0 0 3 4 5 5 0 0 1 2 3c0 2 0 3 3 3h3a3 3 0 0 0 2 1 5 5 0 0 1 3 2 5 5 0 0 0 2 2l4 2a7 7 0 0 0 5 3c3 0 3-1 0-3l-2-2c0-1-4-5-7-5s-10-9-10-11l-6-3a8 8 0 0 1-2-2 46 46 0 0 0-5-4c-3-2-3-5 0-6 4-2 6-2 13 5l7 8h-2c-3 1-2 2 3 3l5 1a4 4 0 0 0 2 2h2l3 3c3 2 3 3-1 4-3 0-4 1 0 3l3-1c2-2 2-2 5 0a13 13 0 0 0 5 3l4 2 4 3a3 3 0 0 1 2 2 9 9 0 0 0 4 3 14 14 0 0 1 4 3l5 2h4a7 7 0 0 0 3 2l2 1-2 1-2 2c0 2 28 2 29 0Zm105-49-3-2a13 13 0 0 1-5-1 14 14 0 0 0-6-1 6 6 0 0 1-4-2 4 4 0 0 0-3-1 4 4 0 0 1-3-1 6 6 0 0 0-4-2l-8-4-7-3-10-5a48 48 0 0 0-8-5 11 11 0 0 1-4-4c-2-3-4-4-5-3-1 0-7-3-8-5a49 49 0 0 0-4-5 22 22 0 0 1-3-4c0-2-1-2-3-2h-4a4 4 0 0 0-2-1c-2 0-8-7-8-9s-2-4-5-4c-2-1-3-2-3-4a6 6 0 0 0-3-4 10 10 0 0 1-3-3 11 11 0 0 0-5-4l-8-9 4-1c3 0 4 1 8 4l4 6c0 3 2 5 5 5a11 11 0 0 1 5 2 13 13 0 0 0 3 2c1 0 6 5 6 7v2l4 2c4 0 6 1 10 4 5 4 6 5 3 6-1 1-1 1 1 2 8 2 19 10 19 13 0 2 0 2 3 2 5 0 5 3 1 3l-3 1 2 1c2 1 3 1 5-1 3-2 3-2 4-1a4 4 0 0 0 2 2l4 3c1 2 3 2 4 2a4 4 0 0 1 2 1 4 4 0 0 0 3 2l14 5a19 19 0 0 0 7 2 19 19 0 0 1 7 1 14 14 0 0 0 6 1 9 9 0 0 1 5 2l2 2-3 3c-4 3-7 4-8 2Zm-1-5c1-1-5-5-6-4-2 1 0 4 2 4h3a1 1 0 0 0 1 0Zm-91-51a2 2 0 0 0-1 0c-1 1 0 1 1 1v-1Zm-11-12a1 1 0 1 0-1 1 1 1 0 0 0 1-1Zm-16-15a2 2 0 0 0-1 0h1c1 0 1 0 0 0Zm-71 79-3-2-6-6a66 66 0 0 1-6-7c-1-2-1-2 1-3a5 5 0 0 1 6 2 2 2 0 0 0 1 1l5 3a86 86 0 0 0 7 6c3 2 4 5 2 5a9 9 0 0 0-2 1 15 15 0 0 1-5-1Zm-24-2 3-1 2 1-2 2-3-2Zm225-5-6-2-6-1a7 7 0 0 0-3-1l-4-1a7 7 0 0 0-2-2c-2 0-3-1-3-2l-1-1-3 1a61 61 0 0 1-23-12 12 12 0 0 1-4-3l-4-2-6-5-6-5c-3 0-10-8-10-10s-1-2-3-2c-3 0-5-2-15-13l-12-13 1-1h2l2 2c5 2 9 5 9 8 0 2 5 6 9 6a9 9 0 0 1 5 3l5 2a3 3 0 0 1 2 2c1 3 4 6 6 6s2 1 8 5c3 3 5 6 3 6h-1l4 1 5 2a5 5 0 0 0 2 1 4 4 0 0 1 3 1 4 4 0 0 0 2 2l4 2 4 3a2 2 0 0 1 2 1 2 2 0 0 0 3 1 3 3 0 0 1 2 1l4 2 3 1 3 2 6 3a12 12 0 0 0 5 1 7 7 0 0 1 3 1 9 9 0 0 0 5 2 22 22 0 0 1 9 3l-2 4a4 4 0 0 0-3 1c-1 2-3 2-4 0Zm-87-54a2 2 0 0 0-2-1v1a2 2 0 0 0 2 0s1 0 0 0Zm-13-13a2 2 0 0 0-1 0v1c1 1 2 1 1-1Zm-45 66c-4 0-5-1-5-2l-4-4c-3-3-4-4-3-6s0-3-3-3c-4-1-8-3-8-5l-3-5c-4-4-5-6-3-7l9 4 5 3a2 2 0 0 1 2 2l2 3c3 2 3 4 1 5s-1 2 3 2l4 2 5 3 4 3a7 7 0 0 0 2 3v2a5 5 0 0 1-2 0h-6Zm-46-9 2-2 1 2-1 2-2-2Zm-8-2-7-7-4-7c-1 0-10-9-10-11s0-4 2-4 15 12 15 15l5 5a10 10 0 0 1 4 2 11 11 0 0 0 3 2v2l-1 2a4 4 0 0 0-2 2c-1 1-3 1-5-1Zm205 1a37 37 0 0 1-4-1 48 48 0 0 0-7-2 42 42 0 0 1-9-3 18 18 0 0 0-5-2 2 2 0 0 1-2-1l-3-1-2-1a5 5 0 0 0-3-2 4 4 0 0 1-2-2l-7-5-7-4a2 2 0 0 0-2-1 6 6 0 0 1-3-2l-2-2 2-1c2-2 9-3 11-1a4 4 0 0 0 2 2l4 2 4 2 4 3c1 2 3 2 3 2a4 4 0 0 1 3 2 14 14 0 0 0 4 2l7 4 6 3a13 13 0 0 0 5 1 13 13 0 0 1 5 2 13 13 0 0 0 5 1c2 0 3 0 3 2a2 2 0 0 1-2 2 21 21 0 0 0-3 1h-5Zm-34-19v-2a3 3 0 0 0-2 2v1a5 5 0 0 0 2-1Zm-11-7a1 1 0 1 0-1 1 1 1 0 0 0 1-1Zm-179 22a7 7 0 0 0-3-1c-3 0-9-8-7-10 1-1-1-5-2-5s-5-3-5-5l-2-4c-3-2-3-4 0-5 1-1 2 0 5 4 3 2 4 5 4 5l1 2a9 9 0 0 1 2 5c0 2 0 3 2 3 3 1 8 6 10 12 1 1-3 1-5-1Zm77 0-7-6c-4-3-5-4-5-7s-3-6-6-6-9-6-9-9c0-2 0-3 2-3a4 4 0 0 1 2 2 4 4 0 0 0 3 1c2 0 8 4 8 6l2 1a7 7 0 0 1 3 3c2 4 4 5 6 5l3 1c1 2 4 5 8 7 3 2 4 4 3 6h-6l-7-1Zm5-5-3-1c-2 0-3-2-3-2-1-1-1 2 1 3s5 2 5 0Zm147 0a99 99 0 0 1-14-6 20 20 0 0 0-5-2l-4-3a34 34 0 0 0-6-4l-7-7c-1-2-2-2-4-1s-4 0-6-3l-4-2-5-4-5-4-9-9a5 5 0 0 0-2-3l-2-2 2-1c3-2 4-2 5 0v3c-1 2-1 2 1 2 5 0 7 0 11 3l4 5c0 1 6 6 8 6a6 6 0 0 1 4 2 8 8 0 0 0 2 2c2 0 6 4 6 5s5 5 7 4a7 7 0 0 0 2-2c0-2 0-3-2-4a7 7 0 0 1-1-4c0-1-1-2-3-2l-3-1s-1-2-3-2-8-5-10-8c0-2-2-3-4-4l-5-3a10 10 0 0 0-4-3c-3-2-4-2-4-4 0-3-1-5-5-7s-10-9-9-10c1-2 6 0 11 5l6 8a4 4 0 0 0 4 2l3 1a2 2 0 0 0 2 2l6 5c7 8 8 9 10 9a5 5 0 0 1 3 2 48 48 0 0 0 3 3 9 9 0 0 1 3 3c1 3 5 5 11 5h5l-1-3c-1-3 0-3 3-4h6l5 3 5 2a15 15 0 0 0 5 2 8 8 0 0 1 4 1 9 9 0 0 0 4 1c3 0 6 2 6 5 0 2-1 2-5 3-2 0-3 1-3 3s-1 2-2 2l-2 1 2 1c2 0 3 2 1 2a9 9 0 0 0-3 2h-3l-6-2-4-1-3-1a4 4 0 0 1-3-2l1-3c1-1 3-2 7-2l6-1c0-1-7-5-10-5a4 4 0 0 0-3 1c-1 2-6 4-9 4a6 6 0 0 0-4 2 4 4 0 0 1-2 1c-3 0-5 1-5 3s2 3 4 1c2-1 3 0 6 1a17 17 0 0 0 8 3l5 1 5 2c4 1 4 1 4 3s0 3-4 3a25 25 0 0 1-8-1Zm20-17a2 2 0 0 0-3 0l2 1c2 0 1-1 1-1Zm-58-10-2-1c-3 0-3 2 0 2l2 1v-2Zm-14-11h-1a1 1 0 0 0-1 1h1l1-1Zm1-15-1-1v1a1 1 0 0 0 1 1v-1Zm-64 47-4-1a4 4 0 0 0-3-1c-2 0-8-7-8-9 0-1 2-2 6-1 3 0 5 1 9 6 6 6 6 7 0 6Zm-26-2a6 6 0 0 1-3-2 3 3 0 0 0-2-1l-6-4c-3-4-4-5-3-6 2-1 3 0 8 2 7 3 11 6 11 8s-2 4-3 3h-2Zm-64-3c-4 0-9-5-9-8a4 4 0 0 0-1-2c-2-1-2-1 0-2 2-2 1-3-2-3s-6-2-6-5c0-4 5-3 7 1l1 2a1 1 0 0 1 1 1 5 5 0 0 0 2 2 6 6 0 0 1 2 4c0 2 0 2 3 3 3 0 4 1 2 2-1 1-1 1 1 2a3 3 0 0 1 2 2v2l-4-1Zm11-8c-5-3-8-5-7-7 0-4 4-3 9 3 7 7 7 9-2 4Zm59-2a3 3 0 0 1-2-2c0-2-1-2-2-3-4-1-5-1-5-4 0-2 0-2 3-1a13 13 0 0 1 7 3l4 5c3 2 0 3-5 2Zm-99-3c-2 0-4-3-4-5a2 2 0 0 0-1-2c-3 0-2-2 1-3s7 1 7 3a4 4 0 0 0 1 3c3 2 0 6-4 4Zm75 0a4 4 0 0 0-3-2c-1 0-2-1-1-3l-3-3-2-3c1-1 5-1 5 1h1c3 0 8 7 7 10h-4Zm95-2-3-1c-2 2-5 1-7-2l-3-4-2-1-2-3-2-1c-3 0-14-11-14-12l5-1c3 0 4 1 6 3l4 2c2 0 7 6 7 8l2 2c5 0 6 1 11 4 4 3 5 5 2 6h-4Zm-4-6-1-1a1 1 0 0 0-1 1h-1a4 4 0 0 0-2-1l1 2 3 1 1-2Zm-7-3-2 1h1l1-1Zm-8-7a2 2 0 0 0-1-1 1 1 0 0 0-1 1l1 1 1-1Zm-99 14-6-5a4 4 0 0 0-1-3c-2-1-3-4-1-4l3 3a29 29 0 0 0 5 4c4 2 4 6 0 5Zm-71-2a32 32 0 0 0-2-3 5 5 0 0 1 0-4c1-2 3-1 4 1a7 7 0 0 0 2 3 4 4 0 0 1 0 3c0 1 0 2-2 2a3 3 0 0 1-2-2Zm278 1a7 7 0 0 1-2-1 4 4 0 0 0-3-1l-13-6-1-1-5-3-4-2c-2 0-7-5-7-7l-2-1c-2 0-13-10-13-12l-6-7-6-8c0-2 1-2 2-1a3 3 0 0 0 2 1c1 0 4 1 5 3l5 4a6 6 0 0 1 3 3 3 3 0 0 0 2 2l7 5 6 6 5 5 2 1a6 6 0 0 1 4 2 3 3 0 0 0 2 1 2 2 0 0 1 2 1c1 2 6 4 7 4a4 4 0 0 1 3 2h6a2 2 0 0 0-2-2 4 4 0 0 1-2-3l-2-2a5 5 0 0 1-4-1 8 8 0 0 0-3-1c-2 0-9-7-9-8l-2-2-2-2-8-6-1-1a3 3 0 0 0-2-2c-2-1-2-5 0-5s12 5 14 8l2 2-2 1c-2 1-1 2 2 2a5 5 0 0 1 3 2 5 5 0 0 0 4 1l3 1a2 2 0 0 0 2 2c2 0 10 3 12 5l7 2c5 1 6 1 6 3 0 4-3 7-7 7-2 0-3 1-2 2s1 2-2 3c-3 0-3 1 1 2l3 1c0 1-7 2-10 1Zm-233-5-3-4a3 3 0 0 0-1-2c-2-1-2-3 0-3 1 0 10 9 10 11s-2 1-6-2Zm192-3-6-3a3 3 0 0 1-3-2 2 2 0 0 0-1-1c-2 0-8-6-8-8 0-3-1-4-3-4s-3-2-2-3a13 13 0 0 0 2-1c2-1-1-2-4-2-2 1-3 0-6-3s-3-3-2-4c1-2 4-3 5-1a6 6 0 0 0 3 1l6 4 6 4c2 0 3 2 3 5a2 2 0 0 0 2 2c2 0 2 3 0 3a15 15 0 0 1-4-1c-2-1-3-2-4-1l7 5a11 11 0 0 0 3-1c2-2 4-2 8 2l4 4c3 2 3 2 1 4a6 6 0 0 0-1 3c0 1-1 1-6-2Zm-138-3c-5-4-6-6-4-7 1-1 8 3 10 6 2 2 1 5 0 6-1 0-4-2-6-5Zm-75 2a9 9 0 0 1-3-5c0-4 1-5 3-3l3 5 3 4c0 1-3 1-6-1Zm57-1a4 4 0 0 0-2-2c-1 0-8-7-7-8 0-3 3-2 8 3 4 3 5 5 4 6-1 2-1 3-3 1Zm-73-2a4 4 0 0 1-1-2 6 6 0 0 0-1-4c-2-1-2-4 0-4s9 8 9 9-6 2-7 1Zm46-6a1 1 0 1 1 1 1 1 1 0 0 1-1-1Zm118-8c-5-5-5-7-2-8l8 4 5 5-2 1c-3 3-5 2-9-2Zm-170-1c-1-1 2-4 4-4l1 1c0 3-4 5-5 3Zm146-1c-2-2-2-5-1-6s7 6 7 7c-1 1-4 1-6-1Zm50-18c-2-2-3-6-1-6 1 0 6 4 6 6l-3 2a8 8 0 0 1-2-2Zm35-5c-3-2-3-6-1-6l6 7c-1 1-3 1-5-1Zm99-22a4 4 0 0 0-3-1v-5c1-2 3-2 6 0s2 4 0 6-2 2-3 0Zm-13-5c-2-2-2-3-1-3a3 3 0 0 1 2-1 10 10 0 0 0 3 1c2 0 2 1 0 3s-2 2-4 0Zm-41-2a14 14 0 0 0-4-4c-5-3-4-5 0-5 5 0 9 4 9 7-1 4-3 4-5 2Zm67 1v-6c1-1 2-1 3 1 2 2 2 5 0 5a3 3 0 0 1-3 0Zm-42-5c-4-2-4-4 0-5 3 0 7 3 7 5s-2 2-7 0Zm31 0c-2 0-2-3 0-4s4-1 4 2a3 3 0 0 1-4 2Zm29 0c-1-2 0-7 1-7l1 4c0 3-2 6-2 3Zm-44-1c-2-3 0-4 3-4s3 1 1 3c-2 3-3 3-4 1Zm74-10v-1a1 1 0 0 1 1 1 2 2 0 0 1-1 1v-1ZM405 626a1 1 0 0 0-1 1h1v-1Zm77 0-1-1-1 1c0 2 2 2 2 0Zm-363-1c2 2 4 2 4-1 0-2-2-3-3-2-2 1-5 0-5-1a1 1 0 0 0-1-1v4l3 2h2Zm65 0a6 6 0 0 0-1-2v3a1 1 0 0 0 1-1Zm420-4 5-6-1-2c-3-5-7-3-7 2 0 3-2 5-4 4l-3 1c0 2 3 6 4 6l6-5Zm52 3a5 5 0 0 0 1-2c0-1 1-2 2-1l2-2c0-1 0-2-2-2a4 4 0 0 0-3 1l-5 3c-3 2-4 2-2 3a5 5 0 0 0 7 0Zm18-1 2-4a2 2 0 0 1 0-2 2 2 0 0 0 1-1c0-1-1-2-3-1-3 0-3 0-3 3l-2 4v2c1 2 2 1 5-1Zm-242 0-6-4v5c1 1 6 0 6-1Zm83 0a1 1 0 0 0-1-1c-2 0-3 1-2 2s3 1 3-1Zm17 0h-6c-1 1 0 2 3 2 2 0 3-1 3-2Zm172-2 4-6 3-5c3-4 3-5 1-6a14 14 0 0 1-4-2c-2-2-3-2-8-3-6 0-7 0-7 3a31 31 0 0 1-1 5c-1 4-1 4 1 5a19 19 0 0 1 3 1c3 1 3 0 3-4s2-8 4-6 1 10-1 11c-1 1-2 2-1 3 0 3-1 4-3 5s-2 1-1 2c2 1 3 1 7-3Zm-394 0c1-1-2-2-4-2l-1 1c0 2 4 3 5 1Zm51-1-1-1c-2 0-2 1-1 2s2 0 2-1Zm164 1-2-1 1 2a1 1 0 0 0 1-1Zm104-3c0-3-1-4-3-3-1 1 0 5 2 5l1-2Zm-427-1-2-3-1 3 1 2c1 0 2 0 2-2Zm445 2-1-1-1 1a1 1 0 0 0 1 1 2 2 0 0 0 1-1Zm-10-5 3-2 2-2 2-3c2-3 3-7 2-7-2 0-5 3-5 5 0 1-1 2-3 2-4 0-4 1-3 3 1 1 1 2-1 4s-3 2-1 3a3 3 0 0 0 4-3Zm-322 2c0-1-4-4-6-4-3 0-3 1-1 3 1 2 7 3 7 1Zm63 0c1-1-1-2-2-1-1 0-1 2 1 2a2 2 0 0 0 1-1Zm216 0-1-2v-1a15 15 0 0 0-2-5 16 16 0 0 1-2-4l-7-8c-2 0-3 3-2 4l6 8 2 1a2 2 0 0 1 1 2c0 2 3 6 5 6v-1Zm-304-3a3 3 0 0 0-2-1l-4-4c-1-1 3-2 5 0h2c0-2-4-4-6-3h-9c-1 1 0 1 2 3l4 2v2c0 2 1 2 5 3 3 1 5 0 3-2Zm31 0a1 1 0 1 0-1 1 1 1 0 0 0 1-1Zm-125 0c2-1 2-3 0-3a8 8 0 0 1-3-2c-3-2-5-2-6 0l2 2 3 2c0 2 1 2 4 1Zm488-3a13 13 0 0 1 3-4l2-4 1-2c2 0 1-3-2-4-3-2-5-1-5 1l-2 3-1 2c1 2 0 2-1 1-2-2-4 0-2 1a3 3 0 0 1 0 5 2 2 0 0 0 0 3c0 2 6 1 7-2Zm-303 1-1-1c-2 0-2 1-1 2s2 0 2-1Zm17 1a1 1 0 0 0-1-1l-1 1 1 1 1-1Zm127-1-1-1c-1-1-2 0-2 2 1 1 3 0 3-1Zm-313-1-1-4c1-3 0-3-1-3l-1 3c1 5 1 6 3 6v-2Zm444 0 3-3c1-1 2-2 2-5l1-6a5 5 0 0 0 2-3 4 4 0 0 1 1-2l1-5c0-4 0-4-2-4l-3-1h-2l-1 7v7a18 18 0 0 0-3 4l-3 6c-1 2-1 4 1 6 1 1 3 1 3-1Zm10 0c0-3-2-3-2-1l1 3c1 0 2-1 1-2Zm-482 0a5 5 0 0 0 0-2h-2a2 2 0 0 0 0 2h2Zm17-1 1-13 2-18v-9l1-9 1-5a12 12 0 0 1 2-5c2-2 2-2 0-4v-3l1-8 2-5a10 10 0 0 0 3-1c1 0 2 0 3 2 1 3 2 2 2-2a6 6 0 0 1 1-4l2-4c-1-3-2-4-3-1 0 2-3 5-5 5s-2 0-2-4l-1-10c-1 0-2 0-1 1l-1 7a34 34 0 0 0-2 9l-1 4c-1 1-2 3-2 7l-1 7-1 13c-1 13-1 14-5 11h-5c0 1 3 4 6 5 2 0 3 2 2 4l-1 7-1 6c-2 1-2 4 0 6l1 7c0 4 1 6 2 4Zm281 0c0-1-1-2-3-2a5 5 0 0 0-1 0c-2 1-1 3 1 3a3 3 0 0 0 3-1Zm326 0-1-1-1 1h2Zm-689-1-1-1-2 1 2 1 1-1Zm401-3c2-2 2-3 0-1l-5 1h-3c0 3 6 3 8 0Zm152 0c2-1 2-2 2-4-1-3 0-5 3-6 2-1 2-3-1-5-4-2-5-2-5 2a3 3 0 0 1-2 3l-1 3a6 6 0 0 1 0 4 2 2 0 0 0 0 3c2 2 1 2 4 0Zm141-1c1-1 0-2-1-2l-2 2c0 2 3 2 3 0Zm-383-1c1-1-7-4-9-4l-1 1a2 2 0 0 0 2 2 7 7 0 0 1 3 1c2 2 5 2 5 0Zm194 0c0-1-3-1-3 1h1l2-1Zm-66-2-1-1a1 1 0 0 0-2 2c0 1 2 1 3-1Zm164 0-2-2-1 2 1 1 2-1Zm-177-2c1-1-1-2-3-2s-3 1-2 3l5-1Zm213 0-2-2c-2-2-2-2-3-1-3 3-2 4 2 4a13 13 0 0 0 3-1Zm-577-1c0-2-1-1-1 0l1 1a1 1 0 0 0 0-1Zm616-3a6 6 0 0 0-3 0 5 5 0 0 1-4-2h-2a2 2 0 0 0 2 4 4 4 0 0 1 3 1h3l1-3Zm-610 0a3 3 0 0 1 2-3c2-1 2-1 0-2l-2 1-2 1c-3 0-4 1-1 4s3 2 3-1Zm27-3c0-7 0-8 3-11s2-5 0-3h-2l-1-7v-4a10 10 0 0 1 1-5 387 387 0 0 1 1-28c-2 0-2 2-2 12l-1 10-2 24a8 8 0 0 1-1 4l1 3 1 3-1 4c0 4 0 4 1 3 2-1 2-2 2-5Zm403 3-3-6c-3-3-3-4-1-4l7 7a6 6 0 0 0 2 1c3 1 3-2 0-4a4 4 0 0 1-2-4l-3-3-3-3a4 4 0 0 0-1-3 4 4 0 0 1-1-2 3 3 0 0 0-2-2 2 2 0 0 1-1-2c1-3 3-1 11 7l8 7c2-1 1-4 0-5a2 2 0 0 1-2-2 3 3 0 0 0-1-3l-4-5c-2-4-2-5-1-5l6 5c0 2 4 6 5 6l4 4 2 4-3 3-2 4c0 3-2 4-4 4s-2 3 0 4c2 0 3-1 3-2a3 3 0 0 1 3-1l5-3c3-2 3-3 3-6a19 19 0 0 0-2-6l-1-3c1-1-2-5-5-8a8 8 0 0 1-2-5 5 5 0 0 0-2-3 4 4 0 0 1-1-3c0-2-6-8-9-8l-3 1-9 4c-1 0-4 7-4 10a3 3 0 0 1-1 3c-1 0-2 1-2 3s0 3-2 4-1 1 0 2a3 3 0 0 1 0 3 3 3 0 0 0 1 3 25 25 0 0 1 3 6c1 4 2 5 5 6l4 2a2 2 0 0 1 2 0c1 1 3 0 3-2Zm0-33a8 8 0 0 0-1-2l1-1c1 0 3 1 3 3l-2 1-1-1Zm-320 34-1-1-1 1 1 1 1-1Zm349-1c-1-1-1-1-1 1h1a1 1 0 0 0 0-1Zm90 1a1 1 0 0 1 1-2l2-1c0-1-2-1-4 1s-2 3 0 3a1 1 0 0 0 1-1Zm44 0a2 2 0 0 0 0-2c-1-1-2 2-1 2h1Zm-505-3h-4l2 1 2-1Zm86 0c0-2-1-3-3-3-3 0-3 0 0 3 2 1 3 2 3 0Zm143 0c1-2 0-3-3-3-2 1-2 1-2 3 1 2 5 2 5 0Zm148-3v-8l2-2a5 5 0 0 1 0-2 4 4 0 0 0 0-4c-1-3-8-8-8-7l1 3v3c-1 2-2 15 0 18 1 4 4 3 5-1Zm-525 1a1 1 0 1 0-1 1 1 1 0 0 0 1-1Zm716-2c0-1 0-2-2-2-3 0-4 2-2 3s4 2 4-1Zm-141-1c2-2 1-3-1-3s-5 2-5 4 4 1 6-1Zm44 1a1 1 0 1 0-2 1 1 1 0 0 0 2-1Zm107-1-2-1-3 2c-1 1 0 1 2 1l3-2Zm4-2-1-1c-3 0-3 2-1 2l2-1Zm14-2c2-1 2-1 0-1a3 3 0 0 0-2 1c-1 2 0 2 2 0Zm-196 0-2-1-2 1 2 1a3 3 0 0 0 2-1Zm-556-3c4-4 3-5 0-4s-5 4-4 5 2 1 4-1Zm457 1v-2c-1-1-4 0-4 2h4Zm-508-1-2-1-1 1 1 1 2-1Zm473 1c0-2-3-4-4-4s-3 2-1 4h5Zm337-3-7-5-1 3c0 2 1 2 3 3l5-1Zm-294 0a1 1 0 1 0-1 0 1 1 0 0 0 1 0Zm-308-3-2-1c-2 0-2 1-1 2s3 1 3-1Zm171 0h-1l-1 1h1a1 1 0 0 0 1-1Zm-320-4c0-2-1-2-2-2-4 0-3 3 1 3l1-1Zm396 0 4-3c3-2 3-3 2-4-1 0-3 2-2 3h-2a2 2 0 0 0-2 1 3 3 0 0 1-3 1c-2 0-2 1 0 2s3 2 3 0Zm121-1-2-1c-3 0-4 1-3 2s4 0 5-1Zm243-2-1-1a2 2 0 0 0-1 1 1 1 0 0 0 1 1l1-1Zm-579-3h-3a2 2 0 0 0 2 1l1-1Zm246 0-1-1-1 1c0 1 2 2 2 0Zm90-1c1-1 0-3-1-3l-3-2a6 6 0 0 0-2-3 2 2 0 0 1-1-2l-3-3-2-2c0-1-5-6-12-11l-4-5a4 4 0 0 0-3-3 4 4 0 0 1-3-2 2 2 0 0 0-2-2c-2 0-2 3 0 3a2 2 0 0 1 2 3 3 3 0 0 0 2 2c3 1 8 6 10 9l7 7 1 2 6 6 5 5c1 1 2 2 3 1Zm-564-1 2-1 5-4 3-4c2 0 6-2 7-4a3 3 0 0 1 3-1c2 0 5-3 5-5l-4-1c-4 1-5 2-10 7l-7 6-4 2c-1 0-3 3-2 4s2 2 2 1Zm181-3c-1-1-2 0-1 1h1a2 2 0 0 0 0-1Zm317 1a5 5 0 0 0 2-2l-3-1c-4 0-4 1-2 3h3Zm313-1-1-1-2 1a1 1 0 0 0 1 1 2 2 0 0 0 2-1Zm-330-3c1-2 1-2-1-2s-4 2-3 3a3 3 0 0 0 4-1Zm39-1-2-1c-2-1-3 0-2 1h4Zm-220-7c-1-1-3 1-2 2h1l1-2Zm22 0c0-1-4-4-6-4v2c0 2 1 2 2 2l3 1c1 1 2 1 1-1Zm255-1-2-2-2 2 2 1 2-1Zm-87-1a2 2 0 0 0-2 0l1 1s2 0 1-1Zm-21-3c0-2 0-2-4-2l-3 1c0 1 0 2 3 2l4-1Zm-438-5 5-2a4 4 0 0 0 2-1c1-1 1-1 1 1s2 2 3 0a11 11 0 0 0 1-4 8 8 0 0 1 1-6c2-2 3-4 1-4l-6 4-10 9-5 5c0 2 4 1 7-2Zm523-2c0-2 0-3-2-4l-8-9-3-3c-2-1-2-3-2-4 0-2 2-1 5 2a31 31 0 0 0 6 5l5 6c2 4 2 4 5 4l3-1-7-8c-5-5-9-10-10-13l-4-5c-1-1-1-2 1-2h2s2 4 6 7 6 7 6 7l1 2 4 3a17 17 0 0 0 5 5c2 1 2 1 2 4s0 3 3 4l4-2a10 10 0 0 1 5-4c3-1 3-1 3-6v-6c0-2-3-3-5-1h-2a3 3 0 0 1-1-1l-4-5-3-4-4-6-4-5c0-2 2-1 5 2l7 7 3 5 2 1c2 0 2-2-1-6l-3-4-2-3c-3-3-4-5-2-5a2 2 0 0 1 1 1 2 2 0 0 0 2 1c1-1 6 2 6 3h2c2 0 2-1 0-2a16 16 0 0 1-4-3c-2-2-3-3-6-2-3 0-3 0-7-4l-4-4-2 2c-2 3-3 4-1 4a1 1 0 0 1 1 1c0 2-1 2-2 0l-6-1c-5-1-6-1-9 3l-3 5a3 3 0 0 1 0 2 3 3 0 0 0-1 2 3 3 0 0 1-1 2c-3 2-5 6-4 11l1 6a4 4 0 0 1 1 3c0 2 8 10 10 10l4 3c4 3 6 3 6 0Zm16-10a8 8 0 0 1-1-4l-3-2c-2-1-2-2-2-4l1-3 5 6 3 3c2 1 3 2 3 4-1 2-4 2-5 0Zm-15-20-6-7 2-1c2 0 13 10 13 12 0 3-3 2-9-4Zm-8-11a1 1 0 0 1 0-1l2 1h-2Zm-401 36c0-1-2-3-3-2l3 4v-2Zm-42 0a2 2 0 0 0-1-1v2a1 1 0 0 0 1-1Zm407-2c1-1 0-1-1-1a3 3 0 0 0-2 2l2 1a3 3 0 0 0 1-2Zm-4 1c0-2-4-3-5-2a1 1 0 0 0 0 2h5Zm-456-2c1-2 0-3-2-2-2 0-2 4 0 3a5 5 0 0 0 2-1Zm61-3a4 4 0 0 1 2-1l2-2c1-2 0-2-1-2a14 14 0 0 0-8 3v3c3 1 3 1 5-1Zm381 0c2-1 0-2-4-2l-4 1c1 2 6 3 8 1Zm-440-3c3-3 1-4-1-2a7 7 0 0 0-3 3c0 1 3 1 4-1Zm418 0c0-1-7-2-9-1-2 2 0 2 5 2 3 0 5 0 4-1Zm-321-9v-2c-2-1-3 0-3 2h2Zm505-1-7-2-7 1c0 1 3 2 9 2l5-1Zm-541-3a4 4 0 0 0 0-2c0-2-3-1-3 1 0 3 2 4 3 1Zm33-6c-1-2-3-3-3 0l-2 1v5c1 1 5-4 5-6Zm-12 4a6 6 0 0 0 2-3c0-2 1-3 3-3 4-1 6-4 4-5a2 2 0 0 0-3 1c-1 2-1 2-1-2-1-3-2-3-4-1l-1 3-1 2a9 9 0 0 1-1 4 5 5 0 0 0-1 3c0 2 1 2 3 1Zm-147-3h-2v2l2-2Zm506 0h-2c-2 0-2 1 0 2l2-2Zm26 1-1-1c-2 0-3 0-2 2l3-1Zm160-1a1 1 0 1 0 0 1 1 1 0 0 0 0-1Zm88 1a2 2 0 0 0-1 0h1c1 0 1 0 0 0Zm-253-3-2-1-1 1c0 3 2 3 3 0Zm174-3 2-3 1-2a13 13 0 0 0 4-4l4-4c4 0 4-3 0-3s-7 3-7 5-3 5-8 9c-2 3-2 5 0 5l4-3Zm-30-1a18 18 0 0 1 4-2l2-3a77 77 0 0 1 8-9l6-7-8-4c-2 0-3 0-3 2l-4 11a2 2 0 0 0-1 1l-3 4c-3 2-7 8-6 9s2 1 5-2Zm15-1 5-4 3-4 3-3c2 0 3-1 1-3-1-3-5-2-5 1l-2 3a2 2 0 0 0-1 1l-3 4c-2 2-3 3-5 2l-2 1a1 1 0 0 0 1 1l1 1a1 1 0 0 1-1 1l-2-1h-1l-2 1 2 1c2 0 1 0 1 1 0 2 3 1 7-3Zm28 3c-1-2-8-1-8 0-1 1 0 1 4 1l4-1Zm-548-2a2 2 0 0 0-1-2l-1 1 1 2 1-1Zm-177-1a2 2 0 0 0-1-1l-1 1 1 1a1 1 0 0 0 1-1Zm172 0a28 28 0 0 1 2-4c2-3 1-4-1-4a2 2 0 0 0-1 1 3 3 0 0 1-2 3v5a2 2 0 0 0 2-1Zm450-3 1-3c-1-1-3-1-4 1a3 3 0 0 1-3 0l-1 2c0 2 4 2 6 0Zm140 1a4 4 0 0 0 1-3l-3 1-2 2h4Zm-617-8c0-2-1-3-2-3l-1 3a8 8 0 0 0 1 4c1 1 2-1 2-4Zm414 1 3-4a8 8 0 0 0-4-1c-2 0-3 1-3 2a22 22 0 0 1-1 3c-1 2-1 3 1 3l4-3Zm179-1c4-4 5-6 2-6l-4 2a17 17 0 0 1-3 4 5 5 0 0 0-2 3c0 3 4 1 7-3Zm-189 3a1 1 0 1 0-1 0 1 1 0 0 0 1 0Zm99-1 2-3c0-1-2-1-4 1-3 4-1 5 3 2Zm-135-2c1-1 0-1-1-1-3 0-3 1-2 2s3 0 3-1Zm-26-2c0-1-9-4-10-3l1 2c1 2 2 2 5 2l4-1Zm126-1v1h1a2 2 0 0 0-1-1Zm-445-1 4-5a54 54 0 0 0 4-6 22 22 0 0 1 4-6 6 6 0 0 0 2-4l5-6c5-5 6-7 3-8l-5 3-3 4-2 4-3 4-3 4c-2 1-2 3-2 3 0 3-3 4-8 4-4 0-4 1-2 4 1 2 1 2 2 0s3-1 3 1a2 2 0 0 1-1 2c-1 0-2 4 0 4l2-2Zm16 0-1-1-1 1 1 2 1-2Zm-97 0-1-1v2l1-1Zm61-3a22 22 0 0 0 2-5l3-3c2-1 2-3 2-4 0-2 1-3 6-9 3-2 5-5 5-6v-2a1 1 0 0 0 1 0l9-9 4-4c0-2-2-2-5 1l-3 2-2 2-7 9-6 7a2 2 0 0 1-1 2 2 2 0 0 0-2 2 7 7 0 0 1-2 3l-5 11a2 2 0 0 1-1 2c-1 0-2 3-1 4s1 1 3-3Zm588 1c1-1 0-3-4-3s-5 1-3 3c1 2 5 2 7 0Zm-139-1-1-4c-1-3-3-4-7-2-2 1-2 1-1 2v4l1-1c0-1 5-1 5 1s2 1 3 0Zm117-1-1-1c-2 0-2 1-1 2l2-1Zm-531-3c2-2 2-4 1-5s-5 3-5 5c0 3 2 3 4 0Zm461-1 1-2a1 1 0 0 0 1-1l-2-1c-2 0-4 3-3 5s2 1 3-1Zm75-1-4-1c-2 0-3 1-3 2s1 1 4 1c2 0 3-1 3-2Zm-656-1c0-2-2-2-4 0s-1 3 2 3a2 2 0 0 0 2-3Zm32 1a2 2 0 0 1 2-1l1-1h-7c-1 1 1 4 3 4a2 2 0 0 0 1-2Zm385 0c0-2-3-3-4-2s1 4 3 4l1-2Zm64 0c4-2 3-3-1-3-2 1-3 1-3 3s0 2 4 0Zm-59-3a3 3 0 0 0-2-2l-2 1c0 1 0 2 2 2s2 0 2-1Zm-478-1-2-1a1 1 0 1 0 0 2l2-1Zm464-1h-3a1 1 0 0 0 0 2l3-1Zm40 0c3-3 0-3-5 0-1 1 1 2 2 2l3-2Zm73 1c0-1-4-5-6-5s-2 2 1 4c2 2 5 3 5 1Zm-567-4c2-2 2-3-1-3s-7 4-6 5 5 0 7-2Zm507-1 16 1c3-1 0-2-6-2-5 0-6-1-7-2a2 2 0 0 0-2-1 15 15 0 0 1-5-2h-4c-2 2-5 2-6 0h-2c-1 0-1 1 1 2s3 2 6 2l5 2h4Zm29-1c3-2 1-4-2-2a10 10 0 0 1-5 1l-3 1c-2 3 7 3 10 0Zm-462-4c3-2 4-3 2-4s-3-1-3 0a2 2 0 0 1-1 3c-2 0-2 2-1 2a15 15 0 0 0 3-1Zm477-3-2-1c-1 0-2 1-1 2l3-1Zm-557 0h-4l2 1 2-1Zm595 0h-1a1 1 0 0 0-1 0l1 1 1-1Zm-392-5a1 1 0 1 0-1 1 1 1 0 0 0 1-1Zm-157-2a2 2 0 0 0-2-1 3 3 0 0 1-2-1c-1-2-2-1-2 1s0 2 3 2l3-1Zm19 0a2 2 0 0 1 2-1 5 5 0 0 0 3-2 5 5 0 0 1 3-1l5-3c2-2 4-2 5-2v3c-1 1-2 3 0 3l3-4c5-6 4-12-1-8a8 8 0 0 1-5 2l-7 4-6 5a7 7 0 0 0-3 1l-6 2c-4 0-6 1-5 2h6l6-1Zm162-2a11 11 0 0 1 4-2l1-1c1-2-1-2-3 0a4 4 0 0 1-2 1l-4 4c0 1 2 1 4-2Zm-197 0-4-4c-2 0-1 4 0 5 2 1 3 1 4-1Zm-18-1a2 2 0 0 1 2-1 3 3 0 0 0 3-1 3 3 0 0 1 2-1l4-2 5-3a4 4 0 0 0 2-1 4 4 0 0 1 2-1c2 0 4-4 4-5s-6 1-11 5l-11 6-2 2-2 1-3 1s1 2 3 2a3 3 0 0 0 2-2Zm178-1c3-2-3-4-6-2-1 1-1 1 1 2h5Zm15-1v-3c-1-1-1 0-2 1-2 3-1 4 2 2Zm-199-4a6 6 0 0 1 5-1c3 1 4 1 3-1v-2a3 3 0 0 0 0-2c0-2 0-2-3-1-4 0-9 4-9 6a2 2 0 0 1-1 1l-1 2h2l4-2Zm52-1 8-5a4 4 0 0 1 3-1c3 0 3-3-1-4-2-1-2-1-6 2l-6 4-8 7c0 1 4 0 10-3Zm202 0a2 2 0 0 1 3-2c1 0 3-1 2-2s-8 3-8 4h3Zm-18-3c0-1-3 0-3 2h2l1-2Zm-126 0c2-2 0-3-2-2-3 2-3 2-2 4 1 1 3 0 4-2Zm99 0c-1-1-2 0-2 1h2v-1Zm533 1v-2c-2-2-3-1-3 1s1 3 3 1Zm-538-1h-1v1a1 1 0 0 0 1-1Zm584-1-1-1a2 2 0 0 0 0 2v1l1-2Zm-51-2 1-2c-1-1-4 1-4 2 0 2 1 2 3 0Zm-632-2a1 1 0 0 0-1-1l-1 2h1a2 2 0 0 0 1-1Zm110 1-1-1c-1-1-2 0-2 1a1 1 0 0 0 3 0Zm31-1h-1a9 9 0 0 1-3 0l-1 1c1 1 5 0 5-1Zm8 0-1-1-2 2c0 1 3 1 3-1Zm-167-3c1-3 2-4 1-5s-3 0-3 2a3 3 0 0 1-1 3 4 4 0 0 0-1 2c0 3 2 1 4-2Zm135 3v-3h-3c-2 1-1 2 0 3h3Zm-51-1v-1c0-2-4-2-5 0l3 2a8 8 0 0 1 2-1Zm-63-1h-1a1 1 0 0 0-1 1h1l1-1Zm662 0-3-1-2 1c0 2 4 1 5 0Zm-50-2a2 2 0 0 0-4 0l2 1 2-1Zm165 0a2 2 0 0 0-1-1c-1-1-4 0-3 1h4Zm-847-3a13 13 0 0 1 6-3 23 23 0 0 0 11-6l4-2a2 2 0 0 0 2-1 2 2 0 0 1 2-2l4-2a8 8 0 0 1 4-2l2-2-8-1c-10 0-9 0-7 2a6 6 0 0 1 2 2c0 2-9 8-12 8a4 4 0 0 0-2 2 5 5 0 0 1-3 1l-2 1c0 2-2 3-5 2l-3 1c-2 5 1 6 5 2Zm97 1c2-2 1-3-1-3s-3 2-2 3 2 1 3 0Zm132-2 5-2a4 4 0 0 0 3-2 4 4 0 0 1 2-1l5-4c0-1-3-2-4 0s-6 4-7 4a2 2 0 0 0-2 1 2 2 0 0 1-2 2c-2 0-6 3-5 4s2 1 5-2Zm415 2c1-3-1-3-5-2s-5 2-1 2l4 1a2 2 0 0 0 2-1Zm-688-2 2-2c2 0 10-6 10-7 0-2-4-1-5 0a2 2 0 0 1-2 1 7 7 0 0 0-4 3 13 13 0 0 1-4 2c-3 1-3 2-1 4s4 1 4-1Zm262 1-1-1-1 1 1 1 1-1Zm-189-1c2-1 2-1 1-2h-3v3a7 7 0 0 0 2-1Zm132-2c-1-1-2 0-1 2h1a2 2 0 0 0 0-2Zm34 1-1-1a1 1 0 0 0-2 1c0 2 2 1 3 0Zm464 1c2-2 1-2-4-3l-4-1-6-1c-1 0 2 4 4 4l10 1Zm40-1c2-1 2-5 0-5-1 0-4 4-3 5s1 2 3 0Zm-501 0a1 1 0 1 0-1 1 1 1 0 0 0 1-1Zm716 0-3-1a1 1 0 0 0 0 1h3Zm-152-1c0-2-2-4-4-4-3 0-2 3 1 4h3Zm107-2-2-1c-4 0-4 1-3 2 2 2 5 2 5-1Zm-878-1a17 17 0 0 1 3-2 21 21 0 0 0 4-3 20 20 0 0 1 4-3 31 31 0 0 0 5-2l6-3 2-1-5-1c-4 0-5 1-9 3l-4 3-6 4-6 4c-1 5 2 5 6 1Zm211 1-1-1-2 1 2 1 1-1Zm779 0a1 1 0 1 0-1 1 1 1 0 0 0 1-1Zm-926-2-2-1-1 1 1 2 2-2Zm-9 0a4 4 0 0 1 2-1 10 10 0 0 0 3-2c2-2 3-2 4-1h2c0-2-5-4-8-3s-10 6-9 7c0 2 4 1 6 0Zm22 0c0-1-1-2-3-2-2 1-3 1-2 3 1 1 4 0 5-1Zm572 0a1 1 0 0 0-1-1c-1 0-2 1-1 2s2 0 2-1Zm111-1c0-2-1-4-3-3v5c1 1 2 0 3-2Zm-523 0a1 1 0 0 0-1 0c-1 1-1 1 1 1v-1Zm747-2c2-2 1-3-1-2h-6l5 4 2-2Zm-719 0c-1-2-2-1-2 0l1 1 1-1Zm378 0-1-1-3-2c-2-3-6-4-7-3-2 2 5 7 9 7 1 1 2 0 2-1Zm40-1c0-2 0-3-2-2s-1 4 0 4l2-2Zm66 1-1-2-1 2 1 2c1 0 2-1 1-2Zm27 0a1 1 0 1 0 0 1 1 1 0 0 0 0-1Zm-528-2-1-2c-3-1-4 0-5 3h2a15 15 0 0 0 4-1Zm633 2-1-1-1 1a1 1 0 0 0 1 1l1-1Zm126-1c0-1 0-2-1-1a2 2 0 0 0-1 1l1 2 1-2Zm-209 0c2-1 1-3-1-3s-3 1-3 3h4Zm120 0c0-2 0-3-3-3-2 0-3 2-1 3h4Zm-951-1a3 3 0 0 1 3-2c2 0 2-2-1-2l-4 4h2Zm15 0 2-2c4-1 6-3 5-4h-5a3 3 0 0 1-2 2c-2 0-4 2-4 4l2 1 2-1Zm242 0v-1a2 2 0 0 0-1 1v1a2 2 0 0 0 1-1Zm34 0a4 4 0 0 1 3-2 2 2 0 0 0 1-1l-2-1c-2 0-7 3-6 4s3 1 4 0Zm-190-2-1-1-1 1 1 1 1-1Zm753-1c0-2-4-7-5-7-2 0-2 2-1 4v1a2 2 0 0 0 0 3c2 1 6 0 6-1Zm-681 0-4-1c-3 0-5 1-4 2h5l3-1Zm133 0h-2a1 1 0 0 0 1 1 2 2 0 0 0 1-1Zm592 0c0-1-1-1-1 1-1 0 0 0 0 0l1-1Zm155-1h-1c-2 1-2 3 0 2a3 3 0 0 0 1-2Zm-357-1-2-1c-1 0-2 1-1 2s3 0 3-1Zm173 1a2 2 0 0 0-2-2 2 2 0 0 0 1 3 2 2 0 0 0 1-1Zm-836-1a1 1 0 0 0-1-1v1l1 1v-1Zm158 0a1 1 0 1 0-1 1 1 1 0 0 0 1-1Zm95 0-2-1-1 1 1 1 2-1Zm13 0a1 1 0 1 0-1 1 1 1 0 0 0 1-1Zm759 0a1 1 0 0 0 0-1c-2-1-4 0-3 1a2 2 0 0 0 3 0Zm-756-3h-1l-1 1h1a1 1 0 0 0 1-1Zm659 0a1 1 0 1 0-1 1 1 1 0 0 0 1-1Zm-858-3-2-1a3 3 0 0 1-2-1h-5c0 2 5 4 7 4a2 2 0 0 0 2-2Zm538 1a2 2 0 0 0-1-2c-1 0-3 1-2 2 0 2 3 1 3 0Zm-518-3a4 4 0 0 0-1-2c0-2-4-2-5 0s0 4 3 3a12 12 0 0 0 3-1Zm930 0a1 1 0 0 0-1-1l-2 2c1 1 3 1 3-1Zm-727-1c3-1 4-3 2-3a5 5 0 0 0-4 3c-1 2-1 2 2 0Zm-300-2a2 2 0 0 0-1 0v1c1 1 3 0 1-1Zm47-2c2-1 2-3 1-4 0-1-1-1-5 1s-6 4-3 5l7-2Zm-35 0 4-1 3-1a2 2 0 0 1 2-2 8 8 0 0 0 4-1c2-2 2-2 0-4-3-3-9-1-9 3 0 2-2 3-7 5l-2 2c0 1 5 1 5-1Zm136-1-1-2c-1 0-2 3-1 4s3-1 2-2Zm126 1a2 2 0 0 0 0-2l-3 3c0 1 3 1 3-1Zm-281-2c2-1 4-2 6-1a3 3 0 0 0 3-1l2-1c1 1 4-1 4-2l-4-4-3 1a5 5 0 0 1-3 2 7 7 0 0 0-4 2l-3 2c-2 0-3 2-2 4 0 1 1 1 4-1Zm122 1c0-1-2-2-3-1-1 0 0 3 2 3a1 1 0 0 0 1-2Zm-53-2-2-1c-2 0-3 2-1 3 1 1 3 0 3-2Zm71 2a2 2 0 0 0-2-2 2 2 0 0 0 1 3 2 2 0 0 0 1-1Zm494-1-2-2c-3 0-4 1-2 3a2 2 0 0 0 4-1Zm-554 0-2-1-3 1c-1 1 1 1 3 1l2-1Zm211 0c2-2-2-5-6-4a3 3 0 0 0-1 4h7Zm360 0a1 1 0 1 0-1 1 1 1 0 0 0 1-1Zm-345-4a2 2 0 0 0-2 0v2a2 2 0 0 0 2-2Zm297 2-1-1c-2 0-3 1-1 2h2v-1Zm-290-1c3-1 5-4 4-5s-2-1-5 2c-4 4-4 5 1 3Zm299 0-1-1c-2-1-1-1 0-2 3-2 2-3-1-3s-4 2-2 5c2 2 4 3 4 1Zm-562-2-4-1c-4 0-6 1-4 2 1 1 6 0 7-1Zm274 0c0-2-2-2-2 0l1 1 1-1Zm11-2c1-1 0-3-2-3-3-2-6-2-6 0a7 7 0 0 0 1 3c1 1 2 2 4 1a18 18 0 0 0 3-1Zm294-1h-1l-1 1h1a1 1 0 0 0 1-1Zm-508-4c0-1-2-2-3-1a1 1 0 0 0-1 1 2 2 0 0 0 4 0Zm193-1h-2l1 1a1 1 0 0 0 1-1Zm4 0a3 3 0 0 1 3-1l1-1a2 2 0 0 0-2-1l-3 1c-2 0-2 0-1 1 1 2 2 2 3 1Zm-213-2 3-3c-1-2-5-1-7 1s-2 2-1 3c2 1 2 1 5-1Zm-82-1c3-1 2-3 0-3s-3 1-2 3h2Zm568-2c-1-2-4-1-4 0a3 3 0 0 0 0 2c1 1 4-1 4-2Zm-571-4c0-1-2-2-5-2-2 1-2 1-1 2 2 2 6 1 6 0Zm315-1h-3c-3 0-4 1-2 2l5-2Zm-309-2-1-2a2 2 0 0 0-2 3c1 1 3 1 3-1Zm524 0c2-3 1-3-2-3h-3a1 1 0 0 0-2 0l1 2c2 3 5 3 6 1Zm-202-1c3 0 4-1 4-4 0-2-4-2-8 2-3 3-4 4-2 3a51 51 0 0 1 5-1Zm20 1-1-1-1 1 1 1 1-1Zm-350-3a2 2 0 0 0-1-1 1 1 0 0 0-1 1l1 1 1-1Zm566-1v-1l-2 1 1 2 1-2Zm-591 1c2-1 1-3-1-3a6 6 0 0 1-3-2c-2-1-3-1-3 1l5 4a7 7 0 0 0 2 0Zm378-2-2-1-2 1c0 2 3 1 4 0Zm5-2-3-2a1 1 0 0 0-1 2h4Zm181-1a1 1 0 1 0-1 2 1 1 0 0 0 1-2Zm-32-4-1-2a2 2 0 0 1-1-3 7 7 0 0 0-1-4 25 25 0 0 1-2-7c0-5-2-8-6-8s-4 1-2 4a8 8 0 0 1 3 4c0 4 2 8 3 9 1 0 2 1 2 4v4c1 1 4 0 5-1Zm10-1a2 2 0 0 0-1-1c-2 0-3 2-1 3a1 1 0 0 0 2-1Zm-164 1v-1a2 2 0 0 0-2 1h1a2 2 0 0 0 2 0Zm126 0a1 1 0 1 0-1 0 1 1 0 0 0 1 0Zm16-2a4 4 0 0 1 1-5c2-2 1-3-1-2-2 2-5-1-5-3a5 5 0 0 0-1-3l-2-6c0-4-1-5-2-6-3-1-6 1-6 3l3 4a7 7 0 0 1 3 5v2l2 3a21 21 0 0 0 3 6q6 8 5 2Zm-124-1-2-1-1 1 1 1 2-1Zm95 0c0-2-2-3-4-3l-3 1a4 4 0 0 0 1 2h6Zm73-2a2 2 0 0 0-1-2 2 2 0 0 0-2 2c1 2 3 1 3 0Zm-91-1-1-1-2 1 2 1 1-1Zm-66-1-1-1c-2 0-2 1-1 2l2-1Zm20 0v-2c-2 0-4 0-4 2h4Zm130-1-1-1-1 1 1 1 1-1Zm-126-4c0-2 0-2 3-2l3-1h-6l-5 1-3 1c0 1 5 3 8 3v-2Zm46-4c0-2-4-7-6-7s-2 3 2 6 4 3 4 1Zm23-3c0-5-2-8-5-8-4 0-4 2-2 6 4 8 7 9 7 2Zm-36 2c1-2-5-7-7-7-3 0-3 1 0 4l2 4 5-1Zm24-3c0-2-1-3-3-4-5-5-6-2-2 4 3 4 4 5 5 0Zm-48-1c-1-1-3 1-2 2h1l1-2Zm26-6-2-1-1 1a2 2 0 0 0 1 0 2 2 0 0 0 2 0Zm36-3-1-1a1 1 0 0 0-1 2c0 1 2 1 2-1Zm40 0-1-1-1 1a1 1 0 0 0 1 1 2 2 0 0 0 1-1Zm17-1c0-1-2-1-2 1l1 1a1 1 0 0 0 1-2Zm-49-2h-1a1 1 0 0 0-1 0l1 1 1-1Zm150 438c-1 0 2-4 6-7s7-8 7-10l3-2c3 0 3 3-1 8a32 32 0 0 0-4 6c-1 3-4 3-5 2s-2-1-3 1c-1 3-2 4-3 2Zm39-7c0-1 0-2 1-1a2 2 0 0 1 0 1h-1Zm-63-10 7-7-2 4c-3 4-4 4-5 3Zm-14-6 2-1c2 0 3 2 1 3s-3 0-3-1Zm-11 1c-1-1 1-3 2-2s0 2-1 2a2 2 0 0 1-1 0Zm0-6c-1-1 4-6 5-6a4 4 0 0 0 2-1c2-2 5-2 4 0l-5 6a4 4 0 0 0-2 1c-1 1-3 2-4 0Zm-17-16c0-2 1-3 3-3s2 2 1 3-3 1-4 0Zm-50-4h3l-1 1-2-1Zm56-2 1-2c2-1 3-1 2 1s-2 3-3 2Zm104-7v-1a1 1 0 0 1 1 1v1l-1-1Zm-126-6a2 2 0 0 1 4 0l-2 1-2-1Zm2-3v-3c1 0 3 2 2 3a2 2 0 0 1-2 0Zm5-4c-1-1-1-2 1-5 2-1 2-2 3-1a4 4 0 0 1 0 3c-1 2-3 4-4 3Zm-14-2c-1-2 0-4 3-4s3 1 1 4c-2 2-3 2-4 0Zm-15 0c-1-1 0-4 2-4a13 13 0 0 1 3-1c1 0 1 2-1 4s-3 2-4 1Zm-49-7a2 2 0 0 0-2-1c-2 1-5-1-5-3h3a13 13 0 0 0 6-2 11 11 0 0 1 4-1c2 0 4-1 6-4 5-4 7-5 9-2l1 2-3 2-5 3a26 26 0 0 0-5 3c-3 3-8 5-9 3Zm58-5c-1-2 2-5 4-4s0 3-2 5l-2-1Zm-30-2c-3-3-2-4 1-6s5-2 6 2a4 4 0 0 1-2 4c-3 2-3 2-5 0Zm-46-7c-1-2 0-3 2-2s2 4 0 4l-2-2Zm53-2c-2-3 1-8 6-8 1 0 2 0 2 2 0 3-3 8-6 8a3 3 0 0 1-2-2Zm18 1a2 2 0 0 1 1-2v3a1 1 0 0 1-1-1Zm-31-4v-4c2-2 4-2 6 0s2 3 0 4c-2 2-5 2-6 0Zm43-1a1 1 0 1 1 1 1 1 1 0 0 1-1-1Zm63-3a5 5 0 0 1-1-2c0-2 3-5 5-5 3 0 2-1-1-4l-6-7a6 6 0 0 1 3-1 6 6 0 0 0 3-2 2 2 0 0 1 2 0v7c-1 2-1 2 2 2s3 0 6-2c2-3 5-4 6-2l-3 3c-2 1-2 3-2 4a6 6 0 0 1-2 3l-4 5c-3 3-5 4-8 1Zm-84-2c-2-2-2-4 0-6a7 7 0 0 0 1-4c0-1 1-2 2-1 1 0 2 4 1 8s-2 5-4 3Zm-15-1c-2-2-2-4 0-4a3 3 0 0 0 1-3c0-3 4-3 5 0l-2 7c-2 2-2 2-4 0Zm160 0a2 2 0 0 1 1-2h1a2 2 0 0 1 0 2h-2Zm52-9a2 2 0 0 1 3-2 2 2 0 0 1-1 3 2 2 0 0 1-2-1Zm13-1a6 6 0 0 1-1-3 9 9 0 0 0-1-4c-1-2-1-3 1-5v-6a16 16 0 0 1-1-8c0-4 0-5 2-5s3 1 4 3c1 4 3 3 3 0l-1-3c-1 0-2-1-1-2 0-2 1-3 2 0a5 5 0 0 0 1 2 5 5 0 0 1 2 3c1 6 4 0 4-7l-1-4v-7l2 3a12 12 0 0 0 1 4 28 28 0 0 1 2 8v7l-1 9c0 7-1 8-2 10-3 2-4 2-6 0-2-3-3-4-1-6a5 5 0 0 0 2-3c0-3 1-3 3-1 0 1 1 1 1-3 0-5 0-5-2-3l-1 2-2-2c-1-3-3-3-4-1a43 43 0 0 0-1 8l-1 8a5 5 0 0 0-1 4c0 2-1 3-2 2Zm-127-20c0-2 1-3 3-3s2 1 1 3-3 2-4 0Zm-140-9 1-1a1 1 0 0 1 1 1l-1 1-1-1Zm254-1a2 2 0 0 1 1-2c1 0 4 2 3 3s-4 1-4-1Zm-258-4c-1-2 0-4 1-4s2 1 2 3c-1 1-2 2-3 1Zm255-1c-2-2-1-3 2-3l3 1a4 4 0 0 1-3 3 4 4 0 0 1-2-1Zm-767-3c-2-1-2-2 0-4h5c3 1 3 2 1 4a5 5 0 0 1-6 0Zm780 1a8 8 0 0 0-1-2l1-2a3 3 0 0 0 3-1c2-3 6 0 4 4h-4c-1 2-3 2-3 1Zm-157-30c-2-3-2-3 1-5 5-2 24-21 24-23l1-2 2-2 2-2c2 1 1 2 0 5a19 19 0 0 0-2 6 4 4 0 0 1-1 2 4 4 0 0 0-2 3c0 1-12 14-14 14l-5 2c-4 4-4 4-6 2Zm36-5c-3-1-4-3-1-4l2-1c0-2 7-8 9-8l2-2c0-3 4-7 4-5a2 2 0 0 1-1 2 3 3 0 0 0-1 3 5 5 0 0 1-1 3 4 4 0 0 0-1 3l-4 5-4 4h-4Zm83-3v-4c3-3 4-2 3 2v3c0 2-2 1-4-1Zm26 1 1-4c2-3 3-3 4 1s-2 5-5 3Zm-153-1c-4-1-4-3-2-5v-3l-2-1h-4c-3 0-3 0-3-2l3-3c8-3 19-15 19-20a5 5 0 0 1 1-3 8 8 0 0 0 2-3c0-3 3-6 4-5s0 12-2 15l-2 3-1 1a8 8 0 0 1-2 4c-3 3-3 6 0 8 2 2 3 1 3-1l5-7 5-6a2 2 0 0 1 1-2 3 3 0 0 0 1-3c0-2 3-5 4-5s1 7-1 8a4 4 0 0 0-1 3 4 4 0 0 1-1 2 4 4 0 0 0-1 3l-4 3c-2 1-3 2-3 4 0 3-1 7-3 7l-1 2c1 3 1 3-2 3l-4 1a3 3 0 0 1-3 2 5 5 0 0 0-3 0h-4Zm6-10c4-3 3-5 0-3l-2 1-2 1a2 2 0 0 0-1 3c1 1 3 1 5-2Zm160 9c-1-1 1-8 3-9a2 2 0 0 1 4 2c0 3-3 8-5 8a3 3 0 0 1-2-1Zm-63-2c0-1 3-6 4-5s-1 7-3 7l-1-2Zm40-1a2 2 0 0 1 1-2l2-3c0-3 1-4 2-2v4c-1 3-1 4-3 4l-2-1Zm-25-5c0-1 2-2 2 0l-1 1-1-1Zm-51-2-1-1 3-1c3 2 1 4-3 2Zm106-3a2 2 0 0 1 1-2v3a1 1 0 0 1-1-1Zm-781-2a2 2 0 0 1 0-3l1-9c0-11 0-10 2-10l1-1 3-1a5 5 0 0 0 3-3 3 3 0 0 1 3-2 4 4 0 0 0 2-1 3 3 0 0 1 3-1l3-3 5-3 4-3a52 52 0 0 1 7-6 30 30 0 0 0 5-4 5 5 0 0 1 3-1l5-4 5-3 3-3c3-3 5-4 6-3 2 1-1 10-4 14l-1 3a1 1 0 0 1 0 2h-1c-2-1-4 0-5 2a3 3 0 0 1-3 1l-8 7-8 6a5 5 0 0 0-3 2c-1 3-3 3-5 1-1-2-1-2-4-1s-3 3 1 3 5 1 2 4l-10 10h-1l-4 3c-7 7-9 8-10 7Zm679 0a8 8 0 0 1 0-3l1-3 1 3c0 3-1 4-2 3Zm115-3v-4c2-3 4-3 4 1-1 4-3 5-4 3Zm-137-5 1-2 1 2h-2Zm14-2c-1-2 0-6 1-6 1-1 3 1 2 4s-2 4-3 2Zm-22-6v-3c2-1 3 1 2 3h-2Zm162-1c-2-2-1-7 2-7 2 0 2 1 0 4s-2 4-2 3Zm10-1c-2-2 1-11 3-11l1 6-2 5a3 3 0 0 1-2 0Zm-159-2c-1-4-2-6 0-7 1 0 2 1 2 4s-2 5-2 3Zm-13-5-1-4 1-4c2-4 2-2 2 5l-1 6-1-3Zm-648-8 3-2 4 1c1 1 0 2-4 2-2 1-3 0-3-1Zm660 0a1 1 0 1 1 2 2 1 1 0 0 1-2-2Zm162-2a13 13 0 0 1 0-5l1-3c1 0 2 0 2 4s-1 6-3 4Zm8-12a4 4 0 0 1-1-3 4 4 0 0 0-1-2c-1-1-1-5 1-8l1-2 2 2 2 3 2 3c3 3 4 6 1 5a4 4 0 0 1-2-1c-1-2-3-2-3-1l1 2c2 1 1 3-1 3a4 4 0 0 1-2-1Zm-5-12v-2c1-1 2 1 1 2h-1Zm-2-7a34 34 0 0 1-12-8v-4a2 2 0 0 0-2 1l-3-2a39 39 0 0 0-4-4 8 8 0 0 1-3-3 2 2 0 0 0-2-1c-2 0-7-5-7-6 0-2 3-1 4 0a4 4 0 0 0 2 2l7 5 7 5 5 5a4 4 0 0 0 2 2 19 19 0 0 1 4 3l4 2a4 4 0 0 1 2 2c2 3 1 3-4 1Zm-96-36-21-7a12 12 0 0 1-5-1 20 20 0 0 0-5-1l-3-2c1-1 13 0 15 1h4a25 25 0 0 1 6 2 24 24 0 0 0 7 1c4 0 10 3 10 5 0 1-3 3-5 3a10 10 0 0 1-3-1Zm177-51a4 4 0 0 0-1-2c-2-2-2-2 0-4 5-2 7 3 3 6h-2Zm-25-1c-1-1 2-5 4-5v4c-1 1-3 2-4 1Zm58-3v-5l3-3 2-3v-10c-1-1-1-5 1-5a8 8 0 0 1 2-1 91 91 0 0 1-1 24c0 2-3 5-4 5a6 6 0 0 1-3-2Zm-78 1 1-2 1 1c0 1-1 2-2 1Zm56-2-2-2 3-2c2-3 5-2 5 3 0 2 0 3-2 3a5 5 0 0 1-4-2Zm-188-1 1-1 1 1h-1a1 1 0 0 1-1 0Zm250 0-1-4c0-2 0-3 2-3a6 6 0 0 1 4 2c1 2 1 2-1 4s-2 2-4 1Zm49 0c0-2 3-7 4-6 3 0 3 3 1 5l-5 1Zm15-1c-1-2-1-5 1-6a4 4 0 0 0 1-3c0-2 1-2 3 0s2 2 0 4a8 8 0 0 0-1 4c0 3-3 3-4 1Zm-149 0c0-2 2-5 3-5l1 2c0 3-1 3-2 3h-2Zm-66-1c-2 0-1-5 0-8s4-2 3 1a5 5 0 0 0 1 4c2 2-1 5-4 3Zm103-1v-3a3 3 0 0 1 1-4c3-1 4 0 3 4 0 3 0 3-2 4l-2-1Zm61-1c-2-2-2-2 0-4s4-1 3 2v1l1 2c0 1-2 1-4-1Zm-274 0v-3c2-1 3 0 3 2s-1 3-3 1Zm33 0c-1-2-1-3 1-5h2c1 2 0 5-1 6a2 2 0 0 1-2-1Zm23 0c-2-1-2-1 0-2 1-2 4-1 4 1-1 2-3 2-4 1Zm-46-1c-1-2 1-6 2-7 2 0 2 1 2 4s0 3-2 3a3 3 0 0 1-2 0Zm69-1a1 1 0 1 1 1 1 1 1 0 0 1-1-1Zm112 0a4 4 0 0 1 3-3l1 2c0 2-1 2-2 2l-2-1Zm96-1c0-2 1-2 2-2 2 0 2 1 1 3s-3 2-3-1Zm64 0c1-2 4-4 5-3l-3 4-2-1Zm-283 0c-2-1-1-2 1-2l1 1c0 2-1 2-2 1Zm-24-3c-1-1 3-4 4-3 1 2 0 4-2 4a3 3 0 0 1-2-1Zm37 0c-2-1-1-2 1-2l1 1c0 2-2 2-2 1Zm171 0c-1-2 0-4 2-4l1 2c-1 3-2 4-3 2Zm64 0v-3c1 0 4 2 3 3h-3Zm-292-1a3 3 0 0 1 0-2c1-2 2-1 2 1s-1 3-2 1Zm-68-5a13 13 0 0 1-1-6l1-4c2 0 3 2 3 7s-1 6-3 3Zm22 1c-1-1 2-6 3-5 1 2 0 5-1 6a2 2 0 0 1-2-1Zm240-3c0-2 2-2 2 0a1 1 0 0 1-1 1c-1 0-2 0-1-1Zm-286-5c0-5 1-5 3-4l1 4c0 3 0 3-2 3s-2 0-2-3Zm13-2c-1-2 1-3 3-1v1h-3Zm290-1c-2-3 0-6 2-5a2 2 0 0 0 3-2l1-1 6 5c-1 2-7 2-7 0-1-2-3 0-2 3l-1 2-2-2Zm-325-2c0-3 0-3 2-4 2 0 3 2 2 5l-3 2c-1 0-2 0-1-3Zm-11-10c1-1 2-2 3 0l-2 1-1-1Zm447-5-6-1-6-2-3-1-4-1-9-1c-6 0-7-1-8-2l-5-1-6-1a6 6 0 0 0-4-1l-3-1-8-2-9-2h-16l-15 1h-3c-1-1-3-2-8-2l-8-1-10-2-9-2 29-1c25-1 29 0 29 1l4 1a11 11 0 0 1 6 1l8 2 9 1 8 1c5 0 7 1 8 2a4 4 0 0 0 4 1c2-1 3 0 3 1 2 2 5 2 11 1l4 1a6 6 0 0 0 4 1 6 6 0 0 1 4 1l4 2 3 1a3 3 0 0 0 3 1c1 0 2 1 2 3s-1 2-3 1Zm-44-13h-1a1 1 0 0 0-1 1h1l1-1Zm-45-6 4-1h-13c-1 0 2 2 3 1a30 30 0 0 1 6 0Zm-419 11a8 8 0 0 0-1-5c-2-2-2-4 0-5s5 3 5 5a2 2 0 0 0 2 2l1 1-6 5-1-3Zm330-11a25 25 0 0 1-6-1 333 333 0 0 0-51 0l-8-1-7-1-3-1h-6a27 27 0 0 0-8 0 10 10 0 0 1-5-1h-3c-1 1-9 1-10-1s-3-1-20-1l-32 1c-2 2-9 2-11 0l-36-1a279 279 0 0 1-33-3 7 7 0 0 0 3-1l30-1h38a797 797 0 0 0 81 1l22 2v2c-1 3 1 3 4 0l2-2h35l3 2c2 3 6 3 8 1l16-1a78 78 0 0 1 22 2l7 1c0 3-13 6-14 4-1-1 0-2 1-3s1-2-1-2l-6 1c-4 0-4 1-4 2l-1 2a9 9 0 0 0-1 0 28 28 0 0 1-6 0Zm-38-5c1-1-6-3-7-2a1 1 0 0 0-1 2h8Zm6 0c1-1-2-3-3-2a1 1 0 0 0 0 2 2 2 0 0 0 3 0Zm3-1a2 2 0 0 0-1 0l1 1v-1Zm-68-2a2 2 0 0 0-2-1 1 1 0 0 0-1 1h3Zm-67-1a2 2 0 0 0-2 0l1 1 1-1Zm-111 0-2-2a164 164 0 0 1 25 0l-4 1c-3 0-4 1-5 2-1 2-11 1-14-1Z"/></svg>