<svg xmlns="http://www.w3.org/2000/svg" viewBox="0 0 1200 1200"><path d="M154 1048a7 7 0 0 1-3-3c-1-3-1-3 1-2a2 2 0 0 0 3-1 3 3 0 0 1 2-2 2 2 0 0 0 1-1 2 2 0 0 1 2-1l1 4v3a2 2 0 0 0 1-2 7 7 0 0 1 2-3c1-2 3-1 2 2-1 2 0 5 1 5 1 1 5-3 5-3a20 20 0 0 0-2-1c-2-1-2-1-1-3h3a3 3 0 0 0 2 0c2-1 3 1 2 4-3 5-3 5-7 5l-3-1c0-2-1-1-2 0l-2 1-2-1h-6Zm-12-5a27 27 0 0 0-5-4c-3-1-4-2-5-5a6 6 0 0 0-2-2l-3-2a15 15 0 0 0-1-4l-1-4-2-1c-2-1-3-2-1-6v-5a3 3 0 0 1-1-2c1-2-1-2-4-1-2 1-2 1-4-1a6 6 0 0 0-2-1c-1 0-5-5-7-10l-5-7a11 11 0 0 1-3-3l-2-3a47 47 0 0 1-4-8c-1-5-2-7-4-8l-2-3c1-1-2-6-5-9l-2-5a19 19 0 0 0-1-5c-2-3-2-4-1-11l2-13c2-4 4-6 10-8l5-3 3-1a14 14 0 0 0 5-1l9-1a41 41 0 0 1 14 3c5 3 8 4 12 4a267 267 0 0 0 61-3l8-1a47 47 0 0 0 12-2l7-3a56 56 0 0 0 6-2 9 9 0 0 1 3-1c2 1 3 0 7-2a10 10 0 0 1 4-1 5 5 0 0 0 3-1 4 4 0 0 1 3-1 7 7 0 0 0 3-1 5 5 0 0 1 4-1 4 4 0 0 0 4-1c2-1 16-7 17-6l8-3a37 37 0 0 1 7-3 47 47 0 0 0 6-1l4-2a16 16 0 0 0 4-2 18 18 0 0 1 5-2 13 13 0 0 0 6-3l7-4 15-6a17 17 0 0 1 4-1 5 5 0 0 0 2-1 7 7 0 0 1 4-1 11 11 0 0 0 5-2 35 35 0 0 1 6-3 14 14 0 0 0 4-2 2 2 0 0 1 1-1l13-5a31 31 0 0 1 5-2 25 25 0 0 0 6-3 21 21 0 0 1 6-3 21 21 0 0 0 6-3 9 9 0 0 1 3-2l4-2a36 36 0 0 1 6-4l8-4 7-3a38 38 0 0 1 6-3 18 18 0 0 0 5-2 12 12 0 0 1 3-2 8 8 0 0 0 3-2 24 24 0 0 1 7-4 30 30 0 0 0 5-3c2-1 1-6-4-13a41 41 0 0 1-3-7c-2-6-5-9-9-11a24 24 0 0 1-5-4l-6-2-7-3-7-2a35 35 0 0 1-8-3 29 29 0 0 0-5-3 38 38 0 0 1-5-2 6 6 0 0 0-2 0 2 2 0 0 1-2-1 2 2 0 0 0-2-2c-2 0-11-2-14-4a11 11 0 0 0-3-1 7 7 0 0 1-2-1l-11-4-4-1a3 3 0 0 0-2-1 3 3 0 0 1-3-1 3 3 0 0 0-2-1 13 13 0 0 1-3-2 24 24 0 0 0-6-2 42 42 0 0 1-9-3 52 52 0 0 0-8-3 6 6 0 0 1-3-2l-8-4a5 5 0 0 1-3-1 5 5 0 0 0-3-2 2 2 0 0 1-2-1 2 2 0 0 0-2-1 6 6 0 0 1-3-1 6 6 0 0 0-2-1l-9-5-3-1a15 15 0 0 1-7-2 20 20 0 0 0-5-3 45 45 0 0 1-8-3 60 60 0 0 0-7-3c-1 0-5-2-6-4s-2-2-4 0h-4c-3-1-4-1-6 1a22 22 0 0 1-4 2 8 8 0 0 0-4 2c-1 2-5 3-8 1l-5-2a123 123 0 0 1-12-7 7 7 0 0 0-3-1l-4-2a11 11 0 0 0-5-3 9 9 0 0 1-5-2h-4c-2 0-3 0-4-2l-1-1-4 1a28 28 0 0 1-8 1c-4 0-5 0-7 2a20 20 0 0 1-7 2c-3 0-4 0-4 2a3 3 0 0 1-2 2c-2 0-7 6-9 9a8 8 0 0 1-3 3c-1 1-2 1-5-1-4-2-5-4-4-5s1-4 0-4l-1-1c1-1 0-2-1-2-2 0-2 2-1 5a12 12 0 0 1 1 4c0 2 1 3 2 3l-1 1c-2 1-2 2 0 3a2 2 0 0 1 2 2 4 4 0 0 0 2 3c1 1 1 1-1 2l-1 2 2-1c1-1 4-1 4 1a2 2 0 0 0 2 2q3 0 1 2c-1 1-1 5 1 6v2h-3a12 12 0 0 0-5-2 56 56 0 0 1-13-2l-1-2h3l13 3a5 5 0 0 1 2-2c2-2 1-4-2-3h-4c-1-2-2-2-3-1s-2 0-3 0c-3-2-3-3-1-3l2-2-8-4-5-2-2-4-2-2c-3 0-6-3-6-4a6 6 0 0 0-2-4l-5-14a11 11 0 0 0-2-5l-1-10 2-19v-3c-2-4-5-7-7-7l-2-1c0-2 3-3 5-4s4 1 6 4h6c1 2 4 1 8-1h4c1 1 2 0 3-1h3c4 0 8-1 11-3 4-3 9-9 10-12a17 17 0 0 1 3-5c1-1 2-4 1-13l-1-8 3-2 3-3c2 0 6-4 8-7a43 43 0 0 1 3-6 17 17 0 0 0 2-5 6 6 0 0 1 9-4 9 9 0 0 0 3 2c3 0 3 2 1 3a3 3 0 0 0-2 3 3 3 0 0 1-2 3c-1 0-2 1-2 3l-1 3-1 3v2l-5 1c-2 1-2 1-2 3 0 3 1 3 2 1h3v5c1 1 2 3 1 4l-4-2c-6-4-6-4-7-3a10 10 0 0 0-2 4 20 20 0 0 1-2 4 8 8 0 0 0-1 5 4 4 0 0 1-1 4 10 10 0 0 0-2 4c0 3-1 4-10 12-7 6-9 8-11 8a10 10 0 0 0-4 1c-2 1-3 2-5 1s-3 0-4 1a3 3 0 0 1-3 1 9 9 0 0 0-4 1 7 7 0 0 1-4 0l-1 1a1 1 0 0 0 1 2c2 0 2 3 0 5a8 8 0 0 0-1 4c-1 2 0 3 1 3 2 0 2 2 0 2l-2 3-3 7-1 2a4 4 0 0 1 0 2 1 1 0 0 0 0 1l2-2 2-3c2 0 2 2 1 3a9 9 0 0 0-2 3c0 2 1 2 2 0a3 3 0 0 1 3-2c2 0 1 5-2 6-2 1-2 4 0 4a3 3 0 0 0 2-2h5a3 3 0 0 1 0 3c-1 1-1 1 1 1a9 9 0 0 0 3-1 3 3 0 0 1 3 0c1 1 2 0 4-1 6-3 6-2 1 4-3 4-4 5-3 6l2 1 4-6c2-3 6-6 8-6l2-1c0-1 7-8 9-8a3 3 0 0 0 3-2l1-2 1 2c-1 2 0 2 4 0 1-1 2-1 1-3a3 3 0 0 1 3-3v1l-1 2c1 0 3-1 3-3s3-4 5-4c3 0 3 1 1 2v2h5c2-3 9-2 9 0a4 4 0 0 0 2 2c1 2 1 2 2 1 2-1 2-3 0-4l-2-1c0-1 1-2 6-2 6 0 7-1 8-3l2-1c2 1 2 3 1 3-2 0-1 2 1 2a3 3 0 0 0 2 0c2-1 5 2 5 3h4l7 2a7 7 0 0 0 4-1h4a15 15 0 0 0 4 1l5 3c3 3 4 3 7 3s4 0 4-2v-2c2 0 2 0 2 2l2 1c1 0 2 0 5 3 3 2 3 3 5 2h2a3 3 0 0 0 3 0c2-1 4 3 2 5s2 2 3 0c2-1 7-1 9 1a13 13 0 0 0 4 3c6 2 7 2 8 4s2 2 5 2a9 9 0 0 1 5 1c6 3 10 5 11 4 1-2 3-1 3 1s1 2 3 3l3 1 11 4 16 8 4 1c1-1 2-2 0-2s1-3 3-3a2 2 0 0 1 2 1l2 1 6 2c2 1 5 2 6 1s2 1 3 2a15 15 0 0 0 4 2 31 31 0 0 1 6 2 20 20 0 0 0 3 2 7 7 0 0 1 3 2c1 1 2 2 3 1a3 3 0 0 1 3 1h2c1-1 0-1-2-3a25 25 0 0 0-4-3 27 27 0 0 1-6-4 3 3 0 0 0-3-1 3 3 0 0 1-2-1c-2-1-2-1 0-2h2a5 5 0 0 0 3 1 4 4 0 0 1 3 2 4 4 0 0 0 2 1 23 23 0 0 1 6 2c5 2 7 3 7 1l-7-5a6 6 0 0 1-3-1 4 4 0 0 0-2-1 2 2 0 0 1-2-1 2 2 0 0 0-2-1l-7-3 1-1c1-1 2 0 5 1l4 2-2-4-8-5-1-1a6 6 0 0 1 3-1l1-1-14-7a2 2 0 0 1-2-1l-3-1-4-1-8-5-3-1a12 12 0 0 0-5-2 2 2 0 0 1-2-1 26 26 0 0 0-5-3c-9-3-14-6-15-7a2 2 0 0 0-2 0 3 3 0 0 1-2-1 4 4 0 0 0-2-2l-5-2-2-1-4-1a7 7 0 0 0-3-2 3 3 0 0 1-2-1 6 6 0 0 0-3-2l-2-1c0-2 2-2 3 0l2 1a7 7 0 0 1 4 1 6 6 0 0 0 4 2l13 6a8 8 0 0 0 4 1 13 13 0 0 1 5 1c2 2 5 1 4 0a3 3 0 0 0-2-1l-12-5a7 7 0 0 0-3-2c-2 0-1-1 2-2a7 7 0 0 1 4 2 8 8 0 0 0 3 1 3 3 0 0 1 2 1l4 2a18 18 0 0 1 8 3c4 3 6 3 6 1l-1-2a9 9 0 0 1-4-1 9 9 0 0 0-4-2 8 8 0 0 1-3-1l-9-4a4 4 0 0 1-3-1c0-1-3-3-5-3l-5-3-7-4-6-3a3 3 0 0 0-2-1 3 3 0 0 1-2-1h-4v3a5 5 0 0 1 1 2l-5-1a1 1 0 0 0-1 0l-1-1a3 3 0 0 0-2-1 2 2 0 0 1-2-3h8q2-3-3-3a11 11 0 0 1-4-2 14 14 0 0 0-4-1 10 10 0 0 1-3-2 8 8 0 0 0-4-1l-4-4-5-3v-1c0-1 0-2-3-2-6 0-7 3-2 4a7 7 0 0 1 3 2 10 10 0 0 0 4 3 45 45 0 0 1 4 2l8 4c1 0 4 3 3 4s-3 0-6-2a22 22 0 0 1-4-3l-3-1h-3c-1-2-11-6-12-6l-6-4-5-3a43 43 0 0 1-6-3 75 75 0 0 0-8-3 17 17 0 0 1-4-2 9 9 0 0 0-5-2h-3c-2-2-6-1-10 2-5 3-6 4-5 7a5 5 0 0 0 3 5c3 2 3 2 1 3s-8-3-7-4l-9-11c-4-4-4-5 0-7a25 25 0 0 0 4-3h4a6 6 0 0 0 3 1c3 0 3-1 2-2l1-3 6-2h9l-1-2a6 6 0 0 1-2-2 3 3 0 0 0-1-2 3 3 0 0 1-1-2l-3-6a4 4 0 0 1-2-1 7 7 0 0 0-3-2c-5-1-7-1-8-3a5 5 0 0 0-3-1l-5-2c0-1 3-2 6-1l2 2c0 1-1 1 1 1a22 22 0 0 1 9 2 8 8 0 0 0 4 1c1-1 1 0 2 1a3 3 0 0 0 3 2c4 0 7 6 7 12 0 2 1 3 2 3l3 5 2 1c2 0 6 3 6 6h2c1-1 2-1 3 1a5 5 0 0 0 2 1 8 8 0 0 1 3 1 7 7 0 0 0 3 2c2-1 3 0 6 3 3 2 4 3 5 2s3 1 5 2a13 13 0 0 0 4 2 2 2 0 0 1 1 1 1 1 0 0 0 2 1l5 3 6 3 3 2a6 6 0 0 0 4 2 23 23 0 0 1 3 0h1l1 2 1 1 6 2 5 3a3 3 0 0 1 2 1 3 3 0 0 0 2 1 11 11 0 0 1 4 2 11 11 0 0 0 4 2 7 7 0 0 1 3 1 7 7 0 0 0 3 1 12 12 0 0 1 5 2 12 12 0 0 0 4 1l6 3 5 2 2 1a10 10 0 0 0 5 2l3 1a2 2 0 0 0 2 1 18 18 0 0 1 5 2 17 17 0 0 0 5 2 7 7 0 0 1 3 1c2 2 4 2 5 1 2-2-1-16-3-17l-2-4a13 13 0 0 0-1-5 10 10 0 0 1-1-4 10 10 0 0 0-1-4 21 21 0 0 1-2-5c-1-3-1-5-3-6l-3-3a5 5 0 0 0-1-3 37 37 0 0 1-4-5l-4-4-5-6a22 22 0 0 0-3-4l-3-5a2 2 0 0 0 0-2l-1-4c-1-4-1-5 1-9l11-15a19 19 0 0 0 3-4 4 4 0 0 1 1-1l1-7 1-7v-4l-3-7a8 8 0 0 1-2-3l-4-13a19 19 0 0 1-2-4 6 6 0 0 0-2-3 6 6 0 0 1-1-3 21 21 0 0 0-2-5 20 20 0 0 1-2-6l-3-6a3 3 0 0 1-1-3 19 19 0 0 0-1-5 25 25 0 0 1-2-6 8 8 0 0 0-2-4 8 8 0 0 1-1-4 3 3 0 0 0-1-2 4 4 0 0 1-1-3 25 25 0 0 0-1-6l-3-15-2-18a16 16 0 0 1-1-5c0-7-2-17-3-19a9 9 0 0 1-1-5 23 23 0 0 0-1-6c-3-9-3-10-2-12a4 4 0 0 0 0-4 97 97 0 0 1 1-29 23 23 0 0 1 1-7 9 9 0 0 0 1-3 82 82 0 0 1 2-11 99 99 0 0 0 2-10 7 7 0 0 1 2-3 6 6 0 0 0 0-4 7 7 0 0 1 3-7 2 2 0 0 0 1-3 3 3 0 0 1 1-3l2-6a29 29 0 0 1 3-7l5-11a27 27 0 0 1 3-5l5-9 3-4a34 34 0 0 0 4-6 8 8 0 0 1 2-2 3 3 0 0 0 2-2l3-5a19 19 0 0 0 3-4l4-5 5-5a48 48 0 0 1 5-4l7-7 14-11a4 4 0 0 0 2-2 23 23 0 0 1 6-3 38 38 0 0 0 6-4 50 50 0 0 1 4-3l5-3 4-1a3 3 0 0 0 2-1 15 15 0 0 1 4-2 28 28 0 0 0 7-3l7-3a48 48 0 0 0 7-3 10 10 0 0 1 3-1 23 23 0 0 0 6-3l5-2 5-1a40 40 0 0 1 7-1 4 4 0 0 0 2-1l5-1a36 36 0 0 0 6-1 6 6 0 0 1 4 0 3 3 0 0 0 3-1 14 14 0 0 1 6-2l6-1h11c1-2 4-2 10-3 5 0 7 0 7 2s2 1 3-1c1-1 2-2 6-2h8v9l-1 11a7 7 0 0 0-1 4 19 19 0 0 1 0 6 22 22 0 0 0 0 7 8 8 0 0 1-1 4 6 6 0 0 0 0 4 9 9 0 0 1 0 4 24 24 0 0 0-1 6 10 10 0 0 1-1 5c-2 3-2 1-1-4a30 30 0 0 0 1-6v-36c0-7 0-10-2-10l-2 5a63 63 0 0 1-1 7l-2 32c0 8-1 13-2 9l-1-16v-18a41 41 0 0 1 0-8 15 15 0 0 0 0-6l-1-3-1 2-2 19a74 74 0 0 1-1 9l-1 18c0 14-2 22-3 22-1 1-1 0-1-2a527 527 0 0 0 1-67l-2 5a12 12 0 0 0-1 4 28 28 0 0 1-1 6 24 24 0 0 0-2 5 10 10 0 0 1-1 4l-1 10-1 16-1 7a49 49 0 0 1-1 9v4c2 1 0 5-1 4s-1-18 1-27a65 65 0 0 0 0-10l1-5v-3l3-18v-6c-2-2-5 0-5 3a6 6 0 0 0 0 3l-1 5a70 70 0 0 0-1 7l-2 17-2 13a48 48 0 0 1-1 8l-2 12-1 4a2 2 0 0 0 0 2 1 1 0 0 1-1 2v-6l1-11 1-10 1-15a451 451 0 0 1 3-33c-2 0-4 6-6 18l-1 10-2 14a112 112 0 0 1-2 12 91 91 0 0 0-2 12l-1 8a2 2 0 0 0 0 2l-1 1c-1 0-2-3-1-5a8 8 0 0 0 1-3 27 27 0 0 1 0-7 95 95 0 0 0 2-11l1-8a146 146 0 0 0 2-18l2-10a5 5 0 0 0 0-3v-13c-1-1-4 6-4 9a33 33 0 0 1-1 6l-2 6c0 2-1 2-2 0s-2-2-4 1c-1 2-4 11-3 12a2 2 0 0 1-1 2 25 25 0 0 0-1 6l-4 9-1-1a3 3 0 0 1 1-2l1-2a8 8 0 0 1 1-4l2-8 1-8a5 5 0 0 0 1-3 5 5 0 0 1 1-3 8 8 0 0 0 1-3 10 10 0 0 1 1-4v-3c-2-2-3-2-3 0a3 3 0 0 1-1 1 1 1 0 0 0 0 2 2 2 0 0 1-1 2 5 5 0 0 0-1 3l-3 10a45 45 0 0 0-3 10 38 38 0 0 1-1 7 9 9 0 0 0-1 3 4 4 0 0 1-1 3l-2 8-2 7-1 7-1 6v4l-1 4a10 10 0 0 0-1 5 251 251 0 0 1-4 19v-4l3-27a10 10 0 0 1 0-4 23 23 0 0 0 2-6l4-20a10 10 0 0 0 1-4 95 95 0 0 1 2-15l2-5a60 60 0 0 1 3-8 22 22 0 0 0 2-7 5 5 0 0 1 1-3l-1-1c-2 0-4 3-4 6a7 7 0 0 1-2 3 3 3 0 0 0-1 2 9 9 0 0 1-1 3l-3 9a58 58 0 0 1-2 9l-3 14a65 65 0 0 1-3 13 27 27 0 0 0-1 5c-1 14-3 20-4 22s-2-1-1-7a60 60 0 0 0 1-9 22 22 0 0 1 1-6l4-18a54 54 0 0 1 2-6 22 22 0 0 0 0-5c0-4 1-6 3-11a51 51 0 0 0 1-5l2-6a7 7 0 0 0 0-3c0-2-1-1-3 2-2 2-3 3-4 2-2 0-2-2 0-6s2-4 0-4-3 1-4 5a30 30 0 0 0-2 7 10 10 0 0 1-2 4 9 9 0 0 0-1 4 3 3 0 0 1-1 2l-1 3-1 3a3 3 0 0 0 0 2 7 7 0 0 1-2 4 6 6 0 0 0-1 3 3 3 0 0 1 0 2c-2 1-2-3-1-6a8 8 0 0 0 1-3 19 19 0 0 1 1-5c3-12 4-22 3-22l-5 8c-3 5-3 7-2 8a3 3 0 0 1 0 3 3 3 0 0 0-1 2 5 5 0 0 1 0 3 59 59 0 0 0-6 23l-1 10a22 22 0 0 1-2 8 17 17 0 0 0-1 8 49 49 0 0 1-2 14l-1 17c0 14-1 17-2 23v5a9 9 0 0 1 1 4 6 6 0 0 0 2 5v2l-1 34v18a327 327 0 0 0 2 49 4 4 0 0 1 1 3 57 57 0 0 0 2 8l1 7c-1 1-2 1-3-2-2-3-4-3-3 0a47 47 0 0 1 0 7c0 4 1 6 2 7v2l-1 8-2 10c-1 0-2-3-2-13l-1-10a11 11 0 0 1-1-4 34 34 0 0 0-1-7l-1-5-1-5-1-9-2-9a63 63 0 0 1-1-8 47 47 0 0 0-1-8v-9l-1-14-2-11-1 11 1 15v11a132 132 0 0 0 3 19l1 8a27 27 0 0 0 2 5 12 12 0 0 1 1 5 45 45 0 0 0 1 7v5c-2 1-1 3 0 3s2 1 2 7v15l1 6c1 1-1 2-2 1l-2-8-1-13v-6l-1-4a49 49 0 0 1-2-11l-2-9c-1 0-2-5-4-25l-2-10c-2-1-2 1-2 5l1 7 1 4v4l1 9c2 5 2 7 1 9s-2 1-2-3a8 8 0 0 0-1-3l-1-5-1-6-2-7a61 61 0 0 0 0-7l-2-5a53 53 0 0 1-1-9l-1-7a3 3 0 0 1-1-3 94 94 0 0 0-1-23l1-11 1-17c1-8 1-10-1-10l-2 9a278 278 0 0 0 1 59 117 117 0 0 0 1 13l1 8a13 13 0 0 0 0 3 33 33 0 0 1 1 7l1 7a11 11 0 0 1 1 4 18 18 0 0 0 2 5v5c-1 1-3-2-2-4a9 9 0 0 0-1-5 37 37 0 0 1-4-14 16 16 0 0 0-2-7 7 7 0 0 1-1-5c1-2 0-3-1-4l-1-7-1-11c-1-10 0-32 1-38a34 34 0 0 0 1-8c-1-4 1-15 2-16l1-4a10 10 0 0 1 0-5l1-8a98 98 0 0 1 2-16 76 76 0 0 0 1-8 39 39 0 0 1 0-5 40 40 0 0 0 1-4l2-3v6l-1 23c1 2 1 2 2 1a13 13 0 0 0 1-4 371 371 0 0 1 2-27l1-7a18 18 0 0 0 1-5 40 40 0 0 1 2-8l1-6a2 2 0 0 1 0-2 1 1 0 0 0 1-1v-2l1-6v-4l1-2a14 14 0 0 1 1-5c2-3 2-9 1-8a2 2 0 0 0-1 2 4 4 0 0 1-1 2l-2 6a28 28 0 0 1-1 5 9 9 0 0 0-1 4 8 8 0 0 1-1 3l-1 3a3 3 0 0 1 0 2 9 9 0 0 0-1 3c0 1-2 2-2 0a2 2 0 0 0 0-1c-2-1-3 1-4 4a19 19 0 0 1-1 5 19 19 0 0 0-1 6v4l-1 2a2 2 0 0 1 0 2v2a11 11 0 0 1-1 5 50 50 0 0 0-1 7 95 95 0 0 1-1 10 69 69 0 0 0-1 12 99 99 0 0 1-1 11l-1 7a50 50 0 0 1-2 5 60 60 0 0 0-1 8 13 13 0 0 1-1 4 2 2 0 0 0 0 2l-1 11-1 6c0 5-1 8-2 6v-11l1-19a92 92 0 0 1 1-12c1-2 1-2-1-2a1 1 0 0 1-1-1 3 3 0 0 0-1-2c-1-1 1-7 2-8v-2l-1-1v-9a234 234 0 0 1 2-24l1-9a3 3 0 0 1 1-2v-3a85 85 0 0 1 2-9c1-12 2-17 1-18l-2 4-3 11-2 13a14 14 0 0 1-1 6l-2 11a67 67 0 0 1 0 9l-2 18c0 3-2 5-3 4v-23a7112 7112 0 0 0 3-25 37 37 0 0 0 1-8 34 34 0 0 1 2-10l1-4c-1-1-5 4-6 6a17 17 0 0 0-1 6 8 8 0 0 1-2 6l-1 3a2 2 0 0 1 0 2v3a10 10 0 0 1 0 6 35 35 0 0 0-1 4l-1 32a1560 1560 0 0 0 1 66c0 2 0 2 1 1 2-1 3-6 2-9a44 44 0 0 1 0-8 870 870 0 0 0 1-27c0-4 1-8 3-6a369 369 0 0 1 1 52 141 141 0 0 1 1 16l1 11v3c-2 2-2 1-3-4a145 145 0 0 0-3-16 20 20 0 0 1 0-6l-1-4c-1 0-3 3-2 4a18 18 0 0 1-1 5l-1 5a2 2 0 0 1 1 2 2 2 0 0 0 0 2 5 5 0 0 1 2 3 23 23 0 0 0 1 6 29 29 0 0 1 2 8c0 3 0 5 2 6l1 2v-4l1-5h1l2 5a32 32 0 0 1 2 7 8 8 0 0 0 1 3l3 11a10 10 0 0 0 1 3 8 8 0 0 1 1 3 7 7 0 0 0 1 4l2 2 1-2 1-2 1 1v5c-2 0-3 3-2 7 0 4 1 5 2 5v-5l1-5c2-1 3 2 4 8v19a37 37 0 0 0 0 7l-2 22a40 40 0 0 1-1 8c-1 0-2 5-2 11l-1 6v5c2 1 3 1 7-1l4-2 1-5v-8a5 5 0 0 1 1-4l1-7c-1-8 1-15 3-8 0 4 1 5 4 2a7 7 0 0 0 1-2c0-2 10-13 13-14a30 30 0 0 0 5-4c5-3 13-7 17-7a14 14 0 0 0 4-1c3-1 12 0 13 1a15 15 0 0 0 5 2c4 0 8 1 14 4a26 26 0 0 0 5 2c3 0 4 0 5-2v-3c-2-1-2-5-1-6l1-3c0-3 2-11 3-10a22 22 0 0 1 0 5l1 6c1 1 2 0 2-2l2-9 1 5v7l1-2a6 6 0 0 1 2-5 4 4 0 0 0 1-2l3-8a4 4 0 0 0 0-2c0-2 2-3 2-1a3 3 0 0 1-1 2v2l-2 8c-1 2 0 6 1 7a3 3 0 0 1 2 1l1 1v-5l2-7a8 8 0 0 1 1-4h2a18 18 0 0 1 0 4 10 10 0 0 0 1 4l-1 3-1 2 3 2c2 2 3 2 5 1s3-1 4-4l1-3c1 0 2 3 1 5l3 8c1 0 2-3 2-7l1-3 2 10-2 4c-2 0-2 0-1 1a5 5 0 0 1 2 3 8 8 0 0 0 1 3 8 8 0 0 1 2 4 7 7 0 0 0 1 3 17 17 0 0 1 2 5 15 15 0 0 0 1 4 55 55 0 0 1 3 8c1 5 2 7 4 7a3 3 0 0 1 1 3c0 2 2 2 3 1 1-2 2-2 3-1 2 1 2 1 2-1s2-4 4-4l1-1a10 10 0 0 1 2-4 35 35 0 0 0 1-4c1-2 3-2 4 1 0 2 3 1 5-1 1-2 1-1-3-9a10 10 0 0 1-2-5 8 8 0 0 0 0-5 5 5 0 0 1-1-2 12 12 0 0 0-2-3 25 25 0 0 1-2-4h-2a2 2 0 0 1-3-2 8 8 0 0 0-2-3l-1-3a13 13 0 0 0 1-5c0-5 1-7 3-7l2-2c2-3 3-3 3-1 1 4 1 5 2 4 2-2 3-1 3 4l2 13c1 2 2 0 1-6s0-11 1-11l1 2a23 23 0 0 0 0 3l1 7 2 9a7 7 0 0 1 2 3 17 17 0 0 0 1 5 19 19 0 0 1 2 5l4 7c2 1 3 5 2 5l-5-7c-1-3-4-6-5-5a8 8 0 0 0 0 4c1 3 1 3-1 3-2 1-2 3 1 7s4 5 6 4c1-1 7 0 9 2a11 11 0 0 1 2 4 19 19 0 0 0 2 4l10 5a32 32 0 0 1 4 1l2-4a177 177 0 0 1 3-14 17 17 0 0 0 1-5 18 18 0 0 1 1-5 22 22 0 0 0 1-6c1-6 3-9 6-11a9 9 0 0 0 3-2c1-2 7-6 11-8a41 41 0 0 0 4-3l8-3a7 7 0 0 0 4-1c1-1 2-2 5-1l4-1 4-2c2 0 3 1 6 4a34 34 0 0 1 5 7c1 4 3 5 4 4h26c2 0 2 1 1 3s1 3 3 3a3 3 0 0 1 3 1h1l-2-2c-3-3-2-4 3-4l6 1a8 8 0 0 1 4 1l3 2c2-1 3 2 2 3 0 1-1 1-3-1s-3-2-7-1c-5 0-5 0-4 2h2a5 5 0 0 1 4 1 7 7 0 0 0 3 1l3 1 1 2 5 7 1 2c2 1 3 5 4 9 1 11 1 13 4 13 2 0 2-2 1-4-1-3 0-6 2-6l1 3a35 35 0 0 0 1 11c1 2 2 2 5 2s3 0 4-2l1-4a40 40 0 0 1-2-7 23 23 0 0 0-1-6 15 15 0 0 1-1-5 15 15 0 0 0-2-5l-3-6a17 17 0 0 1-2-5 12 12 0 0 0-2-5 15 15 0 0 1-2-3 10 10 0 0 0-1-3 14 14 0 0 1-1-5l-2-9c-2-2-3-7-2-7a4 4 0 0 0 0-3 5 5 0 0 1 1-2c2-2 3-7 3-9l-2-3c-3-2-3-3-2-8l1-8a26 26 0 0 1 2-6 17 17 0 0 0 0-5l2-21a28 28 0 0 0 0-6 274 274 0 0 1-2-28 18 18 0 0 1-1-6c0-5-1-10-3-10-1-1-2 6-1 7s2 9 2 25a1352 1352 0 0 0 0 33 71 71 0 0 1-1 7v8c1 3-1 6-4 6-2 1-3 0-4-1v-3l-2 2c-2 2-3 2-4 1a3 3 0 0 1 0-2l-1-3c-2 0-3 2-2 3 0 2-2 3-3 2a232 232 0 0 1-1-35c-3 0-4 7-4 24-1 11-1 15-3 15l-2-9-1-10v-7l-1 3c-1 3-2 6-2 13 0 10 0 13-2 13l-1-3c-1-4-3-8-5-7-2 0-2-2-2-10l1-8 2-2c2 0 2 1 1 3v5a11 11 0 0 0 0 4c0 3 1 3 1 2 2-1 3-5 3-11s1-8 4-8c1 1 1 0 2-1a7 7 0 0 1 1-4c2-1 3-6 3-8a12 12 0 0 1 0-5c2-6 4-8 5-4 1 2 1 2 1-1 0-4 5-10 5-6l1 1v-4a13 13 0 0 0 2-4c1-4 3-5 4-3l1 10a91 91 0 0 0 0 13v8a37 37 0 0 0-1 8 23 23 0 0 1 0 7c-2 3-2 12 0 13s1 1 2-8l2-14a26 26 0 0 0 1-6 19 19 0 0 1 1-5 4 4 0 0 0 0-3 1 1 0 0 1 0-1v-4l-1-17a56 56 0 0 1 0-8v-5l-1-13v-9a2 2 0 0 1 2 0c1 1 1 0 1-1a9 9 0 0 0 0-4v-8c1 0 2 2 2 6a63 63 0 0 0 3 9 46 46 0 0 1 2 9 69 69 0 0 0 1 9 98 98 0 0 1 2 14l1 13 1 7a5 5 0 0 0 0 5v3l-1 9v8a20 20 0 0 1-1 4v9c0 4-1 6-2 7a12 12 0 0 0-1 4c0 3 0 4 1 3l3-6a55 55 0 0 1 1-8l1-7v-6c1-1 2-3 2-7l1-16v-20a68 68 0 0 1-1-9 13 13 0 0 0-1-4l-1-9a3 3 0 0 0-1-2c-1-1-2-5-2-12a23 23 0 0 0-1-4l-2-5-2-8c-2-7-3-11-2-12 2-2 4-2 5 1l3 6a19 19 0 0 1 1 6c0 6 1 7 3 9 3 1 4 7 1 8l-1 2a4 4 0 0 1 0 2 3 3 0 0 0 1 3l3 10 2 9a32 32 0 0 1 0 6v8a595 595 0 0 1 0 45 3 3 0 0 1 0-3c2-1 2-5 3-14l1-10v-6l1-3 1 2a6 6 0 0 1 1 4l1 2 1-4a17 17 0 0 1 1-5 3 3 0 0 0-1-3v-6a3 3 0 0 0 1-2l1-1 2-1a13 13 0 0 1 3-3c2-2 1-3-1-2-3 1-4 0-4-3a11 11 0 0 0-2-4c-2-2-2-3-1-4a2 2 0 0 1 1-1 3 3 0 0 0 3 0c2-1 0-3-3-4h-3v-3a7 7 0 0 1 3-6c2-2 2-3 2-5s-1-2-3-3a12 12 0 0 0-4 0c-1 1-2 0-2-2s1-3 3-5c3-2 3-5 1-4a3 3 0 0 1-3-1v-3a16 16 0 0 1 3-3c1-1 1-2-1-4-2-3-1-4 3-4h11c3 1 4 2 2 4-2 1-2 4 0 4a6 6 0 0 1 3 1c2 2 1 5-2 7-3 1-4 4-3 5h4a17 17 0 0 1 3-1l4 10c0 5-1 7-3 7a4 4 0 0 0-3 1 8 8 0 0 1-3 1c-2 0-3 1-3 2l4 1h3v3l1 4c2 1 2 1 0 3s-2 2 1 3 4 1 3 2a1 1 0 0 0 0 2c1 1 0 3-1 7l-3 1a49 49 0 0 0-6 2c-3 1-4 1-5-1-2-1-2-1-1 1 2 4 3 4 6 4 5-1 7 1 4 3s-4 3-5 1l-1 1c-2 1-2 2 0 1a2 2 0 0 1 2 1 3 3 0 0 0 2 2l4 4-2 1c-1 0-3 3-3 5-2 3-2 4 0 3h2c1 1 1 2 4 1s4 0 1 3a19 19 0 0 1-3 2 30 30 0 0 0-4 3l-5 3c-2 0-2 1 0 2l1 2a6 6 0 0 0-1 3 3 3 0 0 1 0 1h-2c-1-1-2-1-4 1-3 2-4 3-4 5l-5 14a27 27 0 0 0-3 5 27 27 0 0 1-3 6l-2 5-1 5v3c1 0 2-1 2-4 1-5 3-5 4-1 0 4 0 4 1 2s3-3 4-2v5l-1 5-1 3a7 7 0 0 0-1 4c1 3 1 3 3 3s2 0 2 2a9 9 0 0 1 1 3c-1 1 0 2 1 1 2 0 1 0 3-5 1-4 2-5 2-3a14 14 0 0 1-1 5c-2 3-2 10 0 11l12-2c1-2-1-8-4-11-2-1-2-2-1-3a3 3 0 0 0 0-3 2 2 0 0 1 1-1 2 2 0 0 0 0-2 4 4 0 0 1 1-3 39 39 0 0 0 2-5c0-3 1-4 3-4s4-2 4-3a17 17 0 0 0-2-4c-1-4-1-5 1-9 3-7 6-8 7-2 0 2 2 5 3 5a10 10 0 0 0 4-2c2-1 2-1 3-8 0-7 1-8 5-11 2-2 3-4 3-8 0-2 2-5 4-5a2 2 0 0 0 2 0h6c4 2 8 1 8-2a8 8 0 0 1 1-4v-3a6 6 0 0 1-1-3 6 6 0 0 0-2-3 2 2 0 0 1 0-3v-3a4 4 0 0 1-1-2l-1-2-1 7v10c1 4 1 4-2 3-2-1-3-2-4-15v-21a27 27 0 0 0-1-7 49 49 0 0 1-1-6c0-2-2-4-3-3v15l1 17 1 21-3 3c-3 0-3-2-3-13l-1-11v-17a91 91 0 0 0-1-13l-1-9a20 20 0 0 0-1-5 38 38 0 0 1-1-7 34 34 0 0 0-1-7 9 9 0 0 1-1-3l-1-7a2 2 0 0 1 0-2 3 3 0 0 0 0-3l-2-9-2-9a8 8 0 0 1-2-3 3 3 0 0 0-1-2v-3c1-2 0-4-2-3-2 0-2 0-4-5a56 56 0 0 1-3-8 7 7 0 0 0-2-3c-1-1-1-1-3 1l-1 1-2-2a8 8 0 0 1-1-4 3 3 0 0 0-1-2l-4-8a4 4 0 0 0-1-2 10 10 0 0 1-1-2 2 2 0 0 0-2-1v3l-1 4-3-3-2-2a3 3 0 0 1-2-3 8 8 0 0 0-2-4 9 9 0 0 1-3-4l-6-9c-1 0-1 4 1 6l1 11-5-5a24 24 0 0 0-2-5l-1-3v-4a12 12 0 0 1-1-3 17 17 0 0 0-2-3l-1-4-1-1-1-2-3-6-2 4a53 53 0 0 1 3 14l2 9-2 1a3 3 0 0 1-1-3 7 7 0 0 0-1-3 19 19 0 0 1-1-5 21 21 0 0 0-1-7 11 11 0 0 1-1-3 3 3 0 0 0-2-2 4 4 0 0 1-1-3l-2-6c-3 0-4 3-2 5a3 3 0 0 1 1 3l1 7a29 29 0 0 1 1 8 27 27 0 0 0 1 7c1 4 1 6-1 6-1 0-2-4-2-9a64 64 0 0 0-1-9 35 35 0 0 1-2-6 3 3 0 0 0-1-2l-1-4c-1-4-3-10-5-9v7l1 10c-1 0-3-3-3-5a21 21 0 0 0-2-6 37 37 0 0 1-2-4 23 23 0 0 0-2-4 15 15 0 0 1-2-4l-4-4 1 8c1 1 0 6-1 6l-1-3a10 10 0 0 0-1-3 10 10 0 0 1-1-4c0-3 0-3-2-3-3 1-4 2-2 6a11 11 0 0 1 1 6v4a3 3 0 0 1 1 2 4 4 0 0 0 1 3s2 14 1 16a4 4 0 0 0 1 2v2l-2-1a4 4 0 0 0-1-2l-1-5-1-6-1-4a44 44 0 0 0-1-5 7 7 0 0 1 0-3l-1-3a15 15 0 0 1-1-5 10 10 0 0 0-2-5l-3-8c0-1-3-5-4-4v2a9 9 0 0 1 1 4 29 29 0 0 0 2 10 4 4 0 0 1 0 2l1 7c2 6 2 15 1 15l-2-7a142 142 0 0 0-6-25c-2-6-5-11-7-10l1 2v5l1 3a3 3 0 0 1 1 2 11 11 0 0 0 1 4l1 11a121 121 0 0 0 1 12l1 5c-2 2-4-2-4-9a25 25 0 0 0-1-6 11 11 0 0 1-1-4 18 18 0 0 0-1-5 54 54 0 0 1-2-8c-1-4-3-10-5-11-3 0-2 6 1 12l1 11 1 9c1 1 0 5-1 5s-4-9-4-14a12 12 0 0 0-1-5 19 19 0 0 1-2-5l-2-7c-1-6-5-13-7-12l2 12a64 64 0 0 1 2 9 3656 3656 0 0 0 1 16c-2 1-3-1-2-3a13 13 0 0 0-1-6l-2-7a24 24 0 0 0-2-6v-1l-2-5-1-3c0-4-1-5-3-5s-2 4-1 7a53 53 0 0 1 1 6 8 8 0 0 0 2 4l1 4 1 5-1 4-4-7a93 93 0 0 0-2-11 14 14 0 0 1 0-2 38 38 0 0 0-2-5 24 24 0 0 1-1-5l-1-1c-2 1-2 3-1 8a40 40 0 0 1 1 5 10 10 0 0 0 0 3l2 12a1 1 0 0 1-2 1c-1 0-2-3-2-10l-1-5-1-4-1-4a1 1 0 0 1 0-1l-6-7 1 7 1 14v8a32 32 0 0 1 0 4c0 4-1 4-2-1-1-8-2-13-1-16a10 10 0 0 0-1-5 7 7 0 0 1-2-3l-3-11c-1-1-2 3-2 7 1 19 1 27-1 27v-1a2 2 0 0 0 0-2 4 4 0 0 1-1-2 89 89 0 0 0-1-11 28 28 0 0 1-1-4c0-5-3-17-4-17-2 0-3 8-1 10l1 10v23a1 1 0 0 1-1 3l-1-2a45 45 0 0 0-1-6 52 52 0 0 1-1-8 17 17 0 0 0-1-6v-3l-3-15a14 14 0 0 1-2-5c0-3-1-2-2 1a8 8 0 0 0 0 6v5l2 16-1 5-1-2v-8a54 54 0 0 1-1-8l-1-4a2 2 0 0 1-1-3 6 6 0 0 0-1-3l-2-2v9a324 324 0 0 1-2 35l-1-9-1-11-1-12-1-10a11 11 0 0 1-2-3c-1-3-2-3-3-1v22l1 14v10a1 1 0 0 1 0 1c-2 2-3 0-3-8v-8l-1-8c-1-21-2-26-4-18l-2 5a6 6 0 0 0 1 3v3c-2 1-3-1-3-5 0-5-1-10-2-9l-2 4-2 6a6 6 0 0 0 0 4 5 5 0 0 1 0 4v3c1 1 0 2-1 4a14 14 0 0 0 0 5c1 1 0 5-1 5l-1-16c0-16-1-21-3-21l-1 7a280 280 0 0 1-3 27c1 2 0 9-2 13-1 2-1 2-2 1a4 4 0 0 1 0-3v-21a5 5 0 0 1 0-4 8 8 0 0 0 0-5v-14l-1-2-3 8a5 5 0 0 1 0 3 16 16 0 0 0-1 4c0 9-1 15-2 16s-1-1-1-13v-20a3 3 0 0 1 1-2 166 166 0 0 1 34-1l25-1c25 0 36 1 38 2a14 14 0 0 0 5 0 18 18 0 0 1 6 1h4c1-1 3 0 5 2l5 1a9 9 0 0 1 4 0 14 14 0 0 0 3 1 86 86 0 0 1 14 2 16 16 0 0 0 3 1 3 3 0 0 1 3 4v1l1-1 3-1 4 2 4 1c2 0 3 0 5 2a6 6 0 0 0 2 2 6 6 0 0 1 3 1 4 4 0 0 0 4 2l2 1c-1 2 1 3 2 2s3 0 3 2 1 3 2 0c1-2 2-1 2 3 1 5 1 5 2 4a4 4 0 0 0 2-3 1 1 0 0 1 1-1 3 3 0 0 1 2 3 3 3 0 0 0 2 3 3 3 0 0 1 1 2c0 2 2 3 4 2 3-2 10 3 10 7l1 2 1 2c0 2 1 1 2 2a4 4 0 0 1 3 1l2 1c3-1 5 1 4 3a3 3 0 0 1-3 0c-1 0-1 1 1 3s3 2 4 0c1-1 2-1 2 1 0 1 1 2 4 2 2 1 3 1 5 5 1 2 2 4 1 5l3 4v-2c0-2 1-1 3 1a9 9 0 0 1 2 7v2a3 3 0 0 1 1 3c0 1 1 2 2 1a2 2 0 0 0-1-2 1 1 0 0 1 0-2c2-2 4-1 4 2l3 4 2 4v2c2 0 5 3 6 5a3 3 0 0 1-1 3v1l2 1 1 2c2 0 5 6 3 7s0 1 2 2a6 6 0 0 1 5 6l2 6c3 4 5 14 5 19l1 3v2c-1 1-1 2 1 2s4 3 4 6a12 12 0 0 0 1 4v5c1 0 3 5 3 9a10 10 0 0 0 1 5 2 2 0 0 1 1 2 2 2 0 0 0 0 2l2 12a5 5 0 0 0 1 3c1 1 0 8-1 9v1c2 1 3 11 3 16a26 26 0 0 1-2 6v4l-1 3 1 2a4 4 0 0 0 1 2c1 1 1 1-1 2a4 4 0 0 0-1 3h2v3c-1 3 0 3 1 4h3l-4 9h-3l-1-1c-1 1 1 4 2 3v6l-2 1c-1 0 0 0 0 0l1 1 1 1c1 2 0 7-1 9a40 40 0 0 0-1 6v7c2-1 3-1 5 1a4 4 0 0 1 2 4l-2 9-1 7a3 3 0 0 0-1 2l-1 2-1-2c0-1 0-2-1-1s-1 0-2-1l-2-1 1 1c1 0 2 2 1 4l2 1c2 1 2 2 1 4a6 6 0 0 0-1 3l-1 2-1 2a4 4 0 0 1-1 4 12 12 0 0 0-2 5 8 8 0 0 1-1 4 4 4 0 0 0-2 2 26 26 0 0 1-2 6 53 53 0 0 0-3 10c-1 5-2 7-4 7-1 0-2 2-1 3s0 10-1 11a5 5 0 0 0-1 3 3 3 0 0 1 0 2v7l1 5v1a2 2 0 0 0 1 2v5l1 6v3c-1 1 0 2 1 3v9c0 8 0 11-2 13l-4 5-5 7-6 7a58 58 0 0 1-5 7 14 14 0 0 0-3 3 9 9 0 0 1-2 3 10 10 0 0 0-2 5 10 10 0 0 1-1 5l-2 8c1 1 1 1 3-1l9-4 2-1a37 37 0 0 1 5-2 15 15 0 0 0 4-3 4 4 0 0 1 2-2 9 9 0 0 0 4-1 32 32 0 0 1 5-3 59 59 0 0 0 13-7 62 62 0 0 1 7-4l10-6a45 45 0 0 1 5-4 35 35 0 0 0 4-3l6-4a29 29 0 0 0 6-5l4-8a8 8 0 0 1 2-3c4-4 6-8 6-9a8 8 0 0 1 2-2l4-4a45 45 0 0 0 3-5 20 20 0 0 1 3-4c3-2 11-3 25-3s19-1 21-3a3 3 0 0 1 2-1 11 11 0 0 0 3-3l4-2a9 9 0 0 0 4-2 9 9 0 0 1 3-1l5-3c4-4 10-7 16-8 4-1 4-1 7 1a21 21 0 0 1 5 3 3 3 0 0 0 2 1 2 2 0 0 1 2 0c0 2 6 4 9 4s8 2 8 4c1 2-5 8-8 8l-3 2-3 3c-3 3-4 4-1 6a8 8 0 0 1 2 5 56 56 0 0 0 0 6c1 2 0 3-1 4-2 1-4 2-4 0l-2-1a25 25 0 0 1-5-1l-4-3c0-2-1-3-1 0 0 4-2 7-6 9-2 0-2 1-2 2l-2 2a10 10 0 0 0-3 1c-1 1-3 1-3-1l-2 1a26 26 0 0 0-2 3l1 2a4 4 0 0 1-1 4 9 9 0 0 0-1 4 10 10 0 0 1-1 5c-1 2-1 2-3 2a2 2 0 0 0-2 0 3 3 0 0 0-1 2 1 1 0 0 1 0 2 2 2 0 0 0-1 1l-2 3a7 7 0 0 0-3 2c-1 3-2 4-3 3h-5l2-5a2 2 0 0 0 1-2 6 6 0 0 1 1-3l1-3c-1 0-4 4-4 6s-14 12-18 12a43 43 0 0 0-7 1c-5 1-19 2-20 0a3 3 0 0 0-2 0 11 11 0 0 1-4-1 4 4 0 0 0-4-1c-4 2-6-2-3-5h4l7 1 5 1h4a19 19 0 0 1 6 1h7a32 32 0 0 0 8-5c4-3 11-11 12-14v-16c-1-1 2-3 6-5h3v2c-2 1-1 2 0 2l2-1 2-2 16-5a35 35 0 0 0 7-3c2-1 2-2 1-4s-1-2 2-7c4-6 5-7 9-8a11 11 0 0 0 4-2 3 3 0 0 1 1-1 15 15 0 0 0 4-2l5-3a5 5 0 0 0 2-2l-3-1c-3 0-4-1-5-2a36 36 0 0 0-6-3c-5-3-8-2-13 0a13 13 0 0 1-4 2 4 4 0 0 0-3 2 36 36 0 0 1-5 4l-5 5a4 4 0 0 1-2 2l-5 4-11 10a5 5 0 0 0-3 2c-2 2-8 3-9 2a7 7 0 0 1-1-2c0-2 0-2-2-2a43 43 0 0 1-5 0l-4 1a4 4 0 0 1-2 1 5 5 0 0 0-3 2c-2 1-5 2-4 0l5-3 1-1c1-1 1-2-1-2l-6 3-1 1-4 3c-2 3-3 4-3 7a7 7 0 0 1-3 5l-1 2-3 4a21 21 0 0 0-4 5l-7 6a17 17 0 0 0-3 2l-10 9a9 9 0 0 1-3 2 4 4 0 0 0-3 1 3 3 0 0 1-3 1c-2 0-3 0-5 2a44 44 0 0 1-7 4l-4 3c-3 1-7 2-8 1a1 1 0 0 0-2 1l-1 2a6 6 0 0 0-3 2c-1 1-2 2-3 1s-2 1-3 2l-4 1c-1-1-2 1-4 3l-4 2a2 2 0 0 0-1 1 3 3 0 0 1-2 1c-3 0-7 1-9 3a8 8 0 0 1-4 2c-3 0-3 0-4 2s-2 3-5 4a22 22 0 0 0-7 5 8 8 0 0 1-5 3 8 8 0 0 0-5 2 15 15 0 0 1-6 4 26 26 0 0 0-6 3 8 8 0 0 1-3 1 7 7 0 0 0-4 2 7 7 0 0 1-4 1 10 10 0 0 0-4 2c-2 1-3 2-4 1s-1-1-2 1-2 1-3 1a3 3 0 0 0-3 0 7 7 0 0 1-3 2 12 12 0 0 0-5 2 22 22 0 0 1-4 2l-9 5a2 2 0 0 1-2 1 2 2 0 0 0-2 2h1a2 2 0 0 1 2 0c1 1-3 5-6 6l-8 8h2c3 0 5 2 3 4a3 3 0 0 0-1 3l4 1h4a4 4 0 0 1-2 3c-3 1-3 2 0 2 2-1 4 0 5 3 1 2 1 2 4 2a12 12 0 0 0 5-2l9-4a6 6 0 0 0 4-2 18 18 0 0 1 5-3 26 26 0 0 0 5-2 7 7 0 0 1 4-1 3 3 0 0 0 2-1l4-2a26 26 0 0 0 7-3 8 8 0 0 1 3-1 2 2 0 0 0 2-1l5-3 6-3a648 648 0 0 1 43-22 4 4 0 0 1 3-1 4 4 0 0 0 2-1 27 27 0 0 1 6-3 56 56 0 0 0 6-3 24 24 0 0 1 4-2 24 24 0 0 0 5-2 81 81 0 0 1 8-4l10-6a31 31 0 0 1 6-3 20 20 0 0 0 5-2l5-4a2 2 0 0 0 2-2c0-2-1-2-3 0-1 2-3 2-2 1l-1-2c-2 0-1-2 1-2a2 2 0 0 0 1-1 2 2 0 0 1 2-1 2 2 0 0 0 2-1l10-3a23 23 0 0 0 6-2 21 21 0 0 1 7-1h9a22 22 0 0 0 7-2 4 4 0 0 1 3 0l11-3a2 2 0 0 1 1-1 5 5 0 0 0 3-1l5-4c2 0-3 6-6 7a2 2 0 0 0-1 2l1 1c0-2 1-2 1 0a1 1 0 0 1-1 1 7 7 0 0 0-2 1c-2 0-2 0-1 1 2 2 3 2 4 0a3 3 0 0 1 2-1 3 3 0 0 0 2-2l2-1c2 2 4 1 6-2a6 6 0 0 0 1-3c-1-1 6-8 9-9 3-2 4-2 4-1h3c1 2 6 1 9-1a12 12 0 0 1 5-1 4 4 0 0 0 2 0l4-1h3l-2 2c-1 1-1 1 1 2l6-1a26 26 0 0 1 10-1c7 0 8 0 7 2-2 2 0 3 5 3h6c1-1 1-1 7 3 5 3 6 4 8 3 1 0 2 0 3 3l2 2c2 0 11 8 11 9l-1 1a2 2 0 0 0-1 2c0 1 1 1 1-1a2 2 0 0 1 2-1c3 0 3-1 1-3a8 8 0 0 1-2-4 1 1 0 0 0-1 0l-7-8h2c3 0 6 2 6 3l4 2-6-9-4-4-1-1-1-1c0-1 4 0 7 3l4 1c1-1 1-1-1-2l-4-4-9-7c-3-3-7-4-7-4 0-2 2-2 3 0a7 7 0 0 0 4 2 8 8 0 0 1 2 0l-1-6-7-2-4-3-4-2a4 4 0 0 1-3-1 6 6 0 0 0-4-2 5 5 0 0 1-3-1 4 4 0 0 0-2-2 7 7 0 0 1-3-1 7 7 0 0 0-3-2 4 4 0 0 1-2-1c-1-1-1-1 1-4 2-2 2-3 4-1a6 6 0 0 0 3 1 3 3 0 0 1 2 1 4 4 0 0 0 3 1 8 8 0 0 1 4 2c2 2 8 4 14 4l5 1c1 2 3 1 5-1a5 5 0 0 1 4-2l2-1c1-3 6-5 16-6l10-2c1-1 11 5 15 8a8 8 0 0 0 4 2l3 3 4 4a6 6 0 0 1 1 3 4 4 0 0 0 2 2 5 5 0 0 1 1 2l5 6 2 5a26 26 0 0 0 5 6 6 6 0 0 1 2 3 9 9 0 0 0 1 4 25 25 0 0 1 2 6 27 27 0 0 0 3 6c2 4 4 14 4 24 1 7-2 21-4 23a4 4 0 0 0-1 2c0 3-3 8-7 13s-6 5-6 2l-2 2c-1 2-9 5-19 7l-5 2-5-1a17 17 0 0 0-3-1 123 123 0 0 1-13-5 6 6 0 0 0-3-1c-2 1-2 0-4-2-3-4-3-4-4-9l-3-3-1-3a6 6 0 0 0-1-3v-6a12 12 0 0 1-3-9l-1-5a7 7 0 0 1-2-2l-3-4-3-4-3-2a11 11 0 0 1-3-3l-7-5-7-4c0-1-2-3-4-3a14 14 0 0 1-5-2 16 16 0 0 0-6-1c-3 0-3-1-3-2s-1-1-3-1a11 11 0 0 0-4 1 6 6 0 0 1-4 1 4 4 0 0 0-4 1c-2 2-5 2-4 1l-1-1-1 1c0 2-3 3-7 4l-6 1c-1 2-1 2-3 1s-3-1-3 1-1 2-2 3a4 4 0 0 1-2 0c-1-1-1 0-2 1l-7 3a3 3 0 0 0-2 1c-2 1-5 2-6 1a2 2 0 0 0-2-1c-1 0-6 4-5 5 2 0 0 2-3 3a10 10 0 0 0-4 2 5 5 0 0 1-4 1 9 9 0 0 0-4 1 14 14 0 0 1-5 2 7 7 0 0 0-5 2c-1 1-2 2-3 1a2 2 0 0 0-2 1l-10 6c-1 0-1-4 1-7a5 5 0 0 0 0-3l-6 4-2 2-3 3 6-1c1-1 2 1 1 3-2 2-4 2-6 1-1-2-2-1-1 0s0 3-2 3a2 2 0 0 0-2 1c0 1-3 1-3-1 0-1-2-1-3 1a3 3 0 0 1-1 2 5 5 0 0 0-2 1l-3 1c-2-1-3 0-4 2l-3 2a8 8 0 0 0-3 2l-17 7-8 5h-5c-3-1-4 0-4 1l-4 1-4 1-4 1c-3 0-4 1-2 2 1 1 1 4-1 4l-1-1v-1a2 2 0 0 0-1 2c0 3-2 3-8 3h-6l-3 4c-2 2-3 3-6 3s-5 2-5 3l-1 1-2 1c0 1-3 3-4 2a1 1 0 0 1-1-2l-3 1c-1 1-2 2-1 3l-1 1c0-2-2-1-3 0l-7 5a11 11 0 0 0-3 2c-3 2-6 2-6 0l-2 1c-3 1-3 2-1 2l-3 2c-4 3-5 3-6 1h-1v1c1 0 1 2-1 3h-6l-1 1-3 3c-3 3-4 3-6 3l-3 1a7 7 0 0 1-5 2c-3 1-4 1-6 5a20 20 0 0 0-3 6 7 7 0 0 1-2 3v4a9 9 0 0 1-1 3c-1 1 1 5 3 5a2 2 0 0 1 1 1 2 2 0 0 0 2 1l6 3a42 42 0 0 0 7 2 10 10 0 0 1 3 1 7 7 0 0 0 3 1 1 1 0 0 1 1 1l2 1c2 0 3 0 5 2l6 3c2 0 2 0 2 2l3 2h6a21 21 0 0 0 4 3l6 4 1 2 1-1c1-1 1-1 5 1a22 22 0 0 0 6 2 7 7 0 0 1 3 1 7 7 0 0 0 3 2l11 5a9 9 0 0 0 4 2 3 3 0 0 1 2 1 2 2 0 0 0 2 1l15 7 3 2 6 2 7 3a4 4 0 0 1 3 1c1 1 9 4 13 4a26 26 0 0 1 5 2 14 14 0 0 0 4 1 3 3 0 0 1 2 1 2 2 0 0 0 3 1c1-1 2 0 3 1a6 6 0 0 0 4 2l3 1a2 2 0 0 0 1 1 22 22 0 0 1 6 1 44 44 0 0 0 9 3 32 32 0 0 1 7 2 42 42 0 0 0 7 3 22 22 0 0 1 6 2 4 4 0 0 0 2 1l7 3 2 1a2 2 0 0 1 2 0 9 9 0 0 0 3 2 37 37 0 0 1 10 3l15 4 7 1 2 1a7 7 0 0 1 4 1 10 10 0 0 0 4 1l6 2 6 1 6 2c1 0 1 2 2 1h9l25 1 23 1a2 2 0 0 0 2 0l7-1c6 0 6 0 9 3a11 11 0 0 0 3 2 12 12 0 0 1 3 2l4 2 8 5c4 3 8 4 9 4 2 0 7 4 7 5a10 10 0 0 1-3 3l-2 3a3 3 0 0 1-1 3c-2 0-2 1-1 1v8a14 14 0 0 0-2 3l-3 6a95 95 0 0 0-4 9l-4 14-2 2a23 23 0 0 0-3 5 13 13 0 0 1-4 4 3 3 0 0 0-1 3 5 5 0 0 1-1 3 4 4 0 0 0-1 2l-4 7a4 4 0 0 0-1 2l-5 1h-5l-2-1 3-1c5 1 6-1 3-3a8 8 0 0 0-3-2 12 12 0 0 1-4-1l-1-2a4 4 0 0 1 3 0c2 0 7 0 7-2a3 3 0 0 0-1-1v-1c5-1 6-1 5-3-1-1 0-2 2-2a4 4 0 0 0 3-1c1-2 0-9-1-11-1-1-1-1 1-3 2-1 1-2-1-2a2 2 0 0 1-2-1 2 2 0 0 0-1-1 5 5 0 0 1-3-1c-1-2-7-2-8-1l2 1a10 10 0 0 1 3 2v2a17 17 0 0 1-5-2l-15-4c-1-1-2 0-3 1a4 4 0 0 1-3 2l-4 2 3 2c2 2 3 2 2 4 0 2 0 3 2 4v3c-2 2-1 3 3 5l4 2 2 2c3 1 4 2 2 4h-5a16 16 0 0 1-4-1 6 6 0 0 0-3-1 20 20 0 0 1-6-1l-4-1 5 4a20 20 0 0 1 4 2c4 3 3 4-1 2h-5c-2 1-2 1-1 2 2 1 1 1-1 2-3 0-3 1-2 2a3 3 0 0 0 2 1 5 5 0 0 1 2 1v2c-1 1-2 2 0 3l1 3c-1 3 2 6 6 6a11 11 0 0 1 4 1c2 1 4 0 4-2s1-2 3-1c3 1 4 1 4-2-1-3 0-3 2-3 4-1 6 3 2 5l-2 1-2 1a4 4 0 0 0-2 1 3 3 0 0 1-2 1c-2 0-3 3-3 6-1 3-2 4-5 3a12 12 0 0 0-5 0c-4 0-7-1-12-5l-4-3c-1 0-4-3-5-7l-2-4a3 3 0 0 1-2-2c0-1-1-2-3-2a6 6 0 0 1-3-2 64 64 0 0 0-8-6l-7-5a2 2 0 0 0-1-2l-6-4-5-5-2-1a4 4 0 0 0-3-2 3 3 0 0 1-2-1 3 3 0 0 0-2-1l-5-3c-2-3-13-8-15-7l-4-2a8 8 0 0 0-2-2 18 18 0 0 1-4-1 17 17 0 0 0-4-2l-3-2c-2-2-3-3-4-2a4 4 0 0 1-3-1 7 7 0 0 0-3-2l-8-3a72 72 0 0 0-18-8 15 15 0 0 1-3-1c-2-2-11-6-14-6a33 33 0 0 1-11-5 4 4 0 0 0-2 0 3 3 0 0 1-4-1 5 5 0 0 0-2-2 9 9 0 0 1-5-2 20 20 0 0 0-5-2 38 38 0 0 1-5-3 31 31 0 0 0-4-1 14 14 0 0 1-4-2 7 7 0 0 0-3-2 4 4 0 0 1-3-1 4 4 0 0 0-3-1l-7-3c-3-2-6-2-7-2a10 10 0 0 1-4-2l-4-1c-1 1-9-3-11-4a6 6 0 0 0-3-1 11 11 0 0 1-4-1l-12-4a14 14 0 0 1-5-2 3 3 0 0 0-3-1 2 2 0 0 1-2 0 28 28 0 0 0-4-2 36 36 0 0 1-7-4l-4-2-4-2a20 20 0 0 0-5-1 7 7 0 0 1-2-2 7 7 0 0 0-4-1 4 4 0 0 1-3-2 4 4 0 0 0-2-1 5 5 0 0 1-3-1l-13-5a17 17 0 0 1-4-3l-3-1c-1 1-5-1-7-3a26 26 0 0 0-5-2 63 63 0 0 1-6-2 45 45 0 0 0-5-2l-8-4-5-1a18 18 0 0 1-6-3 16 16 0 0 0-5-3 20 20 0 0 1-5-2 4 4 0 0 0-4-1 3 3 0 0 1-2-1 3 3 0 0 0-3-1 12 12 0 0 1-4-2 19 19 0 0 0-6-2 7 7 0 0 1-4-3 10 10 0 0 0-8-3l-3-3c-1-2-3-3-7 0a10 10 0 0 1-6 2l-14-2h-4a5 5 0 0 1-2 1 5 5 0 0 0-3 2h-3a17 17 0 0 0-3-2c-2-1-3-1-4 1a6 6 0 0 1-3 1 2 2 0 0 0-2 1 2 2 0 0 1-2 0 1 1 0 0 0-2 1l-7 6a5 5 0 0 1-1-2l-1-2v2l-2 3a10 10 0 0 0-3 1 3 3 0 0 1-2 1s-2 0-3 2c-1 1-4 2-5 1l-3-1-3 3c-1 3-5 6-9 6a12 12 0 0 0-5 1h-2c-1-2-1-2-2 2a2 2 0 0 1-2 1 2 2 0 0 0-2 2l-2 2a21 21 0 0 0-6 2 28 28 0 0 1-5 2 4 4 0 0 0-2 1 9 9 0 0 1-3 2l-2-1c0-1-1-2-3-1-2 0-6 3-6 5s-1 3-5 5l-9 3a68 68 0 0 0-10 5 40 40 0 0 1-6 3 13 13 0 0 0-3 2c-3 1-6 1-5-1 1 0 1-1 0 0a2 2 0 0 0-1 2l-4 3c-3 1-3 0-3-1 0-2-1-2-4 0a4 4 0 0 0-2 3l-5 4-13 5a5 5 0 0 0-5 1 7 7 0 0 1-3 2 8 8 0 0 0-4 1c-2 2-2 2-3 1s-2-1-3 1-3 3-5 2a5 5 0 0 0-4 1 7 7 0 0 1-4 1l-1 2c0 1-1 2-2 1a10 10 0 0 0-3 0h-2a4 4 0 0 0-3 2c-1 2-3 1-4-1s-2-2-2 1l-1 2-2 1c1 1-1 5-2 5a15 15 0 0 0-4 0c-1 1-1 1-1-2l-1-3a2 2 0 0 0-2 1l-4 1c-3-1-3 0-3 1a8 8 0 0 1-1 4 5 5 0 0 0-1 3c1 1-7 8-9 8l-1-2-1-1-1-2a9 9 0 0 0-1-5v-4l2-2 2-2c0-1 1-2 3-2a10 10 0 0 0 4-1l3 1 2 2v-7c-1-1-4 0-4 1v2a1 1 0 0 1-1-1l-4-3-1 1c1 2-9 8-10 7h-3l-3 2a10 10 0 0 1-4 1h-2a25 25 0 0 1 0 3c0 2 0 2-2 2a14 14 0 0 1-4-1c-2-2-4 0-6 3v3a2 2 0 0 0 2 1c2-1 4 1 3 3-2 1-1 3 1 3 3 0 4 1 3 2a5 5 0 0 0 0 2c0 2-2 2-3 0a3 3 0 0 0-2-2 3 3 0 0 1-1-2l-2-1v4l1 7c-1 1-2-1-3-2-1-3-1-3-4-4a10 10 0 0 1-5-1h-2l1 3 1 1v3l1-2 3-1c3 0 5 1 4 2a9 9 0 0 1-3 1l-3 1 3 1h3a8 8 0 0 0-1 3h-3c-3 0-5 1-5 4l-2 1a33 33 0 0 0-4 2h-2l-1-3v-3a4 4 0 0 0 2-1 3 3 0 0 1 2-1l2 1c0 1-1 1 0 0s1-1 0-3a13 13 0 0 0-2-3v-1c1-2 1-2-1-3-1-2-2-2-1-3l6-2a2 2 0 0 0 2 0l1-1 3-1 3-2 1-1c0-2-1-3-3-3-3-1-6 1-9 4-2 3-5 5-7 5v-3l-1-2-2 2a5 5 0 0 1-1 2l2 8c1 4 1 5-2 6s-4-1-3-4a3 3 0 0 0-1-2l-1-1-1 3-1 2a2 2 0 0 0-1 0c-1 2-2 2-2 0l1-1c2 0 1-4-1-5l-2-1c0-1 2-4 5-5l4-3a10 10 0 0 1 4-1 10 10 0 0 0 3-2 9 9 0 0 1 5-2l4-2 3-3a6 6 0 0 0 3-2 8 8 0 0 1 4-1c4-1 7-2 8-4l6-3a100 100 0 0 0 10-3c5-3 9-3 9-2a2 2 0 0 0 2 1l-1-1c0-1 0-2 2-3a34 34 0 0 1 7-3 37 37 0 0 0 5-3 10 10 0 0 1 3-1 9 9 0 0 0 4-1 3 3 0 0 1 2-1l3-1a9 9 0 0 1 4-2 14 14 0 0 0 5-1 14 14 0 0 1 5-2 10 10 0 0 0 3-1 10 10 0 0 1 4-2h2l7-4a44 44 0 0 1 6-3l6-2 5-3a18 18 0 0 0 4-2 15 15 0 0 1 4-1l4-3c4-3 8-5 11-5l7-3 6-3c2 0 3-1 4-3l4-2a2 2 0 0 0 2-1l11-6 6-2a9 9 0 0 1 3-1 4 4 0 0 0 3-1 19 19 0 0 1 4-3l7-3c0-2-4-1-7 1a47 47 0 0 1-13 5 14 14 0 0 0-4 2h-3l3-3c3-2 3-3 0-3h-2v-6l-1-1c-2 1-3 0-3-2s2-4 3-4c2 0 5-4 4-5s-5 1-10 3c-3 2-11 4-13 4s-2-1 0-2l2-2h-4a2 2 0 0 1-2 1 7 7 0 0 0-3 1 7 7 0 0 1-3 2 7 7 0 0 0-4 1 4 4 0 0 1-3 1l-6 2a46 46 0 0 1-5 4l-17 7a4 4 0 0 1-2 1 2 2 0 0 0-2 1l-4 1a39 39 0 0 0-7 3 15 15 0 0 1-5 2 10 10 0 0 0-5 3c-2 2-4 2-6 2l-2 1a4 4 0 0 1-3 2l-8 1c-1 2-5 4-8 4l-7 2h-5c-2 3-6 5-8 5a2 2 0 0 0-2 1c-2 1-8 4-12 4h-2c-1 2-7 4-8 4-2-1-2 0-3 1 0 1-3 3-5 3a5 5 0 0 0-3 1 4 4 0 0 1-2 1 5 5 0 0 0-4 1 13 13 0 0 1-5 2 26 26 0 0 0-6 2 14 14 0 0 1-5 1 17 17 0 0 0-4 1l-14 4a13 13 0 0 0-4 1l-9 3h-2a9 9 0 0 1-6 3l-11 2-11 2a3 3 0 0 0-2 1l-10 1c-7 0-9 1-10 2h-5c-2-1-3-1-5 1a6 6 0 0 1-5 1 23 23 0 0 0-6 0h-5c-2-1-2-1-4 1s-9 1-9-1v-2l-3 2c1 1 0 1-4 1s-4 0-5 2-2 2-3 2l-2 1 4 1 4 1s-5 2-7 1c-2 0-2 1 0 3 2 1 2 1 1 2s0 4 2 5h7a3 3 0 0 0 2 1 2 2 0 0 1 2 2l1 1v-1c0-1-1-1 10-1h8c1 1-1 3-2 2l-4 2a14 14 0 0 1-4 2l-4 1-1-1c0-2-2-3-4-2a6 6 0 0 0 0 4c0 2 0 2 5 3a44 44 0 0 0 7 0l3 1c1 1 0 2-1 2-1 1-3 3-3 5l2 1c2-1 2 0 3 1 0 1 1 2 2 1s2 1 3 2a5 5 0 0 0 3 2l3 3v4a5 5 0 0 1-6 0l-2-1c0 2-6 2-6 1a3 3 0 0 1 1-2l-1-1a2 2 0 0 1-4-1 4 4 0 0 1 0-3l-4-7a3 3 0 0 1-2-2 4 4 0 0 0-2-3 11 11 0 0 1-3-4 13 13 0 0 0-3-4 9 9 0 0 1-3-4c-1-2-3-2-5 1l-3 3 1-4-1-2a5 5 0 0 1-1-4 4 4 0 0 0-1-4l-1-3a2 2 0 0 0 0-2 2 2 0 0 1 0-2l-3-5c-2 0-3-2-5-6l-1-3h-8l-9 1a3 3 0 0 1-3 1c-2-1-6 2-11 7l-4 4 2 2c1 1 2 2 3 1 2-2 2 0-1 3-2 3-3 3-2 6l1 4a2 2 0 0 1 0 1 3 3 0 0 0 2 3v2a8 8 0 0 0-1 3c0 3 0 3 2 3 2-1 3 0 3 1a6 6 0 0 1-1 3c0 1 0 2 2 2a4 4 0 0 1 2 3l1 1c2 0 3-1 2-3a1 1 0 0 1 1-1 2 2 0 0 0 1-2 4 4 0 0 1 2-3 3 3 0 0 0 1-2 6 6 0 0 1 1-2 15 15 0 0 0 3-6l3-5a30 30 0 0 0 5-4c3-4 6-5 8-4 1 1-2 3-3 3l-3 2a11 11 0 0 1-2 4 4 4 0 0 0-1 2 3 3 0 0 1-2 2c-2 2-1 3 2 3l6-3a30 30 0 0 1 5-4v7c0 2-1 1-2-1s-4-2-4 0-2 4-3 3c-1 0-2 0-2 2a6 6 0 0 1-1 3v5c1 1 0 3-2 3a2 2 0 0 1-1-2c-2-4-6-5-5-2 1 2 0 2-3 3-2 0-2 1-2 2a2 2 0 0 1-1 2v2a46 46 0 0 1 0 5c0 3 4 11 6 13a3 3 0 0 1 1 1c0 2 6 5 9 5 2 0 2 1 0 2v3a3 3 0 0 0 3 2c1 0 2 1 2 3 1 4 4 4 4 0s1-4 3-1l2 2a16 16 0 0 0 2-5 18 18 0 0 1 3-7c2-2 3-2 3-1a1 1 0 0 1-1 2 2 2 0 0 0-1 2l-2 2-1 3a2 2 0 0 1 0 3l-1 2v1a4 4 0 0 0-1 3 4 4 0 0 1 0 3c-2 2-1 6 1 11 1 1 2 1 3-1 0-3 1-4 1-1 0 5 0 6 2 7s2 2 2 3v1c1-1 4 1 4 2a3 3 0 0 0 1 1 5 5 0 0 1 1 3c0 2 1 2 2 2l3-1 2-1c2 1 3 1 4-1 0-3 2-3 4 0l1 3-2 2-4 2a3 3 0 0 0-2 2c-1 3-5 4-7 1Zm876-58h-3a4 4 0 0 0 0 2h2a4 4 0 0 0 1-2Zm-19-2a1 1 0 1 0-1 0 1 1 0 0 0 1 0Zm-3-3c1-1-1-3-4-3-2 0-2 1 0 3h4Zm14 0h-3l1 1 2-1Zm-9-6c0-1-5-6-8-7s-4-2-3-3h2l4 2 8 3c6 4 7 4 10 3s4-1 3-2c-2-1-3-3-3-5a5 5 0 0 0 0-3v-4c1-2 3-3 3-1l2 1a24 24 0 0 1 4-1l3-1a1 1 0 0 0-1-1 22 22 0 0 1-4-2l-5-1-13-2c-1-1-2-1-1-2h5l12 1 12-1c0-1-3-2-7-2a50 50 0 0 1-8-1l-6-1-13-4a12 12 0 0 0-3-1 3 3 0 0 1-2-1c-1-1-1-1 1-1l3 1h2a9 9 0 0 1 5 0c4 2 25 4 28 2s3-2-2-2l-14-1a2 2 0 0 0-3 0c-2 0-6-1-5-2s5-2 7-1h2l16-2 3-1c0-2-1-2-5-2-4 1-10-1-10-2l6-2a79 79 0 0 0 9-1 25 25 0 0 1 3-1l4 1 3-1c0-1-1-2-5-2h-12c-8 1-11 0-10-2l10-1c11 0 20-2 16-3a3 3 0 0 1-3-2c0-2 0-2-2 0-1 2-2 2-12 2h-19a12 12 0 0 0-4-1l-15-3a7 7 0 0 0-2-1 4 4 0 0 1-3-1 2 2 0 0 0-2-1 3 3 0 0 1-2 0 12 12 0 0 0-4-1 31 31 0 0 1-6-1 159 159 0 0 0-18-6 70 70 0 0 1-9-3 16 16 0 0 0-4-1 30 30 0 0 1-6-1l-6-2a9 9 0 0 1-3-2 8 8 0 0 0-3-1 74 74 0 0 1-8-2 13 13 0 0 1-5-2 8 8 0 0 0-5-3 8 8 0 0 1-5-1l-3-1-3-1a6 6 0 0 0-3-1 4 4 0 0 1-2-1 7 7 0 0 0-4-2l-1-1 8 2c6 3 8 3 9 2l-12-6-4-1-4-1a17 17 0 0 0-5-2l-2-2-2-2a4 4 0 0 1-4 0 7 7 0 0 0-3-1 15 15 0 0 1-4-2c-10-5-17-7-17-4 0 2-1 3-4 1a18 18 0 0 0-5-2 6 6 0 0 1-3-1 3 3 0 0 0-2-1c-2 0-4-2-3-4l5 2c4 2 7 2 7 1l-2-1a10 10 0 0 1-4-2 7 7 0 0 0-4-2 23 23 0 0 1-3-1 19 19 0 0 0-2 0 3 3 0 0 1-2-2c0-1-1-2-2-1s-2 0-3 0c-3-2-4-2-7 0l-2 1-3-1a10 10 0 0 0-4-2c-2 0-3-2-2-3a7 7 0 0 1 3 1c4 1 4 1 2-1a7 7 0 0 0-3-2 5 5 0 0 1-3-1 3 3 0 0 0-3-1 4 4 0 0 1-4-1l-3-2c-2 1-1 2 1 2 1 0 1 2-1 3a4 4 0 0 1-4-1l-9-5a29 29 0 0 1-5-3 1 1 0 0 0-2 0l-5-1a25 25 0 0 0-4-2 8 8 0 0 1-3-2 7 7 0 0 0-4-2c-2 0-2 0-1 2l4 2 4 2a4 4 0 0 0 3 3l1 1 2 1c2 0 3 2 1 2a3 3 0 0 1-2-1 3 3 0 0 0-2-1 9 9 0 0 1-4-1 9 9 0 0 0-3-2c-3 0-10-3-13-5a33 33 0 0 0-7-3 15 15 0 0 1-5-3 5 5 0 0 0-2-1 3 3 0 0 1-3-1 3 3 0 0 0-2-2 28 28 0 0 1-6-2l-16-6c-2 1-1 3 2 4s4 2 2 2a3 3 0 0 1-2 0 2 2 0 0 0-2-1 4 4 0 0 1-2-1l-12-3 5 5c6 2 7 3 5 4 0 1 0 1 0 0l-6-1a29 29 0 0 1-9-3c-4-2-5-2-3-3l1-2a12 12 0 0 0-3 2c-3 3-3 3-2 4a5 5 0 0 0 3 1 11 11 0 0 1 4 1 60 60 0 0 0 5 3l3 3h-5a6 6 0 0 0-3-1 10 10 0 0 1-3-1 10 10 0 0 0-4-2 12 12 0 0 1-3-1c-3-2-6-2-6-1l4 4a23 23 0 0 1 3 3l-9-2c-1-2-3-1-3 0 0 2 1 2 2 2l3 1 9 5a4 4 0 0 1 3 1 4 4 0 0 0 2 2l2 2a4 4 0 0 0 3 1l8 4a3 3 0 0 0 2 1c4 0 5 3 2 4l-2 2 9 4a16 16 0 0 1 5 2c4 3 12 5 13 4l-3-3c-3-2-4-2-3-3s2-1 6 1l5 2 3 3c0 2-2 2-4 1l-2-1c-1 1-1 2 3 3a28 28 0 0 1 6 3c2 1 3 2 4 1a2 2 0 0 1 2 1 5 5 0 0 0 3 1c2 1 2 1 2-1l-2-1c-2 0-2-1-1-2a4 4 0 0 1 3 1 6 6 0 0 0 4 0 4 4 0 0 1 3 1 5 5 0 0 0 4 1c1 0 5 4 5 7 0 2 3 4 6 3l2 1 5 1v-2c-1-1 0-2 2 0a11 11 0 0 1 2 4c1 2 3 3 15 6l4 3h2a3 3 0 0 1 3 1c2 2 3 2 3 0 1-3 3-3 5-2s0 3-2 3a1 1 0 0 0-1 1l6 3a7 7 0 0 1 4 1 6 6 0 0 0 3 2 20 20 0 0 1 4 2l7 3c2 1 3 1 2 3 0 2 1 2 2 1 0-1 1-2 2-1a4 4 0 0 0 5-3c1-2 4-2 7 1l5 2a9 9 0 0 1 4 2 12 12 0 0 0 3 2 42 42 0 0 1 6 2 27 27 0 0 0 6 2 13 13 0 0 1 4 2 32 32 0 0 0 4 3l1 1 3 1c3 0 3 0 3 2v2a1 1 0 0 1-1-1h-1c-2 0-2 1 0 1a3 3 0 0 1 2 2 4 4 0 0 0 3 1 3 3 0 0 1 2 0h2c1-1 0-1-1-2l-1-2a7 7 0 0 1 4 1l2 2s0 2 2 1a19 19 0 0 1 5 1c2 0 2 1 2 2l-1 2c-2 0-2 1 1 2 2 1 2 1 2-1l3-1c2 1 3 3 2 3l-1 1 6 4c1-1 2 0 3 1l5 1a2 2 0 0 0-1-2 1 1 0 0 1 0-2c2 0 5 3 5 4-1 1 0 3 1 4l3 1a3 3 0 0 0-2-3c-1 0-2-2 0-3a1 1 0 0 1 1 0 3 3 0 0 0 2 1 3 3 0 0 1 2 1 3 3 0 0 0 3 1 2 2 0 0 1 1 1l3 1c2 0 3 0 6 4l5 3a2 2 0 0 1 1 1h2c1-1 2 0 6 2a40 40 0 0 1 7 4 14 14 0 0 0 5 2l3 2 2 2a5 5 0 0 1 3 1 2 2 0 0 0 1 0l7 4 10 4Zm-15-12a5 5 0 0 0-2-2c-2 0-3-1-2-2s7 3 7 4c0 2-2 2-3 0Zm11-14 1-1 1 1a1 1 0 0 1-1 0 2 2 0 0 1-1 0Zm-9-2a1 1 0 1 1 1 0 1 1 0 0 1-1 0Zm-71-10a1 1 0 1 1 1 1 1 1 0 0 1-1-1Zm65-1c-2 0-5-3-4-4s7 0 8 1v2a5 5 0 0 1-4 1Zm18-1c-1-1 0-1 3-1 1 1 2 1 0 1h-3Zm-27-4 1-1v1a1 1 0 0 1-1 0Zm15-12a33 33 0 0 1-7-2 24 24 0 0 0-7-1c-4-1-5-2-4-3h5l21 5a3 3 0 0 1 2 1h-10Zm-28-7c-3 0-3-2 0-2s4 1 3 2a1 1 0 0 1-1 0h-2Zm-10-2c-6-3-2-4 4-2l3 2h-7Zm-79-4 1-1 1 1-1 1-1-1Zm69 0a6 6 0 0 0-3-1l-11-3a28 28 0 0 0-6-2l-4-3c0-1 1-2 5 0a19 19 0 0 0 4 1l13 5a9 9 0 0 0 3 1l4 2h-5Zm-107-5a3 3 0 0 1 0-2l1-1 2 2a2 2 0 0 1-3 1Zm-5-3a3 3 0 0 0-2-1 6 6 0 0 1-4-1 10 10 0 0 0-4-1l-3-2-2-2c0 2-3 0-3-2s2-2 4-1a5 5 0 0 0 2 2 6 6 0 0 1 3 0 48 48 0 0 0 4 2l5 3a3 3 0 0 0 2 1c2 0 2 1 1 2-1 2-1 2-3 0Zm64-8-2-2h3a20 20 0 0 0 3 1v1h-4Zm-17-8v-1l2 1h-2Zm-94-3a1 1 0 1 1 2 0 1 1 0 0 1-2 0Zm94-4c-2-1-3-2-1-2l5 2q0 2-4 0Zm-29-4c-2-1-1-2 0-2l2 1-2 1Zm12-3c-4 0-15-6-15-7 0-2 2-1 7 2a34 34 0 0 0 8 3c2 0 4 2 3 2a7 7 0 0 1-3 0Zm-123-7 1-1 1 1-1 1-1-1Zm19-2a1 1 0 1 1 1 1 1 1 0 0 1-1-1Zm63 0v-2c2 0 3 1 2 2h-2Zm1-6-8-4-1-1c0-2 2-2 3-1a5 5 0 0 0 3 1 3 3 0 0 1 1 0 13 13 0 0 0 4 2l2 2c0 1-3 2-4 1Zm-17-1-1-2h1a14 14 0 0 0 2 0l1 2h-3Zm-95-2a35 35 0 0 0-3-1l-5-5 5 1a3 3 0 0 0 2 1 16 16 0 0 1 5 2c3 1 3 1 2 3-1 1-3 1-6-1Zm5-8a1 1 0 0 1 0-2c1 0 2 1 1 2h-1Zm81-1c0-1 2-2 3-1s1 2-1 2l-2-1Zm-90-2a1 1 0 0 1 1-1c1-1 4 0 4 1h-5Zm-25-11-3-2c0-2 3-2 5 0 3 2 1 3-2 2Zm33-2c-1-1 0-2 2-2l3 3c0 1-3 1-5-1Zm-6-3a9 9 0 0 0-3-2 6 6 0 0 1-3-1c-1-1-1-1 1-1a10 10 0 0 1 3 2 5 5 0 0 0 3 1c2 0 2 1 1 2l-2-1Zm5-5v-2a2 2 0 0 1 2 1v1a3 3 0 0 1-2 0Zm274 156a1 1 0 0 0-1-1v1l1 1v-1Zm-817-6a1 1 0 1 0-1 1 1 1 0 0 0 1-1Zm858-5-2-2c-2 0-3 0-2 2s4 1 4 0Zm51-3a22 22 0 0 0 4-6 33 33 0 0 1 3-7 11 11 0 0 0 2-5c0-2 0-2-2-3a4 4 0 0 1-2-1 2 2 0 0 0-2-1 1 1 0 0 1-2 0 3 3 0 0 0-2-1 3 3 0 0 1-2 0 2 2 0 0 0-2-1l-5-3a21 21 0 0 0-4-2l-3-2-1-3-5 2-5 3-3 1-5 5a1 1 0 0 1-1 1l-2 2c0 1 0 2 2 2a3 3 0 0 1 1 3 14 14 0 0 0 1 4c1 2 2 2 5 3a13 13 0 0 1 5 2 8 8 0 0 0 3 2l7 4c2 2 8 4 11 4l4-3Zm-33-23c-2-1-1-3 1-3l1 1 2 1 2 1h-6Zm-750 19-1-1v1h1Zm652-5-2-1c-2 0-2 0-1 1 1 2 3 1 3 0Zm-6-3-1-1-1 1 1 1a2 2 0 0 0 1-1Zm-38-18h-2l1 1 1-1Zm187-1c3-3 2-5-2-7l-4-2a21 21 0 0 1-5-3c-3-4-4-4-8-4l-7-1c-1-2-2-2-2 0 0 0 0 3 2 5 2 4 3 5 5 6a70 70 0 0 1 8 3 37 37 0 0 0 12 4l2-1Zm-750-6a1 1 0 0 0 0-1 2 2 0 0 0-1 1v1l1-1Zm716-5-1-1-1 1h2Zm-700-5a2 2 0 0 1 3-1c2 0 6-3 6-4 0-2-2-2-3 0a17 17 0 0 1-5 2l-3 3c0 2 1 1 2 0Zm672 0c2-1 2-3-1-3-2 0-3 1-1 3h2Zm6-1h-2l1 1 1-1Zm-665-2c0-2-2-2-2 0a4 4 0 0 0 1 2l1-2Zm485 0h-1l1 1v-1Zm153-1c3 0 1-2-2-2-2 0-3 1-2 2h4Zm-615-1h-2l1 1 1-1Zm609 0-3-1c-2 0-2 0 0 1h3Zm-628-1c0-2-1-2-2-1v1a2 2 0 0 0 2 0Zm475 0a1 1 0 0 0-2 0 1 1 0 0 0 2 0Zm146-1a6 6 0 0 0-2-1 16 16 0 0 1-4-1 14 14 0 0 0-3-1l-9-1-3-1c-1 2 3 3 6 3a9 9 0 0 1 4 1l11 1Zm-614-3a1 1 0 1 0-2 1 1 1 0 0 0 2-1Zm590-2-3-1 2 2c3 0 3 0 1-1Zm-5-2-5-2a22 22 0 0 1-6-2 2 2 0 0 0-2 0 1 1 0 0 1-2-1h-2c-2 1-2 2 0 2a28 28 0 0 1 6 2c5 2 12 3 11 1Zm-571-3c0-2-1-2-2 0l1 1a1 1 0 0 0 1-1Zm538-6a1 1 0 0 0-3 0l1 1 2-1Zm-178-21a1 1 0 0 0-1-1 5 5 0 0 1-2-1c-2-2-4-2-4-1s0 2 4 3h3Zm-226-20-1-1-1 1 1 1 1-1Zm281-6v-1l-1 1h1Zm-315-3c4-2 7-3 6-4s-9 4-9 5 0 1 3-1Zm192 0c-2-2-3-2-3 0s1 2 3 2h2l-2-2Zm100-7-2-1c-2 0-3 0-1 2 1 1 3 1 3-1Zm-8-3c0-1-1-2-5-3h-2l1 2c2 2 6 3 6 1Zm-308-5-2 1h2v-1Zm295-2a1 1 0 0 0-2 0l1 1c1 2 2 0 1-1Zm-3-1c1-1-7-6-9-5-2 0 0 3 2 3a3 3 0 0 1 2 1c0 2 4 3 5 1Zm-14-1a1 1 0 0 0-1-1 5 5 0 0 1-3-1l-10-5-1 3 3 1a32 32 0 0 0 5 2l2 2h3l2-1Zm-141-3 2-1a1 1 0 0 0 2-1 3 3 0 0 1 1-2l3 2c0 2 1 3 2 3s2-3 1-4l1-2c1-2 2-11 1-14-1-2-4-4-7-4a6 6 0 0 1-3-1 23 23 0 0 0-4-3c-1-1-2-1-6 3s-5 5-4 7a45 45 0 0 1 1 6 45 45 0 0 0 1 8c1 3 1 3 3 3 1-1 2 0 2 1 1 1 2 1 3-1Zm-74 1a1 1 0 1 0-1 0 1 1 0 0 0 1 0Zm127-3h-1c-1 0 0 0 0 0a1 1 0 0 0 1 1v-1Zm-100-1-3-5c-1 0-2-3-2-7l-2-7c-2 0-3 3-2 7v5c-2 3-3 3-2 0 0-3-1-7-2-6l-2-2c-1-3-2-1-2 5 0 8 0 8 6 10 4 1 10 2 11 0Zm18-3c0-4 2-5 3 0 1 3 3 3 3 0v-8s2 1 2 3l2 5v-10a6 6 0 0 1-1-3c0-2 1-3 2-3l2-2c0-2-3-5-6-5l-8-1c-1-1-1-1-3 2a38 38 0 0 0-3 5v16c1 3 1 3 3 2 2-2 3-1 3 2h1v-2Zm168 3-3-2v2h3Zm-210-3-1-14c0-2-1-2-2-2 0 0-2 0-3-2-2-3-4-3-6 0l-2 2c-2-2-2 0-2 7 1 7 1 8 7 10 5 1 8 1 9-1Zm-13-9a1 1 0 0 1 2-2 1 1 0 0 1-1 3 2 2 0 0 1-1-1Zm217 10a1 1 0 0 0 0-1l-1-1-3-3c-2-2-2-2-3 0-1 1 0 1 1 2l2 1 4 2Zm-80-5 2-18c-1-2-1-4-3-4h-4a17 17 0 0 1-4 1c-1 0-2 2-2 9 0 3 1 5 3 7l2 4a1 1 0 0 0 0 2 6 6 0 0 1 1 2c1 3 3 1 5-3Zm-22 2 2-1c3 1 4 0 4-2a4 4 0 0 1 1-2v-6c1-5 1-5-1-7s-3-2-5-2l-4 1-3 2a6 6 0 0 1-3 2c-1 1-2 2-1 3a27 27 0 0 1 0 6l1 5h6c2 2 2 2 3 1Zm-134-2a4 4 0 0 1 3 0c3 0 4-2 2-4a5 5 0 0 1-1-3 42 42 0 0 0 0-5 15 15 0 0 1-1-4c1-2-1-4-3-3-1 0-3-2-2-3a2 2 0 0 0 0-2c-2-1-4 1-3 2a2 2 0 0 1-1 2l-1 4-1 6c-1 4 0 7 4 9 2 2 3 2 4 1Zm-2-15c-2-1-2-4 0-3 2 0 4 4 2 4a6 6 0 0 1-2-1Zm176 11c6-1 7-2 6-6v-6a2 2 0 0 0 1-2 11 11 0 0 1 0-4l-1-5c-2-2-5-3-6-1l-3 1c-5 1-6 2-6 12l1 10c3 3 4 3 8 1Zm-165-3a2 2 0 0 0-1-1l-1 1 1 1a1 1 0 0 0 1-1Zm-1-6c-1-1-2 0-1 1h1a2 2 0 0 0 0-2Zm-27-2c1-1-1-5-3-5a2 2 0 0 1-2 0h-2a3 3 0 0 1-2 1c-2 0-3-2-4-9-1-3-2-2-2 1s0 8 2 9a12 12 0 0 1 3 2c3 2 9 3 10 1Zm210-1 1-12v-11h-1c-6 0-7 1-8 4-1 4 0 15 1 15a2 2 0 0 1 1 2l3 4a5 5 0 0 0 3-2Zm-165-3c0-1-1-2-2-1s0 3 1 3a2 2 0 0 0 1-2Zm81-2c4-1 8-4 9-5a10 10 0 0 0-1-5l-1-10-2-9 1-11v-2l1 2a4 4 0 0 1 0 2l1 6c2 4 2 5 1 6s-1 2 0 4a49 49 0 0 1 2 7 11 11 0 0 0 1 3l-1 3c-1 2-1 3 1 4a10 10 0 0 0 3 1 5 5 0 0 1 3 3c1 2 4 2 6 0a7 7 0 0 1 3-1 2 2 0 0 0 2-3l-3-15a9 9 0 0 0 0-4 22 22 0 0 1-2-5 35 35 0 0 0-1-6c-1-2 0-5 1-3a22 22 0 0 1 3 7 3 3 0 0 0 0 2l1 3a24 24 0 0 0 1 5l1 5c1 3 1 4 3 3l1-1 2 2c1 2 1 2 7 2h6l3-3 3-4 3 2c2 2 3 2 5 1 1-1 2-2 1-3a7 7 0 0 0-1-3l1-2c1-1 1 0 1 1a2 2 0 0 0 3 0 12 12 0 0 0-1-4c-1-4 0-6 1-3 2 1 2 1 3-1l1-2 1 1c2 2 3 1 3-2a3 3 0 0 1 1-3c1-1 1-1 2 2 2 4 3 3 3-1a59 59 0 0 0-1-8l-1-7a11 11 0 0 0 0-5c-1-4 0-8 1-11a12 12 0 0 0 1-4 12 12 0 0 1 1-5l3-6a39 39 0 0 1 7-8c4-4 5-5 5-8l1-4v-1c0-2 5-7 8-8l3-1-4 3-3 5c0 2 0 2 3 1a17 17 0 0 1 4-2 5 5 0 0 0 3-1 4 4 0 0 1 2-1c2 1 13-2 16-4l3-10c0-3 0-3-2-3s-2-1-2-5l4-6c3-2 3-3 3-5v-3a2 2 0 0 1-1-2c0-1-4-3-7-3l-4-1a14 14 0 0 0-3-3c-3-1-6-2-17-2l-6-1-15-2h-8l-2 2 2 1c2 1 2 2 1 5l1 4c2 0 3 2 0 6a49 49 0 0 1-2 5c-2 1-3 5-3 6a10 10 0 0 1-2 4 9 9 0 0 0-1 4 12 12 0 0 1-1 4l-1 3-1-2a8 8 0 0 1-1-3 2 2 0 0 0-1-1v1l-1 10v8c1 1 0 4-1 3l-2-13-1-4c-1-1-2 2-1 3v3c-2 3-3 2-2-1 1-6-1-9-3-5-1 3-1 2-2-4l1-5v-2a8 8 0 0 1-1-3l-2-2-1-2a7 7 0 0 0 0-3 4 4 0 0 1 0-3 12 12 0 0 0 1-5c0-3 1-5 3-5v4c0 9 2 6 5-8 0-2 1-2 2-2s2 0 3-2a21 21 0 0 0 0-7c0-6 0-6 4-2l5 3c2 0 2 0 2-2a5 5 0 0 0-2-3v-3a7 7 0 0 0 2 0c1 0 5 4 7 8 2 2 3 3 4 2 9-2 9-2 10-1 1 2 2 2 4 0l2-2 3 2h3a5 5 0 0 1 2-2c2-1 3 0 5 2 1 2 3 2 5 2a6 6 0 0 1 5 2 7 7 0 0 0 2 1l9 7c2 2 3 3 4 2l2 1h5l10-1c6 0 9-2 10-5a15 15 0 0 1 1-3 9 9 0 0 0 1-4c0-2 0-2 2-3a10 10 0 0 1 3-1c2 0 4-4 4-7 0-1 0-3-2-5-5-7-3-10 5-8 5 1 6 0 6-9l1-9c1-1 0-1-2-3s-4-6-4-10a3 3 0 0 0-1-3l-2-2a13 13 0 0 0 0-4l-1-7a19 19 0 0 0-2-5 12 12 0 0 1-1-6 46 46 0 0 0-1-7l-2-8c0-3-1-4-3-5a10 10 0 0 0-3-1 2 2 0 0 1-2-1c0-2-5 2-5 4-1 3-1 3-3 2v1a3 3 0 0 1 0 2 5 5 0 0 0-1 3l-1 2-1-2a5 5 0 0 0-1-4c-1-2-3-2-2 0a3 3 0 0 1-1 2v3a5 5 0 0 1 1 3 2 2 0 0 0 2 1l-2 3c-3 3-3 4-3 5v11a4 4 0 0 0 0 3v2l-1 3c0 3-1 5-2 3l-2-1c-1 0-1 2 2 4l2 2-2 2a11 11 0 0 0-2 3 12 12 0 0 1-2 3l-4 3c-2-1-4 2-4 4l-4 5-2 3a4 4 0 0 1 3 1 6 6 0 0 0 2 2v1a3 3 0 0 1-2 0 6 6 0 0 0-3 1 6 6 0 0 1-3 0 27 27 0 0 0-7-1l-12 1a6 6 0 0 1-4 1l-5 2a19 19 0 0 1-5 2 12 12 0 0 0-4 2 22 22 0 0 1-6 2l-6 1-4-1a23 23 0 0 0-4-3 12 12 0 0 1-4-3 7 7 0 0 0-3-3 14 14 0 0 1-4-1 19 19 0 0 0-5-2c-8-2-14-5-22-13-7-7-10-12-10-24l-1-9v-3a2 2 0 0 0 1-1 11 11 0 0 1 1-4 9 9 0 0 0 1-5 14 14 0 0 1 0-5c1-2 1-2-1-4-1-1-2-2-3-1s-2-1-3-2c-1-2-1-2-3-1s-2 1-4 0a10 10 0 0 1-3-4q-2-3-3-1l-2 10v12l1 2c3 0 4 6 2 9-1 1 1 8 3 12a11 11 0 0 1 2 4 5 5 0 0 0 2 3 5 5 0 0 1 1 3 3 3 0 0 0 1 2v3l1 3c1 0 2 1 2 4l1 5c1 1 0 2-1 1a4 4 0 0 0-3-1l-1-2a6 6 0 0 0-1-2c-1 0-4 3-5 6l-2 3c-3 0-6 4-3 6v3c0 2 0 3-2 3s-1 0-1 2a25 25 0 0 1 1 4l1 1v-2a2 2 0 0 1 1-2c1-1 2 1 1 3a4 4 0 0 0 0 3v12a6 6 0 0 1 0 4c-1 2-1 2 1 4s3 4 2 7h-1c-2 0-3 1-1 2a6 6 0 0 0 2 1 3 3 0 0 1 3 2 9 9 0 0 0 2 3 2 2 0 0 1 1 2 3 3 0 0 0 0 3 10 10 0 0 1 1 3 49 49 0 0 0 4 10 3 3 0 0 0 2 1l1-4v-5l1 2a6 6 0 0 0 1 2c3 4 3 20 0 22-2 2-4 2-3 0s-2-3-3-1a3 3 0 0 1-2 2 11 11 0 0 0-4 2l-4 2-7 1-8-1h-3c-2 1-3 3-1 3a13 13 0 0 1 4 2c3 2 4 2 11 2l8 1c0 2-2 5-3 5a2 2 0 0 0-1 1 1 1 0 0 1-2 0v-2c0-1 0-2-2-1a2 2 0 0 1-2-1c-1-1-2 0-2 3s1 3 3 2l2 1h3c3-2 3-1 4 2l2 3 2 1a1 1 0 0 1-1 1c-1 0-3 4-2 5v10l-2-2c-1-3-1-3-3 0l-2 1c-1 0-2 1-2 3-1 4-2 5-2 3l-1-6a26 26 0 0 1 0-7v-4c-1-1-2-1-3 1v28c-1 2-3 2-3-1a88 88 0 0 1 0-17c1-8 1-9-1-9-1 0-2 2-2 9l-1 10a35 35 0 0 1-1 6c-1 2-1 2-1 0 0-3-2-2-3 1v14a28 28 0 0 1 1 7v6c-2 2-1 4 2 3a5 5 0 0 1 4 1 11 11 0 0 0 4 2 7 7 0 0 1 3 1 3 3 0 0 0 2 0l5-1Zm-11-12a5 5 0 0 1-1-2c0-3 2-3 2 0 1 2 0 3-1 2Zm-7-5 1-11 1 7v5c0 2-1 1-2-1Zm71-6a40 40 0 0 1-2-6l-4-12v-9l-1-1c-2 0-3-2-2-3l-1-3a5 5 0 0 1-2-3 2 2 0 0 0-1-2c-1-1-1-3 1-4 1-1 3 0 3 2a10 10 0 0 0 1 4 10 10 0 0 1 1 3 4 4 0 0 0 1 2 9 9 0 0 1 2 4 31 31 0 0 0 3 8l4 15a25 25 0 0 0 1 4c1 1-1 4-1 4l-3-3Zm-21 2 1-5a1 1 0 0 1 0 1 14 14 0 0 0 1 3c0 1-1 2-2 1Zm-44-6a1 1 0 0 1 0-1c1-1 2 0 1 1h-1Zm43-1-2-12h2a2 2 0 0 1 1 2 7 7 0 0 0 1 3c1 1 0 8-1 8a1 1 0 0 1-1-1Zm-11-17c-3-6-4-10-2-10l1 1a11 11 0 0 0 2 5c1 2 3 7 1 7l-2-3Zm-15 1a2 2 0 0 0-2 0l-2-1c-1-2-1-3 3-3 2 0 3 0 3 2s-1 3-2 2Zm35-4a9 9 0 0 1-2-3 2 2 0 0 0-1-2l-4-8a16 16 0 0 0-1-4c-2-1-2-7-1-8l1 2a5 5 0 0 0 2 4l2 2a1 1 0 0 0 0 2 4 4 0 0 1 1 2 4 4 0 0 0 1 3l1 1c-1 1 2 6 4 8 1 1 0 4-1 4a10 10 0 0 1-2-3Zm-26-14a4 4 0 0 1-1-3l-1-1c-3 0-5-4-4-6s1-3-1-2c-2 0-1-1 1-4s6-3 6 0c1 4 2 4 1 0 0-4 0-4 2-5a4 4 0 0 0 3-2c0-1 2-4 5-6l5-6a4 4 0 0 1 1-2l2-5a9 9 0 0 1 2-5c2-2 4-1 4 1a37 37 0 0 0-1 4c0 2 0 2 2 2s1 0 1-3v-3a1 1 0 0 1-1-1 8 8 0 0 0 0-4c-1-2-1-3 1-5 2-3 2-3 5-2s4 4 3 7l-1 4v3c0 2 0 2-2 2s-2 1-2 3a11 11 0 0 0 0 5c1 1-1 5-2 4a2 2 0 0 1 0-1c1-3-2-2-5 2-2 3-2 4-1 5a2 2 0 0 1 0 3v4a10 10 0 0 1 1 3 3 3 0 0 0 1 2c2 1 2 5 1 7-1 1-5-5-6-8 0-2-2-3-3 0-1 2-1 2-1 0a4 4 0 0 0-3-5c-2 0-2 0-1 4 1 2 1 2-1 3-4 4-4 4-3 6 1 1 0 3-2 3a2 2 0 0 0-2 1c-1 2-2 2-3 1Zm5-5-3-6v2a16 16 0 0 1 1 3c0 2 1 3 2 1Zm-8-5-1-1v1a1 1 0 0 0 0 1l1-1Zm24-21h-1c-1 0 0 0 0 0a1 1 0 0 0 1 1v-1Zm6-5a1 1 0 1 0-1 1 1 1 0 0 0 1-1Zm38 14c-2-1-2-6-1-8a13 13 0 0 1 1-2l4-1c3 0 5 1 5 4 0 2-2 5-4 6-1 1-4 2-5 1Zm12-13c0-1 1-3 2-2s0 4-1 4l-1-2Zm-4-4a5 5 0 0 1 1-2 5 5 0 0 0 1-4c0-2 0-3 3-5 2-3 4-4 4-2a4 4 0 0 1-1 2 5 5 0 0 0-2 3 5 5 0 0 1-1 3 11 11 0 0 0-3 3c0 2-2 3-2 2Zm-34-5v-1a1 1 0 0 1 1 0 2 2 0 0 1-1 2v-1Zm32-4a2 2 0 0 1 0-2c1-1-2-1-3 1l-2 2v-2l5-11a8 8 0 0 0 2-2l1-1-1 3a4 4 0 0 0 0 2h4v5a10 10 0 0 0-2 3l-3 3-1-1Zm-12 0v-7l1-3a11 11 0 0 1 2-5 17 17 0 0 0 2-4c0-1 11-11 13-11 3 0-2 7-6 8l-2 4-1 3-4 5-2 10h-3Zm-34-26-1-4c1-2 0-3-1-5s-2-2-1-2a3 3 0 0 1 2 0c1 1 1-1 2-3l2-6s2 4 1 7a10 10 0 0 0 0 4c1 2 2-1 2-4 0-5 1-7 2-5l1 5c0 3 0 5-2 7l-1 4c1 3-3 4-6 2Zm44-10h1l-1 1v-1Zm-48-5 1-2c1-2 2-2 2-1 0 3-2 5-3 3Zm-34-31v-1a1 1 0 0 1 0 2v-1Zm131-5c0-1 4-2 5-1s0 1-1 1a9 9 0 0 0-2 0h-2Zm8-6a6 6 0 0 1 1-3c0-2 1-2 2-2 2 0 2 0 1 3-2 3-3 3-4 2Zm-7-1a1 1 0 0 1 0-2l1 1c0 1-1 2-1 0Zm12-8 4-6c2-1 1 4 0 6a4 4 0 0 1-3 2l-1-2Zm4-11a2 2 0 0 1 1-2c1 0 2 2 1 3s-2 0-2-1Zm0-5a1 1 0 0 1 2 0 1 1 0 0 1-2 0Zm1-5c-1-2 1-5 2-4v5l-2-1Zm1-9v-8h2v5c0 3-2 4-2 3ZM584 782a4 4 0 0 0 0-3 30 30 0 0 1-1-8l-1-7a9 9 0 0 1-1-3l-3-18a8 8 0 0 0-1-3l-2-6c1-3 2-3 2-1 1 1 2 2 3 0l1-7v-6a2 2 0 0 1 3-1l1-1a9 9 0 0 1 0-2v-1l-2 1c0 2-1 2-2 0a2 2 0 0 0-4 0v13h-2v-7l-1-3-2 7a5 5 0 0 1 1 2 32 32 0 0 0-1 6c0 6-1 9-2 10a5 5 0 0 0 0 4 8 8 0 0 1-3 7c-2 2-4 5-3 6v5l-1 3-1-3a24 24 0 0 1 0-7v-12l1-11a4 4 0 0 0 0-3 4 4 0 0 1 0-4v-9l-1 3c0 3-1 4-3 3h-2c-1 2-3 1-3-2l-1-2c-1-1-1 0-1 1a3 3 0 0 1 0 3c-4 4-4 5-5 4a2 2 0 0 1-1-1 1 1 0 0 0-1-1l-1 2c0 3 0 3 2 2s2 0 2 2a22 22 0 0 1 0 5h-2a2 2 0 0 1-1-2c1-2 0-2-1 0s-1 7 0 9 1 2-1 1c-3 0-3 2 0 5a12 12 0 0 1 1 2l-2 1c-3 0-3 0-3 2s2 5 3 4a4 4 0 0 0 0-2c0-2 1-3 2-2l1 14c0 2-1 3-2 3l-1-3a11 11 0 0 0 0-4l-1-2-2 2c-2 2-3 4-1 7a5 5 0 0 1 0 3l3 4 2-2c1-2 2-2 3 1 0 3 1 4 8 3a56 56 0 0 0 10-1c3-1 3 0 6 1a27 27 0 0 0 5 1c4 1 9 0 9-2Zm-34-6 1-1a2 2 0 0 1 0 1h-1Zm0-7a1 1 0 1 1 0 1 1 1 0 0 1 0-1Zm18-10c-1-1 0-2 1-2v3l-1-1Zm-89 24-1-1a2 2 0 0 0-1 1 1 1 0 0 0 1 1l1-1Zm224-5a5 5 0 0 0 1-2 7 7 0 0 1 1-4c2-2 2-9 1-11h-7c-3 2-2 13 0 16 2 2 3 3 4 1Zm-174-1a3 3 0 0 1 2-1 6 6 0 0 0 3 0c1-1 1-4-1-5s-2-2-3 2c-1 2-2 0-2-3 0-5-3-4-3 1l-1 3-1-10 1-15 1-13-3 8a10 10 0 0 1-2 3v3a1 1 0 0 1-1 1 3 3 0 0 0 0 3c0 1-1 2-2 1-3 0-3 0-3 6s-1 7-3 7l-1-5a88 88 0 0 1 1-10l1-6 1-6c2-10 2-20 0-17l-3 16c0 4 0 5-2 6v2c1 1 2 6 0 6v2l1 2-4 10c0 1 1 2 3 2l11 5a5 5 0 0 0 3 1 4 4 0 0 1 3 1h4Zm-12-11 1-3c1-1 1 1 1 2l-1 3-1-2Zm-48 4a1 1 0 0 0-1-1l-1 2c1 1 2 0 2-1Zm24-8-1-1-1 1 1 1 1-1Zm9 0-2-1 1 2a1 1 0 0 0 1-1Zm-57-3a2 2 0 0 0-2 0l1 1 1-1Zm28-11-1-4v8c0 2 2-1 1-4Zm231 2c2-2 1-9-2-14-2-5-3-6-5-5l1 4a10 10 0 0 1 1 5 8 8 0 0 0 0 4l-1 4v2h6Zm-202-1v-2l-1 2 1 1v-1Zm-34-1v-15l-3 8 1 7h2Zm116-2v-1c-2 1-2 3-1 3a1 1 0 0 0 1-2Zm6-1v-3a4 4 0 0 1 0-3l-1-2c-1 0-2 3-2 7 0 3 2 4 3 1Zm-5-5c-1-2-2-1-2 1l1 1a2 2 0 0 0 1-2Zm1-9-1-3c-2 0-3 4-2 8 1 2 2 0 3-5Zm20 2c0-2-1-1-1 0v1a1 1 0 0 0 1-1Zm-80-2-1-1a3 3 0 0 0 0 2v1a5 5 0 0 0 1-2Zm44 0c0-2 0-2-1-1s-1 3 0 3l1-2Zm-140-1-2-2a1 1 0 0 0-1 2 2 2 0 0 0 3 1Zm161-1a6 6 0 0 1 0-2 3 3 0 0 0 0-2h-1c-2 3-2 7 0 6l1-2Zm17-3-2 2h1l1-2Zm-185 0c0-2-2-2-2-1s0 3 1 2a2 2 0 0 0 1-1Zm-21-2h-2a1 1 0 0 0 1 1l1-1Zm10 0 2-1c3 1 4-1 2-2s-3-1-5 1v2a2 2 0 0 0 1 0Zm76-1-1-2c-1 1 0 3 1 3v-1Zm113-2v-3a4 4 0 0 1-1-3h-1c-2 1-2 3-1 4a3 3 0 0 1 1 2c0 3 1 2 2 0Zm-86-2-1-3-1 6h1a8 8 0 0 0 1-3Zm-106-1c-1-1-2 0-1 1h1a2 2 0 0 0 0-1Zm-59 0a1 1 0 0 0-2-2v2c1 1 2 1 2-1Zm140-4-1-1a3 3 0 0 0-1 2l1 1a3 3 0 0 0 1-2Zm-51-1h-1v-2c2-2 3-3 1-4s-4 1-2 2l-1 2c-1 1 0 1 1 2s2 2 2 0Zm33-8-1-8-3 3c-1 0-2-7-1-9 1-3 0-6-1-5l-1 5a15 15 0 0 1-1 4v4l-1 3c-1 0-3-3-2-4a2 2 0 0 0 0-2l-1-6c0-3 0-4-1-3l-1 6c-1 8-4 5-4-5l-1-6-1 1a3 3 0 0 1-1 3 2 2 0 0 0 0 2 4 4 0 0 1 0 2c-2 2-3 1-3-3 1-7 0-10-1-10l-1 1v2a9 9 0 0 1-2 4l-1 2v-2a8 8 0 0 0-1-4l-1-6v-5l-2 8a62 62 0 0 1-2 7l-1-1-1-9c0-8-1-10-2-8a26 26 0 0 0-1 6c-1 13 0 15 4 15 2-1 2-1 2 3 1 3 1 4 3 4a3 3 0 0 1 2 3 6 6 0 0 0 3 3l2-1c2-2 2-2 3 1 0 2 2 5 4 4a3 3 0 0 1 2 1l4 1 5 3c5 2 5 2 6-4Zm-42 4a1 1 0 1 0-1 1 1 1 0 0 0 1-1Zm138 0c3 0 3 0 6-3 4-4 3-5-4-5-4 0-6 0-10-2l-6-4-1-3a10 10 0 0 1-1-4 7 7 0 0 0-2-3 6 6 0 0 1-1-3c0-2-2-1-2 1v5a58 58 0 0 1 3 7 16 16 0 0 0 2 5 7 7 0 0 1 1 2l2 1a4 4 0 0 1 2 3c1 2 5 4 7 3a16 16 0 0 1 4 0Zm549-5a26 26 0 0 0 4-4 4 4 0 0 1 2-2c2 0 5-4 5-6a4 4 0 0 1 1-3c4-3 5-5 5-11l-1-26a14 14 0 0 1-1-4l-1-5-1-4-1-5-1-1c1-1-1-6-3-7a3 3 0 0 1-1-2l-1-2a3 3 0 0 1-2-2 4 4 0 0 0-1-2 4 4 0 0 1-2-3 2 2 0 0 0-1-2 3 3 0 0 1-1-2 2 2 0 0 0-2-1l-2-1-14-15-16-2a19 19 0 0 1-4 2c-6 1-8 4-7 12a30 30 0 0 1 1 4l2 5a11 11 0 0 1 2 6c0 2 1 2 2 3a2 2 0 0 1 1 2 11 11 0 0 0 2 4c3 4 3 5 1 6v3a6 6 0 0 1 1 5l1 3a6 6 0 0 1 2 1l1 2v4a8 8 0 0 0 2-2l2-2v2l-1 2-1 2c0 3-2 6-4 6l-2 2a4 4 0 0 1-4 2c-3 0-5 2-4 4h6l-1 2a5 5 0 0 1-3 2h-1 7l7-1-6 6a12 12 0 0 0-3 1v2l4 1a10 10 0 0 1 3-1l4-3c2-2 3-2 3-1s-2 3-8 6l-5 4 4 1c4 0 6 1 6 2l-3 2c-4 1-5 3-4 4l9-2a3 3 0 0 1 3 0c1 1 7-4 11-8 1-2 2-2 3-2l-1 2a6 6 0 0 0-2 3c0 3-5 8-8 8-2 0-6 5-6 6l3-1a6 6 0 0 1 3 0l2-1a5 5 0 0 1 3-2c2 0 7-5 12-11l3-3 1 2v4a4 4 0 0 0-2 2l-2 2-2 2a5 5 0 0 1-1 3c-2 1-3 4-3 5 1 1 3 0 6-2Zm-24-15c0-1 4-5 6-5s2 2-1 4c-4 2-4 2-5 1Zm20-9c0-1 2-3 3-2v1l-3 1Zm-14-8h1c1 0 0 0 0 0a1 1 0 0 1 0 1l-1-1Zm-672 30a1 1 0 0 0-2 0 1 1 0 0 0 2 0Zm-314-5a1 1 0 0 0 0-1l-1 2h1a2 2 0 0 0 0-1Zm26-1v-2a2 2 0 0 0-3 1c0 2 1 2 3 1Zm285-3a10 10 0 0 0 1-3l1-2a2 2 0 0 0 3-1l-1-7-1-7-1-7s-2 5-1 7l-1 11c-2 1-3-3-3-12a76 76 0 0 0 0-10l-3 7c0 2-1 5-2 3v-4c0-4-2-9-3-9s0 5 1 16l1 12c-1 0-4-6-3-7l-1-3a25 25 0 0 1-2-6c0-5-1-6-1-4v13l1 5c-1 1 2 4 4 4a6 6 0 0 1 4 2l3 2a1 1 0 0 1 1 0 2 2 0 0 0 3 0Zm-306-1h-1v1a1 1 0 0 0 1-1Zm287 0a1 1 0 0 0-2-1 2 2 0 0 1-2-1h-2a4 4 0 0 0 1 2c1 2 5 2 5 0Zm-295 0a1 1 0 1 0-1 1 1 1 0 0 0 1-1Zm363 0a16 16 0 0 0 0-5c0-5-2-2-2 4 0 2 1 3 2 1Zm-360-5h-1a3 3 0 0 0-1 1h1a3 3 0 0 0 1-1Zm630 0h-1a1 1 0 0 0-1 1h1l1-1Zm-610-1c2-2 3-5 2-5l-6 5h4Zm-16-3-1-1a2 2 0 0 0 0 2v1l1-2Zm105-1a5 5 0 0 0-1-2l-3 1c-1 1 0 1 1 1a3 3 0 0 1 2 1c1 2 2 1 1-1Zm12 1-2-1-1-1h3c1 1 2 1 2-1-1-2-1-2 1-2 1 0 2 0 1-3-1-1-1-2-3-1l-4-1c0-1-1-1-2 1-2 3-2 3 0 2h2l-2 6a1 1 0 0 0-1 1h6Zm26-2-1-1-1 1 1 1 1-1Zm111-2a2 2 0 0 0-1 0v1a2 2 0 0 0 1-1Zm6 1a3 3 0 0 0-1-2 3 3 0 0 1-1-2l-2-1a14 14 0 0 1-3 1h-1l1 1a6 6 0 0 1 3 2l4 1Zm171-2h-2c-1 1 1 2 1 2a2 2 0 0 0 1-2Zm-322 0-1-1a1 1 0 1 0 0 2l1-1Zm248-1-1-1a1 1 0 0 0-1 1h2Zm125 0h-2l1 1 1-1Zm-453-6 1-2-5 4a1 1 0 0 1-1 0l-3 4s6-3 8-6Zm62 5a2 2 0 0 0-2-1v1a2 2 0 0 0 1 0h1Zm7-1h-2l1 1a4 4 0 0 0 1-1Zm153 0c-1-1-3-3-4-2s1 3 3 3l1-1Zm542-2 1-4 3-2 7-7c0-2-1-1-6 3l-6 6c-1 1-2 1-1 3 1 3 1 4 2 3v-2Zm-557 1c0-1-2-3-4-3a7 7 0 0 1-3-1c-2-2-3-1-1 1l7 4 1-1Zm167 0v-2a2 2 0 0 0-2 1c-2 2 0 3 2 1Zm245-1a17 17 0 0 1 3-2c2 0 4-2 6-8 3-4 3-5 5-5s2 0 3-3 0-3 2-3c3 0 4-1 3-3s0-5 3-7a16 16 0 0 0 3-5c2-3 3-5 5-5 1 0 2-1 2-4a9 9 0 0 1 4-5 7 7 0 0 0 3-5c0-3 2-7 4-8l1-3a7 7 0 0 1 1-3 6 6 0 0 0 1-4c0-2 2-2 2 0 1 3 2 0 2-4l1-5h2l1 1v-4a9 9 0 0 0 0-6 10 10 0 0 1-1-4l-1-4c-3-4-6-4-9-2l-3 2s-1 2-3 2-3 3-3 3a20 20 0 0 1-2 4v3c1 1 0 4-1 10l-1 9a4 4 0 0 1 0 3l-2 2c-6-1-7 1-5 4 3 2 2 7-2 11l-4 4-2 3a16 16 0 0 0-5 5c-2 3-5 5-13 10-5 2-6 3-6 5a4 4 0 0 1-2 3c-3 1-4 4-2 5 1 1 2 1 1 2a4 4 0 0 0-1 2 7 7 0 0 1-1 3c-2 3-2 4 0 6 1 2 2 2 4 1a26 26 0 0 0 6-1Zm-10-1c0-1 4-5 7-6h2c2 1-1 4-5 5-4 2-5 2-5 1Zm-357-1-1-4a5 5 0 0 0-2-1v3a3 3 0 0 1 1 3c0 2 1 2 2-1Zm-180 0c0-1 0-2-3-2s-3 1 0 3 3 1 3-1Zm452-1-1-1c-1 0-2 2-1 3l2-2Zm-438-1-1-2c-2 0-2 2-1 3s2 1 2-1Zm433 0-1-2-1 2 1 2 1-2Zm-322 0-1-1a1 1 0 0 0-1 1h2Zm584-1c1-1 1-2-1-2s-3 1-2 2 1 1 3 0Zm-588-1c-1-2-3-2-3-1l2 2 1-1Zm102-2v1c0 1 0 1 0 0a1 1 0 0 0 0-1Zm-249-1a3 3 0 0 0 0-2c-1-2-3-1-3 2-1 2 0 2 1 2a4 4 0 0 0 2-2Zm474-2v-8 1l-1 1-2 8c0 3 2 2 3-2Zm9 2c1-2 1-3-1-3l-1 4 2-2Zm77 0 1-3h-1c-2 1-3 4-2 4l2-1Zm173-2h2v-2c0-2 0-3 1-2l1-1c-1-1 1-3 2-2l1-1 1-2 4-2 1-4a3 3 0 0 0-2 2 3 3 0 0 1-2 1c-2 0-5 3-4 4l-2 1c-3 2-7 5-6 6a1 1 0 0 1-1 1 2 2 0 0 0 0 2l4-1Zm-402-3 2-6v-5 2a2 2 0 0 1-1 2l-3 8 2-1Zm88 0-1-1 2 2-1-1Zm-150 0c2-1 2-2-1-2l-2 1c0 2 1 2 3 1Zm128-2-1-4-1 1a3 3 0 0 1-3 2l-2 1c0 2 1 2 3 2l4-2Zm-72-2-1-1a1 1 0 0 0-1 1c0 2 1 2 2 0Zm144 0a4 4 0 0 1 1-3v-1c-1-2-2 1-3 3l1 3 1-2Zm-76-5c1-1 0-4-1-5l-1 3c0 3 1 4 2 2Zm-63-5a37 37 0 0 1 3-5 4 4 0 0 0 0-2 4 4 0 0 1 1-3l1-7-5 10a28 28 0 0 1-2 6c-2 5-2 7 0 6l2-5Zm-6 4a1 1 0 1 0-2 1 1 1 0 0 0 2-1Zm73 0a1 1 0 1 0-1 1 1 1 0 0 0 1-1Zm468-1a3 3 0 0 0-4-3l-4-1-2-1c-1 1 2 3 6 5h4Zm-388-5a9 9 0 0 0 1-3c-1-1-4 6-3 7s2-1 2-4Zm14 3-1-1-1 1 1 1 1-1Zm-171-3 7-20v-1l-2 2-1 3a16 16 0 0 1-2 4l-2 6a10 10 0 0 1 0 3l-2 5 2-2Zm-412-3a2 2 0 0 0-1-2v1a7 7 0 0 1-1 2l1 1a2 2 0 0 0 1-2Zm490-1c0-2-1-2-2-2a4 4 0 0 1-2-1c-3-1-3 0-3 2 1 3 1 3 3 1l2 1c1 2 2 1 2-1Zm-97 0a4 4 0 0 0 0-2 9 9 0 0 1 2-4 37 37 0 0 0 2-6l2-7a3 3 0 0 1 2-2v10a6 6 0 0 1-2 3l-3 8c1 2 2 1 2-1l4-5c0 2 2 1 3 0a8 8 0 0 1 1-3l1-2c-1-1-2 0-2 1a5 5 0 0 1-1 2l-2 1 1-2a21 21 0 0 1 1-4c1-2 1-2 2 0 1 1 2 1 3-2 1-4 2-3 2 2l1 4 2-2c-1-2 2-11 4-13l3-3c2 0 9-8 10-11a9 9 0 0 1 3-4 3 3 0 0 0 2-1c0-2 3-4 5-4s2-1 3-3a11 11 0 0 1 3-4c2-2 2-3-1-3-2 0-13 10-13 11l-3 3c-2 1-2 3-2 4a6 6 0 0 1-2 3 6 6 0 0 0-2 2c0 2-7 8-9 8a14 14 0 0 1-4-1 15 15 0 0 0-5-1 5 5 0 0 1-3-1l-12-4a20 20 0 0 1-4-1 7 7 0 0 0-5-1 5 5 0 0 1-4-1 9 9 0 0 0-4-2l-3-2-4-2h-16a7 7 0 0 0-4-1c-2 0-3-1-5-3a26 26 0 0 1-4-5l-3-2-1-1-2-4-3-4a18 18 0 0 0-2-5 67 67 0 0 1-3-7 89 89 0 0 0-3-9c-2-2-3-6-3-7a4 4 0 0 0-2-4l-1-2a2 2 0 0 0 0-2 11 11 0 0 1-2-4v-3h-6c-5 1-8 2-9 4a2 2 0 0 1-2 2 2 2 0 0 0-2 1c-1 1 0 2 1 1 2-1 3 0 3 2s1 5 2 4l1-5c0-5 0-6 1-5l1 9-1 4c1 1 2 5 2 13v5l-2-1h-2l-1 6 1 6c1 0 2 0 2-3-1-4 1-7 2-5v18a19 19 0 0 0 0 5c0 4 0 5 2 5 1 0 3-3 2-4v-7c1-3 2 0 3 9s2 17 3 17l1-2a29 29 0 0 1 0-4 18 18 0 0 0 0-5v-3l1-5a38 38 0 0 1 0-8v-4c-1-1-1-3 1-3l1 4a16 16 0 0 0 0 5 67 67 0 0 1 1 10l1 11a12 12 0 0 0 1 5 18 18 0 0 1 1 2c1 3 2 1 2-3 0-5 2-6 3 0l4 11 1-5a49 49 0 0 0-1-9v-8c2-2 3 0 3 6a82 82 0 0 0 1 8l3 12c2 3 2 0 2-9 0-10 0-10 1-8l1 2 1 5a34 34 0 0 1 1 6 18 18 0 0 0 1 4l1 4c1 2 2-2 1-6 0-5 1-12 2-11l1 3a41 41 0 0 0 1 7 45 45 0 0 1 1 5 256 256 0 0 1 3-13l2 10a24 24 0 0 0 1 6l1 3 1-3a13 13 0 0 0 0-5 18 18 0 0 1 0-5l1-6 2-3 1 6 1 6a7 7 0 0 0 1 3 9 9 0 0 1 0 3l1 3 1-5a3 3 0 0 1-1-2 26 26 0 0 0 1-6c0-5 1-6 3-5l1 5c-1 5 0 10 1 10h1l1-3c1-8 3-14 2-7a12 12 0 0 0 1 5v3c-1 1 0 7 1 7l1-4a10 10 0 0 1 1-4 10 10 0 0 0 1-4c0-3 3-4 3-1l1 13h2v-7a7 7 0 0 0 1-3l4-10v2a11 11 0 0 0 0 4 16 16 0 0 1-1 5l-2 10 3-1Zm-38-22v-2l1 1c0 2-1 3-1 1Zm-7-5c0-2 1-3 2-2v2c-1 2-2 2-2 0Zm-24-3a1 1 0 1 1 2-1 1 1 0 0 1-2 1Zm-16-23-1-2a4 4 0 0 1 1-3v-10c1-2 2-7 1-17-2-14-2-15-1-16 2-1 3 1 3 4a16 16 0 0 0 0 6 12 12 0 0 1 0 6v4c2 1 0 27-1 28h-2Zm9-17v-6c2 0 2 5 1 6h-1Zm-1-9v-5c1 0 2 2 2 5s-1 2-2 0Zm265 80-1-1-1 1h2Zm-207-3Zm57-4h-2v2h2a11 11 0 0 0 0-2Zm-9-2c0-2-1-2-3 0a3 3 0 0 0-1 3h2a5 5 0 0 0 2-3Zm557 1c-1-1-2 0-1 1a1 1 0 0 0 1 0v-1Zm-545-5a6 6 0 0 0 1-3c0-2 0-2-3-2l-4 1a3 3 0 0 0-1 3l1-1a3 3 0 0 1 3-1l1 2c-1 3 0 3 2 1Zm29-1c0-2-1-3-2-1s-1 4 0 3l2-2Zm406 2c1-2 0-2-1-1-2 1-2 1 0 1a2 2 0 0 0 1 0Zm26-2-1-1-1 1h2Zm-454-2a5 5 0 0 0 0-3l-3 4c1 2 2 1 3-1Zm-16 1v-5c-1-1-3 3-2 4s1 2 2 1Zm-108-2-1-1v1a1 1 0 0 0 1 1v-1Zm115-5a2 2 0 0 0-1-2l-1 2c0 2 2 2 2 0Zm-143 0a1 1 0 0 0-1-1v1l1 1v-1Zm147 0c1-2 0-2-1-1v2l1-1Zm526-1-2-2-2-1c-1 2-1 3 1 3h3Zm-813-1-1-2-2 3a1 1 0 0 0 3-1Zm712-3c0-2-3-2-3 0l1 2a2 2 0 0 0 2-2Zm-422-1-1-3-2 4c0 2 2 1 3-1Zm-5 0h-1a1 1 0 0 0 0 1l1-1Zm-296-1c0-2 0-3-2-2-3 2-2 3 1 3l1-1Zm169-3a25 25 0 0 0-1-5h-1v4l1 4a1 1 0 0 0 1 1v-5Zm285-3a16 16 0 0 0 4-2 20 20 0 0 1 5-2l12-1a11 11 0 0 1 3-1l2-2h-1c-4 1-4 1-5-1l3-4a38 38 0 0 0 4-3 4 4 0 0 1 2-1l2-2a3 3 0 0 1 2-1l6-6-4 1a12 12 0 0 1-4 2v-2c3-3 1-4-2-1l-2 2 1 1c2 2 2 3 0 3a2 2 0 0 0-1 2c0 1-2 1-2-1-1-2-2-2-4-2a36 36 0 0 0-9 0l-5 1a17 17 0 0 0-9 3c-6 4-6 4-8 1l-3-3-3-5c1-1 2-1 3 1l1-2c0-2 0-3 2-3 2-1 3-3 1-4a28 28 0 0 0-6 0c-5 0-6-1-9-2-2-1-4-2-5-1l-3-1a4 4 0 0 0-2-3c-3-1-5-3-3-5l-1-4c-2-3-2-5-2-20 0-12 0-12 2-13s2-4 1-4a7 7 0 0 0-3 1c-1 1-2 1-3-1a7 7 0 0 1-3-4c0-5-3-1-5 6a3 3 0 0 1-3 3h-2v12l1 12c2 2 4 8 4 10l3 4 4 4 4 2c1-2 3-1 3 0l2 2 2 1-2 3c-2 1-3 2-2 3v4l-3-3-4-4-4-3-6-7 1 2a5 5 0 0 1 1 3 2 2 0 0 0 1 2v2a3 3 0 0 1-1-1h-3a6 6 0 0 0 2 3 6 6 0 0 1 2 3l6 8 3 3c2 4 3 4 4 3v-2c-1-1-2-2-1-3 0-2 2-1 5 3l4 3c2 0 1-3-1-5-3-3-4-6-4-7 2-1 3 0 5 3l4 7 3 5 8 8 5 1a9 9 0 0 1 4 0 2 2 0 0 0 3 0 6 6 0 0 1 3-1Zm-43-21-3-2a1 1 0 0 1-1-1l1-1 6 6c0 1-2 0-3-2Zm-6-6a1 1 0 0 1-1-2l2 1-1 1Zm-450 26a1 1 0 0 0-1-1c-2 0-1 2 1 2v-1Zm365 0a1 1 0 0 0-1-1l-1 1 1 1a2 2 0 0 0 1-1Zm-12-2a1 1 0 0 1 1-1v-2l-3 5c0 1 3-1 2-2Zm23-2a15 15 0 0 1 2-4 15 15 0 0 0 1-3 18 18 0 0 1 4-4l6-3 9 1a2 2 0 0 0 1 2l2 1c2 3 7 6 8 5s-1-6-2-8v-4c2-1 2-2 1-5a11 11 0 0 0-1-4v-4c2-1 1-6-1-8-2-3-3-6-1-7v-14l-1-3a4 4 0 0 1 0-5v-3a12 12 0 0 1-2-5l-4-9a7 7 0 0 0-3 2 7 7 0 0 1-3 1c-2 0-2-2 1-4s2-4 0-4-9 7-11 11v16c1 1 2 1 0 2s-2 2-1 3c2 2 2 4 1 6-1 1-1 2 1 3v5a22 22 0 0 1-1 5c-3 3-3 4-2 5v2a6 6 0 0 0-2 2l3 1a1 1 0 0 1 2-1l-1 2a28 28 0 0 0-2 4l-2 3 3 2 2 4-4 4c1 1 0 2-1 3-3 1-5 6-5 9 0 2 0 2 1 1a10 10 0 0 0 2-3Zm161 2c2-1 1-2-1-2s-2 2-1 3 1 0 2-1Zm-344-1-3-2a1 1 0 0 0-1 2h3Zm14-1c0-2 0-2-1-1l-2 1 2 2 1-2Zm142-2c-1-1-1-1-1 1s0 1 1 1v-2Zm17 1-1-2-1 2 1 1 1-2Zm-352-1-1-1-1 1h2Zm187-2-1-1-1 2 1 1a2 2 0 0 0 1-2Zm148-2c-1-1-2 0-1 1a1 1 0 0 0 1 0v-1Zm-324 0a1 1 0 1 0 0 1 1 1 0 0 0 0-1Zm337-1a8 8 0 0 1 1-4v-7l-3 9c-1 2 0 4 1 4a3 3 0 0 0 1-3Zm171-1c2-1 2-3 1-3a8 8 0 0 0-2 1 5 5 0 0 1-4 1 1 1 0 0 0-1 1c0 1 0 2 2 1a11 11 0 0 0 4-1Zm-264-6-1-2c-1 0-3 4-2 5h2a6 6 0 0 0 1-3Zm15 3a1 1 0 0 0 0-2l-3 2h3Zm7-2c1 1 3-1 3-2s0-2-2-1-3 0-2-2v-3l-1 2c-2 2-2 8 0 7a2 2 0 0 1 2-1Zm-11 0-1-1-1 1 1 1 1-1Zm6-5c0-2-2 0-2 2s-1 2 1 1a5 5 0 0 0 1-3Zm-16-2a9 9 0 0 0 1-6c-1-2 0-3 1-4s2 0 2 5v4l1-5 1-7c0-3-1-4-2-1h-3l-1 2-1 4-1 10a9 9 0 0 0 2-2Zm59 0 1-2-3 3c0 1 2 1 2-1Zm90 1c0-1-1-2-2-1s1 2 2 2a1 1 0 0 0 0-1Zm-445-1-1-1a1 1 0 0 0-1 1v1a4 4 0 0 0 2-1Zm322-2c0-1-2-2-3 0s0 4 2 2a3 3 0 0 0 1-2Zm-39-5 3-10c2-7 2-11 1-11l-2 6a9 9 0 0 1-1 3l-3 8-1 1 1-11a12 12 0 0 0 0-4h-1c-1 1-2 2-4 12l1 4c2 0 3 2 2 4s0 3 1 3l3-5Zm75 2a3 3 0 0 1 1-2l1-4a1 1 0 0 0-1 1 7 7 0 0 1-1 3c-2 2-2 4-1 4a1 1 0 0 0 1-2Zm-69-3c-1 0-2 2-1 3h1v-3Zm-59-8a2 2 0 0 1 2 0c2 1 3 0 2-3a6 6 0 0 1 1-4c1-1 0-1-1-2s-1-2-2 0v4c1 3 0 4-2 3-3 0-4 1-4 6 1 6 2 7 2 2l2-6Zm43 2a13 13 0 0 1 0-4 13 13 0 0 0 1-4l2-7 2-5 1-3c2-3 2-6 0-6l-2 4a24 24 0 0 1-2 6 7 7 0 0 0-1 3 17 17 0 0 1-2 6l-2 9v7l3-6Zm18 4a6 6 0 0 0 1-3 14 14 0 0 1 2-5c2-4 2-8 0-8a1 1 0 0 0-1 2 13 13 0 0 1-1 4 13 13 0 0 0-2 4 11 11 0 0 1-1 3c-2 3 0 6 2 3Zm348-1c4-3 5-4 4-10a187 187 0 0 1 0-37 15 15 0 0 0 1-5 3 3 0 0 1 1-2l3-5a62 62 0 0 1 3-7c1-3 0-12-1-12-2 0-1-1 0-2a3 3 0 0 0 1-2 3 3 0 0 1 1-2 3 3 0 0 0 1-2l2-6 2-5a7 7 0 0 1 1-3 13 13 0 0 0 1-4 34 34 0 0 1 2-4l3-10a15 15 0 0 1 2-5c1-2 2-3 1-6v-4a7 7 0 0 0 1-3 3 3 0 0 1 1-2 4 4 0 0 0 1-3 14 14 0 0 1 1-5l-1-5-1-2-1 2a9 9 0 0 1-2 3 2 2 0 0 0 0 2c1 2-2 6-3 5s0-4 1-6a1 1 0 0 0 0-2 8 8 0 0 1-1-8c2-3 1-3-2 0-2 2-3 3-3 9l-1 7a23 23 0 0 0-5 4c-2 2-3 3-4 2-4-1-4-1-5 1s-1 2 0 4 1 3-1 5a18 18 0 0 1-5 5l-3 3a2 2 0 0 1-2 2 3 3 0 0 0-2 1c-1 5-1 6 1 10l2 5 1 3 2 4c-2 4-4 5-8 7a13 13 0 0 0-5 2l-1 3a7 7 0 0 0 3 3c2 1 3 5 0 6a3 3 0 0 0-2 2 34 34 0 0 1-1 3v6c-2 1-1 3 3 4s4 2 2 5a6 6 0 0 0-1 2 7 7 0 0 1-1 3c-2 3-2 5 0 6s2 1 0 3c-1 1-1 1 1 3l2 2-1 2-2 2 2 2c2 2 3 3 3 5l3 5 3 4-2 2c-2 4-2 5 0 4a2 2 0 0 1 2 0 1 1 0 0 1 0 2 2 2 0 0 0-1 1 3 3 0 0 1-1 3c-1 1-1 2 1 2a14 14 0 0 0 4-2Zm3-63a1 1 0 0 1 1 0 2 2 0 0 1 1 0l-1 1-1-1Zm-1-4a1 1 0 1 1 0 1 1 1 0 0 1 0-1Zm-4-2a2 2 0 0 1 1-1c0-1 0 0 0 0a2 2 0 0 1 0 2l-1-1Zm2-4a6 6 0 0 1 1-3 5 5 0 0 0 1-3 3 3 0 0 1 1-2c2-1 5-9 5-10s1-3 2-2v4a13 13 0 0 1-2 4 4 4 0 0 0-1 2c0 2-1 5-4 9-1 3-3 3-3 1Zm12-25c0-2 1-4 2-3s0 4-1 4l-1-1Zm3-10a3 3 0 0 1 1-1h1c0 2-2 3-2 1ZM434 564a1 1 0 0 0-1-1l-1 1c0 1 0 2 1 1a1 1 0 0 0 1-1Zm32 0a1 1 0 0 0-2-2v3a2 2 0 0 0 2-1Zm75-3-1-1v2l1-1Zm-62-2 1-2a19 19 0 0 1-1-5v-4l-4 9a5 5 0 0 1 0 2l2 2a17 17 0 0 0 2-2Zm318-2c-1-1-3 1-3 3l2-1 1-2Zm-302 0v-2l-2 1-2 1 1-3a22 22 0 0 0 1-6c0-3-1-3-2-3l-2 4a28 28 0 0 1-1 5c-1 3 0 5 2 5 4 1 4 0 5-2Zm-60-2a14 14 0 0 1 2-5c2-3 4-10 3-11 0-1-2 0-3 3s-3 4-4 2a3 3 0 0 1 0-2 6 6 0 0 0 1-3 7 7 0 0 1 1-3l2-8c-1 0-2 1-2 3-2 3-3 4-3 2a39 39 0 0 1 4-15c-1-1-4 1-4 2a119 119 0 0 1-4 13c-1 2-2 3-3 2l4-14a7 7 0 0 1 2-2c1-1 0-3-2-3s-3 2-4 6l-2 8c-2 7-1 8 1 8 1 1 2 1 2 3 1 3 2 4 3 2v1l1 7 1-1a2 2 0 0 1 1-2c1 0 3 1 2 2l-1 6c0 2 2 2 2 0Zm61-3v-6l-1 5c0 4 0 4 1 1Zm-46-1a3 3 0 0 0 1-3c-1-1-2 1-3 3 0 2 1 2 2 0Zm273 1a2 2 0 0 0-1 1h1l1-1Zm-327-2c0-3-1-4-2-3v3c-1 0-1 2 1 2l1-2Zm140-3c1-3 2-5 1-6l-2 3a10 10 0 0 1-1 4v4l2-5Zm-34 4a1 1 0 1 0-1 1 1 1 0 0 0 1-1Zm-16-1v-1l-1 2 1-1Zm333-1 3-7a5 5 0 0 0-1-3l-3-1c-1 0-2 2-1 4a10 10 0 0 1-1 5v3c1 1 2 1 3-1Zm-248 0h-1v1l1-1Zm-77-8-1-1a2 2 0 0 0 0 1 1 1 0 0 0 0 1l1-1Zm-52-5v-1l-2 1v1l2-1Zm118 0 2-1 1-2a4 4 0 0 1 3-2l1-2c0-2-2-2-4 0s-2 2-3 1a6 6 0 0 1-1-3c0-1-2-2-2 0v7a3 3 0 0 1 1 2c0 2 1 2 2 0Zm-118-4a1 1 0 0 0-1 0 1 1 0 0 0 1 0Zm280-6c0-2 1-4 4-6l3-3-1-2c-2-2-2-2-3-1-2 1-3 0-3-1l1-5-1-2v-2c-2 0-3 1-2 3a15 15 0 0 1 1 4l-1 4a2 2 0 0 0-2 1c-1 1-1 1-2-1-1-3-2-2-1 2 0 4 1 4 2 4s2-1 2 2v2a3 3 0 0 1 1 3c0 2 1 1 2-2Zm-362 2-2-1v1a2 2 0 0 0 1 1 1 1 0 0 0 1-1Zm370-7v-1c-2-1-3 0-2 1a1 1 0 0 0 2 0Zm-306-3c0-2-2-1-2 1l1 2a4 4 0 0 0 1-3Zm251 1 2-1c1 1 3 0 4-2 0-1 1-2 2-1s3 0 3-1c2-3 0-7-2-5s-3 0-2-4l1-5c0-3-2-2-3 0l-1 5a21 21 0 0 0-1 4c0 2-1 3-2 2v-12h-2a6 6 0 0 1-3 0c-2-1-4 2-3 5v4c2 0 2 1 0 3a13 13 0 0 0-1 4 4 4 0 0 1-1 2v3c0 2 2 1 5 1s3 0 4-2Zm-145 0a1 1 0 0 0-1 1h1v-1Zm-20-4h-1a2 2 0 0 0-1 1v1a2 2 0 0 0 2-2Zm148-2 2-6 1-9v-7c-1-2-3-2-4 0s-5 2-7 1l-1 1v1l1 3c0 3-2 6-4 5l-1 2 1 2 9 9c1 2 1 2 3-2Zm176 3a2 2 0 0 0-1-1 1 1 0 0 0-1 1l1 1 1-1Zm-410-2-1 1h1a2 2 0 0 0 0-1Zm317 1-1-1-1 1h2Zm-310-2a6 6 0 0 0 1-3 28 28 0 0 1 2-4 22 22 0 0 0 2-6c0-2 0-2-1-1a4 4 0 0 0-1 3 8 8 0 0 1-2 4 7 7 0 0 0-1 3 4 4 0 0 1-2 3c-2 1 0 3 2 1Zm-46-1a1 1 0 1 0 0 1 1 1 0 0 0 0-1Zm163-1a4 4 0 0 1 1-3l1-1c-1-1-2-1-2 1a2 2 0 0 1-1 1c-1 1-2 4 0 4a3 3 0 0 0 1-2Zm145-4c1-3 1-8-1-8l-2 6a5 5 0 0 1 0 2 5 5 0 0 0 0 3c0 2 2 1 3-3Zm-6-1v-5c-1 0-3 5-2 6s1 0 2-1Zm-265 0-1-1-2 1h3Zm87-2v-2c-2-2-1-5 3-7l2-2c-1-1-4 0-5 2a3 3 0 0 1-2 1l-1 2-2 2v2l1 1a2 2 0 0 1 2 2c1 2 1 2 2-1Zm190-4c0-6-1-6-2-1v5c1 3 2 1 2-4Zm-34 2v-2c-1-1-1-1-2 1a9 9 0 0 0-1 2l3-1Zm175 0v-2c-1-1-3 0-3 2h2Zm-136-1a2 2 0 0 0-1-2v2a1 1 0 0 0 1 0Zm12-1c0-3-1-4-3-2h-2c-2-3-4-2-4 0s1 3 3 2h2c2 2 3 1 4 0Zm-237-1a1 1 0 0 0-1 0 1 1 0 1 0 1 0Zm73 0-2-1 1 2a1 1 0 0 0 1-1Zm-120-3-1-1c-1 0-2 1-1 2s2 0 2-1Zm39-1v-2c-1 0-3 1-2 3s1 1 2-1Zm-120-1c0-1-1-2-2-1a1 1 0 0 0 0 1c1 2 2 2 2 0Zm141-1a1 1 0 0 0-1-1c-1 0-2 2-1 3 1 0 2 0 2-2Zm-53-1-1-1-1 1 1 2 1-2Zm-75-1h-1a1 1 0 0 0 0 1c1 1 1 1 1-1Zm94 1-1-1-1 1h1a1 1 0 0 0 1 0Zm130-1-1-1 1 2v-1Zm-216-1a1 1 0 0 0-1-1v1l1 1v-1Zm95 0 1-2-2 1c-1 2 0 2 1 1Zm318-2h-1a1 1 0 0 0-1 1h1l1-1Zm42-5a42 42 0 0 1 3-6 53 53 0 0 0 3-8l2-5c0-2-1-4-2-3l-2 4a54 54 0 0 1-2 6l-4 9a11 11 0 0 1-1 4c-2 2-2 3-1 3 1 1 4-1 4-4Zm15 3a1 1 0 0 0-1 0l1 1v-1Zm-479-2-1 1 1 1v-2Zm228-1a2 2 0 0 0-1-1c-1-1-1 1-1 1s2 1 2 0Zm-251 0-1-1v1a1 1 0 0 0 1 0Zm0-2a1 1 0 0 0-1-1v1c1 1 0 0 0 0h1Zm381-6 2-1h-4c0 1 1 2 2 1Zm-8-1a4 4 0 0 0-1-2l-1 1a1 1 0 0 0 1 1h1Zm-137-5v1c0 1 0 1 0 0a2 2 0 0 0 0-1Zm113-2c-2-3-6-7-7-6l1 2a5 5 0 0 1 2 2l5 5-1-3Zm-302 1a2 2 0 0 0 0-2c0-1-2 0-2 2s2 1 2-1Zm465-9c-1-1-4 2-4 3 0 2 1 2 2 0l2-3Zm-481 2c0-2-4-3-5-2s0 2 2 3 3 1 3-1Zm-10-4c0-1 0-2-2-1a1 1 0 0 0 0 1c0 2 1 2 2 0Zm41-1-1-2-1 2 1 2c1 0 2 0 1-2Zm364-5-1-1a1 1 0 0 0-1 1c0 2 2 1 2 0Zm72-2c1-1 0-3-1-2l-1 3a3 3 0 0 0 2-1Zm-479-2a2 2 0 0 0-1-1c-1 0-2 1-1 2a1 1 0 0 0 2-1Zm-15 0c1-1-1-4-2-4l-1 4a2 2 0 0 0 3 0Zm-7-2a1 1 0 0 0-1-1c-2 0-2 1-1 2s2 1 2-1Zm503-2c0-3-1-5-2-3s-2 4-1 5 2 0 3-2Zm-475 0a2 2 0 0 0-1-2c-1-1-2 1-1 2s2 1 2 0Zm8-1-1-1-1 1a1 1 0 0 0 0 1 2 2 0 0 0 2-1Zm-37-3-2-1a2 2 0 0 0 0 2l1 1a2 2 0 0 0 1-2Zm7 0v-3a4 4 0 0 1 0-3c0-3-3-1-4 3-1 5-1 5 1 5 1 0 2 0 3-2Zm7-3c1-3-2-4-3-1a2 2 0 0 0 0 2c1 2 3 2 3-1Zm20-3-2-2c-1 0-2 2-1 3s3 1 3-1Zm471 0v-4l-3 4 1 2 2-1Zm-478 0a3 3 0 0 0-1-2 3 3 0 0 1 0-2 1 1 0 0 0-1-1c-1 0-2 4-1 6h3Zm13-1c-2-1-2-1 0-4l2-1h-2c-2 0-2 0-2 2 0 3 2 6 3 5l-1-2Zm55 0a1 1 0 0 0 0-1l-1 1h1Zm-83-3c1-2-1-3-3-2v2a2 2 0 0 0 3 0Zm83-4a23 23 0 0 0-1-6l-1-3h-2v4a29 29 0 0 1 1 5c0 2 1 4 2 3l1-3Zm-77-2-2-4v5c1 3 3 2 2-1Zm4 2-1-1-1 1 1 1 1-1Zm483-1a3 3 0 0 0-2-1v1a3 3 0 0 0 2 1v-1Zm-495-2v-1a2 2 0 0 0-1 2l1 1v-2Zm425-4c2-2 3-3 2-4h-1a3 3 0 0 0-1 2 3 3 0 0 1-1 2l-1 2a15 15 0 0 0 2-2Zm-426-2c-1-2-1-1-1 0l2 1-1-1Zm505 1-1-1v1a1 1 0 0 0 1 1v-1Zm-473-2h-10l1 1c3 1 9 0 9-1Zm-38 0-1-1v1h1Zm511-4a1 1 0 1 0 0 1 1 1 0 0 0 0-1Zm-111-12 1-15v-9l-1-2-1 2a11 11 0 0 0 0 4l-1 4a55 55 0 0 0 0 28c1 1 1 1 1-2a82 82 0 0 0 1-11Zm-355 11a1 1 0 0 0 0-1l-1 1h1Zm44 0h-1l1 1v-1Zm-58-1-1-3-2-1v1a9 9 0 0 1 0 3c-1 1 0 1 1 1a2 2 0 0 0 2-1Zm-44-1a1 1 0 0 0-1-1l-1 1 1 1 1-1Zm36-3c0-2 0-2 2-3l2-1c0-3-1-6-2-5a1 1 0 0 0 0 2l-2 3a2 2 0 0 1-1-1h-3c0 3 2 9 3 8a8 8 0 0 0 1-3Zm17 2h-2a1 1 0 0 0 2 1v-1Zm49-4-1-15a373 373 0 0 1-2-44 1 1 0 0 0-1 0 249 249 0 0 0 0 55c1 9 3 12 4 4Zm-52 2a7 7 0 0 1-1-2l-1 2 1 2 1-2Zm-23-5h-2a3 3 0 0 0 0 4c1 1 3-2 2-4Zm-7 2c0-2-1-3-2-3l1 3a1 1 0 0 0 1 0Zm6-5-2-4c-1 0-2 1-1 3l3 1Zm-14-1a1 1 0 1 0-1 0 1 1 0 0 0 1 0Zm447-1c1 0 3-3 2-5l-2-1-4 1a3 3 0 0 0-3 2c0 3 2 5 4 4a7 7 0 0 1 3-1Zm-427-3v-1l-1 1h1Zm0-3c1-1 0-3-2-3v3a1 1 0 0 0 3 0Zm13-2-3-1a6 6 0 0 0 1 2c2 2 4 1 2-1Zm-20 0a9 9 0 0 0 0-4 25 25 0 0 1-1-6c0-2 0-3-2-3l-1 2a3 3 0 0 0 1 2c2 2-1 5-4 5-1-1-1-1-1 1s1 2 2 1l2 1c2 2 3 3 4 1Zm15 0a1 1 0 0 0-2-1v2c1 1 2 0 2-1Zm-40-1a1 1 0 0 0 0-1l-1 1 1 1a2 2 0 0 0 0-1Zm461-7-2-1c-2 0-3 0-3 2s1 3 3 1a5 5 0 0 0 2-2Zm-444-1c0-3-1-5-2-4l1 5c0 2 1 1 1-1Zm20-2-1-3-1 2a5 5 0 0 1-1 2c-2 2-1 3 1 2a4 4 0 0 0 2-3Zm7 2-1-1-1 3 2-2Zm-15-9-1-2v8l2 3v-3a10 10 0 0 0-1-6Zm14 5c0-2-1-3-2-1l2 3v-2Zm479 0s0-1 0 0l-1 1h1a1 1 0 0 0 0-1Zm-439-2c0-2-2-4-2-3v5c1 0 2 0 2-2Zm325 0h-2l1 1a1 1 0 0 0 1-1Zm115-1c0-2-1-3-2-2s-1 3 0 3a2 2 0 0 0 2-1Zm-507-1a4 4 0 0 1 1-3c1-1 1-1-1-2l-1-2-1 1c-1 2-1 7 1 7a1 1 0 0 0 1-1Zm-14 0a2 2 0 0 0-1-1h-1l1 1a1 1 0 0 0 1 0Zm21-2-1-3h-2v3c1 2 1 2 3 0Zm22-1a1 1 0 0 0 1-1h-1c-2 0-3-3-3-11v-49l1-10v-8a59 59 0 0 1 1-13 105 105 0 0 0 1-11c0-5 1-10 3-12v-16c-1-1-2 1-2 5l-2 5c-1 1-2 3-2 9 0 7 0 10-2 13a17 17 0 0 0-1 5 54 54 0 0 1-1 9c-1 5 0 10 1 11l-1 4v35l1 18-1 9c-1 1-1 0-2-4v-2l-3 2-2 2-2-1c-1-2-3-2-2 0a12 12 0 0 1 0 5c0 3 0 4 1 3a5 5 0 0 0 2-2c1-3 1-4 3-2s3 2 1 4c-1 1-1 3 1 3a3 3 0 0 0 1-3c0-2 3-2 3 0 3 6 3 6 4 5a5 5 0 0 1 2-2Zm-45 0c2-2-3-7-4-6v2a4 4 0 0 1 1 3c0 2 2 3 3 1Zm81-8-1 4c1 5 1 5 2 1l-1-5Zm333 6c1-1-1-1-1 1v1a2 2 0 0 0 1-2Zm103 0a1 1 0 0 0-2-1 1 1 0 0 0 1 2 2 2 0 0 0 1-1Zm-502-12a1 1 0 0 0-1-1v8c1 1 1-6 1-7Zm507 7a2 2 0 0 0 0-2l-1 2h1Zm-514-2c1-2 0-5-1-5s-2 3-2 5c1 3 2 3 3 0Zm82-3a8 8 0 0 0 0-3l-2-1v6c1 2 3 1 3-2Zm-68 1a7 7 0 0 1 0-3l-1-1-1 3 1 3 1-2Zm59 1a16 16 0 0 0 1-4c0-5-2-4-2 1 0 4 0 5 1 3Zm438 0c1-1 2-1 1-2a5 5 0 0 0-3 0 2 2 0 0 1-2-1c-1-2-3-2-3 0a9 9 0 0 0 1 2s1 0 2 1h4Zm-520-2a12 12 0 0 0 2-4l-1-3-2 5c-1 3 0 5 1 2Zm-5-2v-2l-3 2c0 2 2 1 3 0Zm34-4c0-3-2-3-2 1l1 2 1-3Zm492-1c0-2-1-3-2-1 0 1 2 4 3 3a4 4 0 0 0-1-2Zm-430-7-1-7-2 9c1 5 0 5 2 4l1-6Zm-9 1-1-3c-1 2-1 6 1 6a13 13 0 0 0 0-3Zm-60 1a1 1 0 0 0-1-1v2a2 2 0 0 0 1-1Zm14 0a3 3 0 0 0-1-3l-3 1c-2 2-2 2-3 0h-2c0 3 8 5 9 2Zm-19 0c0-2-2-3-3-2a1 1 0 0 0 0 2h3Zm498-3-1-1v2l1-1Zm-479-7-1-5c-2-1-3 2-3 6 1 6 3 6 4-1Zm65 4a58 58 0 0 0 0-7 20 20 0 0 1 1-5v-6a21 21 0 0 1 0-7c1-2 0-8-1-8l-1 6a60 60 0 0 1-2 8 18 18 0 0 0 0 6v4l1 10c0 1 1 1 2-1Zm-19-2a12 12 0 0 0 1-3c0-4-2-2-2 1-1 3 0 4 1 2Zm425 0c1-2 1-2-1-3a4 4 0 0 1-1-3 3 3 0 0 0-1-2 1 1 0 0 1 0-1 4 4 0 0 0-1-3l-1-2v2a4 4 0 0 0 0 2 21 21 0 0 1 0 5c1 7 2 8 5 5Zm-500-1c2-2 2-5 1-5a6 6 0 0 0-3 1 3 3 0 0 0-1 4c1 2 1 2 3 0Zm511-3-1 1-2 2v1l2-1 1-3Zm-489 3c1-2-1-4-3-3l1 2c1 2 1 2 2 1Zm-14-2c2-1 2-4 0-4l-2 3c0 2 0 2 2 1Zm-20-2-1 1a1 1 0 0 0 2 0v-1Zm28-2c2-3 2-3 3-2 2 1 3 0 2-2a3 3 0 0 1 0-2c0-2-2-3-3-1s-2 2-2-1c0-2-2-5-3-5v7l-1 8 4-2Zm68-1c1-1 0-2-1-2l-1 2c0 2 2 3 2 0Zm-57-7v-3l-1 1v2l1 2v-2Zm58-1h-1l1 1c1 1 2 0 0-1Zm-76-1v-3l-2-3c-1 0-2 2-2 5 0 2 0 2 2 2a4 4 0 0 0 2-1Zm487-1-1-4c-2 0-2 2-1 4s2 1 2 0Zm-468-2 1-2a2 2 0 0 1 0-2 2 2 0 0 0 0-2v-14a4 4 0 0 0-1-4l-2-1-1 2-4 3a3 3 0 0 0-3 1c0 1-4 1-5-1l-1-1v3c1 2 2 2 4 2l3 1-1 3a5 5 0 0 0 0 2c0 1 4 2 5 1 2-1 3 1 3 9h2Zm-25-1-1-1-1 1 1 1 1-1Zm78-5 1-10a622 622 0 0 1 7-59 79 79 0 0 1 2-10l2-7a36 36 0 0 1 1-5 19 19 0 0 0 1-5 51 51 0 0 1 2-9l2-7 1-4 2-6c-1-1-4 3-4 4a16 16 0 0 1-1 4 11 11 0 0 0-1 4 3 3 0 0 1-2 2l-1 5-1 4-1 5a14 14 0 0 1-2 5 7 7 0 0 0-2 4 4 4 0 0 1 0 3l-1 3a17 17 0 0 1-1 5 7 7 0 0 0 0 5l-1 7c-1 4-2 6-2 14l-1 11a196 196 0 0 0-3 39c1 3 2 1 3-2Zm-60 2c1-2 0-3-1-2v3l1-1Zm-15-1c3 0 3-1 2-2h-3a6 6 0 0 1-3 1l-1 1 2 1a17 17 0 0 1 3-1Zm9-1-1-1-2 2 3-1Zm-9-4a1 1 0 1 0-1 1 1 1 0 0 0 1-1Zm496 0-1-1a2 2 0 0 0-1 1l1 1a2 2 0 0 0 1-1Zm-415-3c0-2-1-3-2 0s-1 3 0 2l2-2Zm-74 1a1 1 0 1 0-1 1 1 1 0 0 0 1-1Zm61-2c0-2 0-4-1-3v6l1-3Zm21-3 1-19c-1-9 0-20 1-22a14 14 0 0 0 1-7 67 67 0 0 1 1-9l1-11a62 62 0 0 1 2-9l1-7a38 38 0 0 1 2-6 6 6 0 0 0 0-3l3-9c3-9 4-12 2-12s-4 2-4 3a7 7 0 0 1-1 3 14 14 0 0 0-2 5 42 42 0 0 1-1 8c-3 7-5 16-5 21a41 41 0 0 1-1 7 34 34 0 0 0-1 7 39 39 0 0 1-1 8 62 62 0 0 0-1 9l-1 9a276 276 0 0 0 2 39l1-5Zm-35 3 1-8a146 146 0 0 1 1-17l2-15a92 92 0 0 1 2-10 13 13 0 0 0 0-5 6 6 0 0 1 1-3 15 15 0 0 0 1-6 34 34 0 0 1 2-8 46 46 0 0 0 2-7 24 24 0 0 1 0-4c1-1 0-3-1-3l-2 4-1 3a4 4 0 0 0 0 3 9 9 0 0 1-1 4c-2 1-3 8-4 16a109 109 0 0 1-1 12l-1 5v5l-1 14a1 1 0 0 1 0 1l-1 4-1 7v8h2Zm14-5h-1a1 1 0 0 0 0 1l1-1Zm-73-2-1-1-1 1h2Zm496-1c1-1 0-1-1-1a1 1 0 0 0 0 2l1 1a5 5 0 0 0 0-2Zm4 1-1-1-1 1h2Zm-493-2v-1a1 1 0 0 0-1 1v1a4 4 0 0 0 1-1Zm80-5c0-2 0-2-1-1l-1 2c1 2 2 1 2-1Zm-66 1v-1l-1 1h1Zm8-2c-1-3-2-5-3-3l2 5 1-2Zm-7-2a24 24 0 0 1 0-5c0-4-1-4-3 0l-2 3 2 1c2 2 4 2 3 1Zm6-5h-1c-1 2 0 3 1 2v-2Zm1-8a11 11 0 0 1 0-4 6 6 0 0 0 1-4l-4 2c-3 2-2 4-2 4a4 4 0 0 0 2 1l1 2c1 3 2 2 2-1Zm47-44a6 6 0 0 1 1-4 4 4 0 0 0 0-3c0-2 0-2-1 0a6 6 0 0 0-1 4 8 8 0 0 1-1 3 7 7 0 0 0-1 3h2c2-1 2-1 1-3Zm381-3a1 1 0 0 0-2 0 1 1 0 0 0 2 0Zm-377-13-1-1a2 2 0 0 0-2 2l1 1a2 2 0 0 0 2-2Zm-8-3a1 1 0 0 0 0-1l-1 1 1 1a2 2 0 0 0 0-1Zm9-2-1-1a3 3 0 0 0-2 1l1 1a3 3 0 0 0 2-1Zm-7-2-2 2h1l1-2Zm15-3v-9l-4 11c1 2 3 1 4-2Zm335-6a1 1 0 1 0-1 2 1 1 0 0 0 1-1Zm-285-20v-3l-2 5h1a2 2 0 0 0 1-2Zm18-4a6 6 0 0 0 1-3v-3l-2 2c-2 2-2 4 0 4a3 3 0 0 0 1 0Zm-292 866h-2c-2 1-4-1-3-2s0-1-1-2-1-3 2-3h2l-2-1-2-2 3-1a23 23 0 0 0 3-3c3-1 3-2 5 0 1 1 3-1 3-4a7 7 0 0 1 0-4c2-3 2-3-1-2s-3 0-3-1a3 3 0 0 1 5-1v-2c0-1 0-2 3-3 3-3 4-3 6-2 1 2 1 2 1 0a3 3 0 0 0 0-2v-4c1-3 2-3 1-5a8 8 0 0 0-2-3c-3-1-4-5-3-7a8 8 0 0 1 2-3h3a1 1 0 0 1-1 1l-1 1h3c1 0 2 0 2 2a3 3 0 0 0 3 2h2l-2 3a1 1 0 0 0-1 1 1 1 0 0 0 1 0 1 1 0 0 1 1 1 3 3 0 0 0 3 1c2 0 3 3 1 5a3 3 0 0 0 0 2v1l-1 1c0 2-2 3-3 2-1-2-4-2-4 0a2 2 0 0 0 1 2c1 0 1 1-1 2-2 2-3 2-3 0s-3-1-4 1v5c2 2 2 2 0 3a11 11 0 0 1-2 1v5l-2 2-1 1c-1 1-3 2-4 0a3 3 0 0 0-4 0c-2 2-1 3 1 2l2 1c0 2-3 3-5 3l-2 4c0 2 2 1 2-1s3-2 3-1c1 1-2 5-3 5a1 1 0 0 1-1-1Zm27-36 1-3v-3c-2-1-4-1-4 1s2 5 3 5Zm-3-8c0-1-1-2-2-1s0 2 1 2a1 1 0 0 0 1-1Zm-40 43 1-1 1 1-1 1a2 2 0 0 1-1-1Zm-15-2 2-3v2c0 2-1 3-3 3-1 0-1-1 1-2Zm-9-4c-2-1-2-3 0-3s3 1 2 3h-2Zm-17-3 1-1v2l-1-1Zm38 0c-2 0-2-1 1-1l2-1c0-2 2-3 3-2 2 1-2 5-6 4Zm-43-3v-8 2a2 2 0 0 0 2 2c2 1 2 2 0 4l-1 2-1-2Zm13 0a9 9 0 0 1-1-3c0-2 5-7 7-7l1-2c1-2 1-3 3-3h7c1 1 2 1 1-1l1-4c2-2 5-2 5 0 0 1 0 2-2 2l-1 2c0 3-2 4-5 4s-4 2 0 4c3 1 4 3 2 4a2 2 0 0 0 0 2 1 1 0 0 1-2 1 2 2 0 0 0-2 1 3 3 0 0 1-2 1l-2-2a6 6 0 0 0-1-3c-1-2-5 0-5 2l-3 3-1-1Zm39-3 1-1h1a1 1 0 0 1-1 1h-1Zm-13-3c-1-1 2-3 3-3l4 3a3 3 0 0 1-2 0h-2a2 2 0 0 1-3 0Zm9-4v-2l1 2-1 3v-3Zm2 0 2-3a4 4 0 0 1 2-3 5 5 0 0 0 2-1c1-2 4-4 6-4a5 5 0 0 1 3 2c1 1 1 1-1 3a36 36 0 0 1-6 3 25 25 0 0 0-5 3 2 2 0 0 1-3 0Zm6-4c-1-1-1 0-1 1-1 1-1 1 0 0l1-1Zm840 4-1-2h3c2 2 0 3-2 2Zm-896-3 1-1 1 1a1 1 0 0 1-1 0h-1Zm12-3c0-2 3-4 5-4 1 1 1 1-1 3-2 3-4 4-4 1Zm884-1a1 1 0 0 1 1-1c1 0 3 1 2 2a2 2 0 0 1-3-1Zm-850 0c-1-2 0-3 1-3l1 2c0 2-2 2-2 1Zm869 0v-1a1 1 0 0 1 1 0c1 1 0 2-1 1Zm-7-1c-2-2-2-2 0-3s1-2 0-2c-2-1-1-2 1-2s2 1 1 2v3l2 2h-4Zm11 0h2c1 1 0 1-1 1l-1-1Zm-881-3c-1-1-1-2 1-3s2-2 1-3a5 5 0 0 1 0-4c1-2 1-3-1-5a12 12 0 0 1-1-4 4 4 0 0 0-1-2l-2-5c0-3 0-4 4-7 3-3 6-4 9-3 2 0 1 2-2 3s-3 1-3 3c2 2 4 3 6 0s5-2 7 0c1 1 3 0 3-2s4-5 7-5l7-2a7 7 0 0 1 3-2l11-6 5-2a9 9 0 0 0 2-2l6-3a3 3 0 0 0 3 0 5 5 0 0 1 4 0l-1 1a4 4 0 0 1-3 1l-4 3-11 6-2 1-3 4a11 11 0 0 1-5 2l-4 2a4 4 0 0 1-2 2c-2 1-2 2 1 2 4 0 2 5-3 5-2 0-2 0-2-2 0-3-1-4-3-2a9 9 0 0 1-4 1c-3 0-3 0-3 2a5 5 0 0 1-2 3h-2a8 8 0 0 0-2 0l-1 4c0 1 6-1 8-3a4 4 0 0 1 2 0 2 2 0 0 0 2-1c1-2 1-2 3-1s2 2 2 4a8 8 0 0 0 0 3 16 16 0 0 0 2-2c2-2 3-2 3-1 1 2 0 4-2 4h-1v1h-3l1 3 1 3-2 2a5 5 0 0 1-2 1 2 2 0 0 0-2 1c0 2-4 3-5 2a1 1 0 0 1 1-1v-6a3 3 0 0 0-3 2c0 2-1 2-2 2-4 0-5 1-5 3s-1 2-3 1c-1-1-2 0-4 2a20 20 0 0 1-3 2 5 5 0 0 1-1-2Zm16-11-4-4c-1 0-1 2 1 4 1 1 3 2 3 0Zm10 0c2-1 2-2 0-2h-2a7 7 0 0 1-1 2h3Zm-9-4v-2h-1a8 8 0 0 1-1 1c0 2 1 2 2 1Zm-6-5c0-3 0-4-2-5a5 5 0 0 0-3 0l1 1c2 1 2 2 1 3a3 3 0 0 0 0 2l3-1Zm-29 19c1-2 6-4 6-3l-2 2c-3 2-6 3-4 1Zm878 1c-2-1-2-2-1-2a5 5 0 0 1 3 1c1 1 1 1-2 1Zm-831-2c0-2 1-3 3-2v2c-2 2-3 2-3 0Zm-61-1 4-3v3c-1 1-4 2-4 0Zm887 0a1 1 0 0 1 1 0 2 2 0 0 1 1 0v1l-2-1Zm10-2a1 1 0 0 1 1-1c1-1 2 0 1 1h-2Zm-833-6a1 1 0 0 1 2-2 1 1 0 0 1-1 3 2 2 0 0 1-1-1Zm25 0c-1-1 0-2 1-2 2 0 2 2 1 2a2 2 0 0 1-2 0Zm7-4-2-1a4 4 0 0 1-2 0 15 15 0 0 0-5-2c-4 0-4-2-2-4 3-2 3-5 2-5a1 1 0 0 0-2 0l-3-1a7 7 0 0 1-2-1 23 23 0 0 1 4-2 28 28 0 0 0 5-4c2-2 4-2 5-1l-2 4c-3 4-3 6 0 5l2 1a19 19 0 0 0 1 3c1 1 0 1-3 1s-3 0-3 1c0 2 2 3 4 2l2-1 4-1c4-1 6-2 6-6 1-2-1-3-3-1h-2a3 3 0 0 0-2-1c-2 0-2-2 0-2 4-1 7-3 6-4l2-1c2-1 2-4-1-4l-2-1a18 18 0 0 1 4-1c3-1 4-1 4-3 1-2 5-4 6-2 0 2 2 2 3 0 0-2 2-1 3 2a47 47 0 0 0 3 4v4a7 7 0 0 0-1 4c1 4-7 6-11 3l-1-2v2a3 3 0 0 0 0 2c2 1 1 2 0 3-2 0-2 0-2 2s-1 3-3 4-2 0-3-1c-1-2-2-2-2 0a3 3 0 0 1-1 3 4 4 0 0 0-2 2c0 2-2 2-3 0Zm21-20a3 3 0 0 1 0-2c2-2 2-3 0-2a2 2 0 0 1-2-1c-1-1-3-1-4 1a3 3 0 0 1-1 2c-2 0-2 1-1 2l1 1c2-2 4-2 5 0 0 2 2 1 2-1Zm3-6-1-1-1 1 1 1a1 1 0 0 0 1-1Zm-130 24a3 3 0 0 1 0-2 3 3 0 0 0-2-2 7 7 0 0 1-3-3 28 28 0 0 0-5-6l-4-4-3-5c-4-4-4-5-1-5 1 0 5 4 5 6l12 10c3 2 3 2 7 2 4-1 7-3 7-5a6 6 0 0 1 2-3c2-1 2-1 2 1l2 1c2 0 3 2 1 2a13 13 0 0 0-3 3l-3 1-8 5-2 1-2 2c0 1-1 2-2 1Zm85-9c-1-1 0-1 1-1l1 1a1 1 0 0 1-2 0Zm-4-4c-1-1 5-7 6-6h2c1-2 5-4 6-3 3 1-1 5-5 5l-4 2-2 3a7 7 0 0 0-2 0 1 1 0 0 1-1-1Zm-77-2c-2-1-2-2-1-3l5 4c0 1-1 1-4-1Zm135 0v-8c0-2 1-4 3-4v4l-1 3v4h-2Zm790-3 1-1 1 1-1 1-1-1Zm-920-1a2 2 0 0 1 3 0l-1 1-2-1Zm97 0c-1-1 2-4 4-4s1 2 0 3c-1 2-3 2-4 1Zm-92-1c-1-1 0-3 1-3l1 2-2 1Zm24-1 2-2a21 21 0 0 1 5-2 8 8 0 0 0 3-1h2c1 1 2 0-5 3-5 3-6 3-7 2Zm18 0h2c2 0 1 1-1 1l-1-1Zm4-1 4-3a2 2 0 0 0 2-1l3 1-8 4a1 1 0 0 1-1-1Zm37 0c-2-1 1-4 4-4 2 0 2 0 0 3-1 2-3 2-4 1Zm-24-6 2-1 1 1a2 2 0 0 1-2 1l-1-1Zm34-1a2 2 0 0 1 2-3c2 0 3 1 1 3s-2 2-3 1Zm-148-1a2 2 0 0 1 0-1c0-1 0 0 0 0l1 1a1 1 0 0 1-1 0Zm120-1 5-4-2 3-3 1Zm34-2c0-2 2-3 3-2v3c-1 2-3 2-3-1Zm5 0c-1-1 3-4 4-4a4 4 0 0 0 2-1 4 4 0 0 1 3-2 2 2 0 0 0 2 0 2 2 0 0 1 1-1c3 0-1 4-5 6s-6 3-7 2Zm57-3a3 3 0 0 1 1-2l1 1-2 1Zm-220-2a1 1 0 0 1 1-1l1 1c-1 1-2 2-2 0Zm156 0-2-2 2-1a7 7 0 0 1 3-2l6-3c3-3 4-4 7-4a16 16 0 0 0 5-2h2c1 1-1 4-4 4a18 18 0 0 0-5 3 9 9 0 0 1-4 2l-5 3-3 3-2-1Zm72-1c0-2 1-2 2-1l-1 1h-1Zm4-3c1-1 2-1 1-2s-1-1 2-2c3 0 4 0 3 2a3 3 0 0 1-2 1 3 3 0 0 0-2 1 3 3 0 0 1-2 1v-1Zm-4 0-3-4 1-3a4 4 0 0 1 1-3 3 3 0 0 0 1-2h1v4c1 2 2 7 1 8a3 3 0 0 1-2 0Zm-152-5a2 2 0 0 1 1-1 1 1 0 0 1 1 1l-1 1-1-1Zm157-2c-1-2 1-3 3-2v1c-1 2-2 2-3 1Zm-11-2a2 2 0 0 1 1-2c2-1 3 1 1 2h-2Zm-222-1a2 2 0 0 1 1-2l1 1c-1 2-2 2-2 1Zm181 0c-1-1 0-1 1-2 2-1 4 0 4 1 1 1-5 2-5 1Zm51-4-1-3h7a8 8 0 0 1-3 5c-1 1-2 1-3-2Zm-44 1 2-1 1 1a3 3 0 0 1-2 1 1 1 0 0 1-1-1Zm63-29a2 2 0 0 1 2-1v1h-2Zm21-8c-1-1-1-1 1-2 3-1 5 0 3 1l-4 1Zm-47-7c-1-1 2-4 4-3v2c-1 1-3 2-4 1Zm35 0 1-1v1h-1Zm-28-3 3-2h4c0 1-3 2-4 1l-2 1h-1Zm27-2 5-3c1 1-1 3-3 3h-2Zm-16-2c-1-1 0-2 2-2a2 2 0 0 0 2-1l4-2 6-3a17 17 0 0 1 10-4c3 0 3 1 1 2l-4 3a10 10 0 0 1-4 1 38 38 0 0 0-5 2 29 29 0 0 1-6 2h-2l-4 2Zm29-13c-1-1 3-4 4-3a7 7 0 0 0 2 0v2l-6 1Zm19-8 2-1c3 0 3 0 2 1h-4Zm8-2c-1-2-1-2 3-3 4-2 6-1 2 2-3 2-3 2-5 1Zm14-7 6-3c2 0 2 0 0 1-2 3-6 4-6 2Zm12-6a1 1 0 0 1 2 0 1 1 0 1 1-2 0Zm19-10a2 2 0 0 1 3-1v1c-1 2-3 2-3 0Zm-329-83a31 31 0 0 1-5-2 16 16 0 0 0-4-2 3 3 0 0 1-3-1 2 2 0 0 0-2-1c-1 1-6-3-7-5a2 2 0 0 0-2-1c-3 0-10-7-13-13a5 5 0 0 0-2-2l-2-4a12 12 0 0 0-3-4 6 6 0 0 1-2-3 26 26 0 0 0-2-6 20 20 0 0 1-2-9 22 22 0 0 0-2-7v-6l-1-9c0-7 1-9 2-9 2 0 3 3 3 10l2 9a16 16 0 0 1 2 5 16 16 0 0 0 2 5 16 16 0 0 1 1 5 6 6 0 0 0 2 3c1 2 1 3-1 4-3 0-3 3 0 6s4 4 6 3l1-1a4 4 0 0 1 0 3c-1 3-1 5 1 6s2 1 3-1l1-2 3 3 4 4c0 2 2 3 6 4 3 1 5 0 3-2a1 1 0 0 1 0-2 3 3 0 0 1 5 1 4 4 0 0 0 2 1c3 1 3 3 1 4-1 1-1 1-3-1s-1-1-2 0-1 2 1 5c2 2 2 2 1 3s0 1 1 2 4 0 3-1c0-2 3-2 4 0l5 1c5 0 6 1 4 3a10 10 0 0 0-1 3l-3 1h-7Zm-19-18h-1a1 1 0 0 0 1 1v-1Zm-24-33a2 2 0 0 0-1-1 1 1 0 0 0-1 1l1 1 1-1Zm61 50c-1-1 0-1 1-3 2-1 2-2 2-3-1-2 0-3 2-3l2-2c1-3 0-4-2-3h-9a10 10 0 0 0-3-1c-3-1-5-3-4-4s0-1 0 0l-5-2c0-2 3-3 4-1a6 6 0 0 0 3 2 8 8 0 0 1 3 1c1 2 3 2 7 2l6-1c1-1 0-1-1-2a2 2 0 0 1-2-2 2 2 0 0 0-1-2v-1c1-1 1 0 3 1a14 14 0 0 0 6 2l3 1a1 1 0 0 1-1 1l-4 3h1c2 0 5 2 5 3h2a2 2 0 0 1 2 1c1 2 1 1 2-2l-3-4c-3-2-2-4 1-4a7 7 0 0 0 5-2c2-2 2-2 1-4a5 5 0 0 1-1-2 5 5 0 0 0 0-2 2 2 0 0 1 1-3c1-1 2-1 4 2a22 22 0 0 0 2 4l1 2a4 4 0 0 0-1 3l-5 12c-1 2-4 4-6 3q-2 0-3 4c-1 3-5 5-10 5l-5 1a5 5 0 0 1-3 0Zm26-22-1-1v3l1-2Zm-30 17 2-3 2 3h-4Zm-13-6-1-2c0-2 2-2 2 0a4 4 0 0 0 2 2h-3Zm617-5 2-2c2-3 4-3 4-1 0 3-4 5-6 3Zm-632-7-3-3-2-2c-3-2-5-5-5-7l-1-1-1-4 9 10 2 2c1-1 4 3 4 4 0 2-1 2-3 1Zm644 0a1 1 0 1 1 0 1 1 1 0 0 1 0-1Zm-632-1-8-8 2 1h4a8 8 0 0 0 2 3l2 3v1a1 1 0 0 1 2 1c0 1-2 1-4-1Zm15 1a5 5 0 0 1-2-1 11 11 0 0 0-3-2c-3-1-3-4-1-4l6 3c3 2 4 3 3 4h-3Zm631-5a1 1 0 1 1 1 0 1 1 0 0 1-1 0Zm-35-4a3 3 0 0 1 2-1c1 0 2 0 1 1a3 3 0 0 1-2 1l-1-1Zm-605-4c-2-1-2-2-1-3 2 0 4 2 4 3h-3Zm35-2c-1-5-2-7-3-7v-2c2-1 3 0 3 3l1 4c2 1 2 2 1 3s-2 1-2-1Zm-76-1 1-2 1 2-1 2-1-2Zm309-16a2 2 0 0 1 0-2h2v3a4 4 0 0 1-2-1Zm475-24c-1-1 1-3 2-3a13 13 0 0 0 3-2l4-2a2 2 0 0 0 2-1l3-1a1 1 0 0 1 0 2l-9 6a3 3 0 0 0-2 1 2 2 0 0 1-3 0Zm-797-9c-1-1 1-8 3-11a7 7 0 0 0 1-4c0-2 2-5 3-3l-1 8a4 4 0 0 0-1 2l-1 2 1 1c1 1 1 2-2 3l-3 2Zm182-1v-2l4 3c-1 1-2 1-4-1Zm631 0s1-2 3-2a16 16 0 0 0 4-2l5-1a8 8 0 0 1-1 3c-2 2-2 2-5 2h-4c-2 2-3 2-2 0Zm283 0 1-1 1 1-1 1-1-1Zm-980-5c0-2 3-4 4-4 1 1 1 4-1 4-2 2-3 1-3 0Zm56 0c-2 0-3-1-3-2s3-2 4 0a8 8 0 0 0 2 1l2 1h-5Zm-48-2a1 1 0 0 1 0-1l1 1h-1Zm38 0a2 2 0 0 1-2-2c0-2 1-2 4-1l2 2-4 1Zm95 0-3-2-3-3h2l6 1c3 1 5 2 4 4h-6Zm-83-4c-1-1 0-2 2-1v1h-2Zm62-1-4-3c0-1 2-2 4 0a15 15 0 0 0 4 2c3 1 4 3 2 3l-6-2Zm-122 1c-1-1 1-2 4-2l3 1-3 1a10 10 0 0 1-4 0Zm14 0a1 1 0 0 1 1-1 2 2 0 0 1 1 1l-1 1-1-1Zm20-3 1-2c1-1 2 1 1 2a1 1 0 0 1-2 0Zm-41-2c0-1 3-3 4-2a8 8 0 0 0 4-1c3-1 5 0 4 2l-12 1Zm54-1c-2 0-3-1-2-2h4c4 2 4 3-2 2Zm81 0c0-1 0-2 1-1v2l-1-1Zm-138-4h2l-1 1s-2 0-1-1Zm51 0h2c1 1 0 1-1 1l-1-1Zm59-1c-3-2-2-3 1-1a10 10 0 0 1 2 2l-3-1Zm-121-2a2 2 0 0 1 1 0h1a2 2 0 0 1-2 1v-1Zm-83-1c0-3 10-9 13-7 2 1 1 3-2 3a5 5 0 0 0-3 1l-8 4v-1Zm72 0-2-2 3-1c2-2 6-3 6-2a11 11 0 0 1 1 2c0 2 0 2-2 3-4 2-4 2-6 0Zm821-3a1 1 0 0 1 1 0 1 1 0 1 1-1 0Zm-749-1 1-1a3 3 0 0 1 2 1c1 1 0 1-1 1a3 3 0 0 1-2-1Zm-63-2c-1-2 3-3 6-2v2h-6Zm101 0-1-2 3 1c2 2 0 2-2 1Zm-92-2c0-1 2-3 3-2l-1 1-2 1Zm879-1c-1-1 0-3 1-2a1 1 0 0 1 0 2h-1Zm-51-5h2l-2 1c-2 0-2 0 0-1Zm19 0a1 1 0 0 1 0-1h2c0 1-1 2-2 1Zm-791-2h1a1 1 0 0 1 1 0l-1 1-1-1Zm777 0c0-1 2-2 4-1h2l-2 1h-4Zm-93 0 1-2 1 1-2 1Zm-690-4a1 1 0 0 1 0-1c1-1 2 0 2 1h-1Zm11-2v-1c1-1 4 0 4 1h-4Zm-57-14Zm13-1c-3-2 1-4 3-1 2 1 2 1 1 2l-4-1Zm777-8 6-5c2 1 2 1 0 3l-6 2Zm68-4a2 2 0 0 1 2-1h1a2 2 0 0 1-2 2l-1-1Zm-80-3a1 1 0 0 1 1-1l1 1h-2Zm-756-11a1 1 0 0 1 2 0 1 1 0 0 1-2 0Zm-2-2a1 1 0 0 1 0-1h1l-1 1c-1 0 0 0 0 0Zm6-1c-1-2 0-3 2-2l-1 2h-1Zm226-74a5 5 0 0 1-1-3 6 6 0 0 0 0-3c-1-1 3-7 4-7v6l-1 6c-1 2-1 2-2 1Zm197-4a30 30 0 0 1-3-4 28 28 0 0 0-3-5l-5-10a30 30 0 0 0-1-6l-2-5a9 9 0 0 0 0-4c-1-3 0-4 2-2a3 3 0 0 1 1 3 14 14 0 0 0 1 5l5 15a3 3 0 0 1 1 2l3 6 4 6c0 2-2 2-3-1Zm152-1a5 5 0 0 0-3-2 2 2 0 0 1 1-3 8 8 0 0 1 3 1c3 2 3 2 2 4-1 3-2 3-3 0Zm-341-8v-1c1-1 1 0 1 1s0 2-1 0Zm335-1v-2c2-1 4 1 3 2s-1 2-3 0Zm-336-13v-21c2-1 4 23 2 31l-2-10Zm187 6a23 23 0 0 1-3-9l-2-6c0-2 2-3 3-2a4 4 0 0 1 1 1 1 1 0 0 0 1 1l1-4c1-7 4-4 4 5 0 2-2 3-3 2h-2v5a22 22 0 0 0 3 5v5l-3-3Zm-48 0 1-5c1-1 1 0 1 2 0 3-1 5-2 3Zm56-2c-3-4-4-8-4-9s1-1 2 1a4 4 0 0 1 1 2 5 5 0 0 0 2 3v4a1 1 0 0 1-1-1Zm-48-4a1 1 0 0 1 1 0h1l-1 1-1-1Zm-152 0a5 5 0 0 1 0-3l1-2 1 2c0 2-1 4-2 3Zm205-2-4-13c0-3 2-4 2-2a10 10 0 0 0 2 4v3c-1 0 0 4 2 7 1 3 0 4-2 1Zm-121-1 1-3 1-2 2-4a24 24 0 0 0 1-7c0-5 1-6 2-6v7l-1 6c1 6-1 10-3 10a3 3 0 0 1-3-1Zm199-5-5-7h5c1 2 1 2 1 0s2-3 4-2 1 2-1 4c-2 1-2 2 0 5 3 2 3 2 2 4-1 1-2 1-6-4Zm-72 4c-3-4-4-7-3-10a10 10 0 0 0-1-4l2-6 2-4v4a27 27 0 0 0 3 14v6c-1 2-2 1-3 0Zm-179-2a13 13 0 0 0 0-4c-1-2 1-4 2-4 2 1 2 2 1 7-1 4-3 4-3 1Zm50 2v-10c1-3 2-1 3 2l-1 5-2 3Zm210-1c-1-1 0-4 1-4a5 5 0 0 1 2 1v3h-3Zm-218-2 2-13a3 3 0 0 0 0-3c-1-3 0-13 2-13v18c0 7-2 14-4 11Zm-48-2 1-3v5l-1-2Zm13 0a3 3 0 0 1 1-2h1c0 2-1 4-2 2Zm178 0a11 11 0 0 1-1-3 16 16 0 0 0 0-4v-12c1-3 2-1 2 4v6l2 9a2 2 0 0 1-3 1Zm86-2c-5-5-7-8-6-9 0-1 2 0 5 4l6 5c1 0 2 1 1 2-1 2-2 2-6-2Zm64 3c-1-1 0-10 1-12a10 10 0 0 0 2-3 3 3 0 0 1 0-2 2 2 0 0 0 1-1c0-4 4-12 5-12 1 1 1 4-1 6a7 7 0 0 0-1 4 2 2 0 0 1-1 1 1 1 0 0 0 0 2 3 3 0 0 1-1 2 14 14 0 0 0-1 5c-1 8-2 11-4 10Zm-246-2c0-3 1-4 2-2s1 4 0 4l-2-2Zm191 0a3 3 0 0 0-2-3c-1-1-5-6-4-7l3 1a9 9 0 0 0 4 0c3 0 3 2 1 4-2 1-1 3 1 3l-1 3-2-1Zm6-1c-2-3-2-4 0-5 2 0 2 0 2-2-1-3 1-4 2-3l4 4c3 3 2 4-1 4l-3 2c-1 2-2 2-4 0Zm-273-1a4 4 0 0 1 0-3 12 12 0 0 0 0-4c0-3 1-4 2-3a22 22 0 0 1 0 5c0 6-1 8-2 5Zm178-1c-2-5-2-16-1-20 1-2 3-2 3 0v14c2 5 0 11-2 6Zm70 0c-4-3-4-4-1-4a4 4 0 0 1 4 4c0 2 0 2-3 0Zm-230 1 1-9a9 9 0 0 0 0-4h1l1 4c0 6-1 9-2 9h-1Zm-12-2a10 10 0 0 1 0-5 24 24 0 0 0 0-6l1-3h2l-2 13-1 1Zm279-1c0-1 1-2 2-1v2a2 2 0 0 1-2-1Zm-261 0v-11c1-2 3-2 3 0l-1 11a1 1 0 0 1-2 0Zm53 0a2 2 0 0 1 0-3l2 1a2 2 0 0 1-1 2h-1Zm-39-4a5 5 0 0 1 1-2v4l-1-2Zm-56 1a4 4 0 0 1 0-3h1a2 2 0 0 1 1 2c-1 2-2 2-2 1Zm349-1 1-1a1 1 0 0 1 1 0 2 2 0 0 1-1 2l-1-1Zm-173-1v-1a1 1 0 0 1 1 1h-1Zm-144-1v-1l1 1h-1Zm37-1c0-1 0-2 1-1a1 1 0 0 1 0 2l-1-1Zm140 0v-12a28 28 0 0 0 0-3l1-5c3-2 3-2 3 5l-2 15h-2Zm-6-1-1-10c0-3 0-5 2-6 2-2 4-1 2 1l-1 7c0 6 0 9-2 9v-1Zm-185-1a1 1 0 0 1 1-1v1h-1Zm-42-1a5 5 0 0 1 0-2 6 6 0 0 0-1-4c-1-2-1-4 1-3l2 9h-2Zm87-2v-4c-1-4 0-6 2-6l-1 10h-1Zm6-1a6 6 0 0 1 1-3h2l-2 4-1-1Zm147-2a9 9 0 0 1-1-3l1-8 1-8a3 3 0 0 1 2 0c2 1 2 14 0 18-1 3-3 3-3 1Zm-60-1a36 36 0 0 1 0-7l1-6c2-1 2 1 2 8-1 5-2 8-3 5Zm184 0c0-2 1-5 2-4 1 0 1 2-1 4h-1Zm-174-2a8 8 0 0 0-1-4v-22c1-7 2-8 3-8a187 187 0 0 1-2 34Zm-16 1c-1-1 0-3 1-3l1 2c0 2-1 2-2 1Zm-139-1-2-24a1564 1564 0 0 1 1-92 67 67 0 0 0 1-7 18 18 0 0 1 1-4 21 21 0 0 0 0-5 54 54 0 0 1 2-7l1-17a61 61 0 0 1 1-10 18 18 0 0 0 1-5c-1-3 1-6 3-4s0 15-2 21a45 45 0 0 0-1 12v9c-1 2-3 9-3 16l-1 9-1 25-1 27c-1 3-2 5-1 6l1 19 1 9c1 10 2 17 1 20 0 3-1 4-2 2Zm131 0a5 5 0 0 1-1-3 4 4 0 0 0 0-2 1036 1036 0 0 0 2-21v-6l1-7c1-5 2-7 3-6v6c-3 11-5 33-3 36 1 1-1 4-2 3Zm211 0 2-4v3l-2 1Zm-282-1a1 1 0 0 1-1 0Zm64-2c-1-1 0-1 1-1v2a1 1 0 0 1-2-1Zm-79-1a2 2 0 0 1 1-2l1 1a2 2 0 0 1-1 2l-1-1Zm94-1v-14l1-12c0-8 1-10 2-9v18a118 118 0 0 0-1 12c0 6-1 8-2 5Zm74-5a38 38 0 0 1 1-9 12 12 0 0 0 0-3 2 2 0 0 1 1-2 2 2 0 0 0 1-2v-8c3-3 3 2 0 21v8l-1 2s-2-2-2-7Zm-221 4a8 8 0 0 0-1-3l-1-5a56 56 0 0 0-2-7 13 13 0 0 1 0-6 38 38 0 0 0 0-10 500 500 0 0 1-2-77v-4l1-16v-14a33 33 0 0 0 1-7 69 69 0 0 1 1-9 41 41 0 0 0 0-8l1-4c2-2 2-5 1-11l1-9a18 18 0 0 0 2-5l3-13h1v4a32 32 0 0 0-1 7 31 31 0 0 1 0 6 59 59 0 0 0-1 7l-2 15a251 251 0 0 0-2 28 119 119 0 0 1-1 14v50l-1 18a1444 1444 0 0 1 1 38c3 11 4 17 3 21-1 1-1 1-2-1Zm171-5c0-11 1-13 2-19s2-4 1 3v7a9 9 0 0 1-1 3l-1 6-1 6v-7Zm7 4v-7l-1-6a2 2 0 0 1 0-2 27 27 0 0 0 1-5c1-8 2-12 4-12l1 1-1 3-1 20a59 59 0 0 1-1 7l-2 1Zm59 0c-1-3 1-27 3-30a10 10 0 0 0 0-4c0-5 2-12 3-12a1 1 0 0 1 1 1 10 10 0 0 0 0 3 10 10 0 0 1-1 3 37 37 0 0 0-1 8 29 29 0 0 1 0 6 20 20 0 0 0-1 6l-2 19c-1 2-1 1-2 0Zm-280-1 1-1v2a1 1 0 0 1-1-1Zm173-1a20 20 0 0 1-1-6l1-5c1 0 2 1 2 3a19 19 0 0 0 1 5c1 1 0 5-1 5l-2-2Zm124 1a1 1 0 0 1 0-1 1 1 0 0 1 2 0 1 1 0 0 1-1 1 1 1 0 0 1-1 0Zm93 0c-1-1 0-3 1-2v3a2 2 0 0 1-1-1Zm-225-4-1-5c-2-7 0-29 3-34a8 8 0 0 0 0-3c0-2 1-3 2-1s1 12-1 20a131 131 0 0 0-1 16l-1 9-1-2Zm221 0 1-1 1 1a1 1 0 0 1-1 0h-1Zm-113-1v-12l1-8a15 15 0 0 1 1-5l1-2a33 33 0 0 1-1-6v-6c-1 0-3 3-3 8-1 5-2 7-3 6l-1-6v-6l-2 1c-2 2-2 4-3 13a12 12 0 0 1-1 4 17 17 0 0 0 0 5c0 4-1 5-2 6l-4 2c-2 2-2 2-3 0v-16l1-9c0-8 0-8 2-10h3c1 1 2 0 4-1s2-2 3-1 2 1 5 0c4-2 7-2 8-1 2 1 2 3 0 8v5a5 5 0 0 1-1 3 11 11 0 0 0-1 5 11 11 0 0 1 0 6l-1 6c0 6-2 14-3 11Zm-15-12a22 22 0 0 1 1-6c2-8 1-16-1-12s-4 18-3 20 1 2 2 1a4 4 0 0 0 1-3Zm55 11a5 5 0 0 1 1-2c0-1 1-1 1 1a3 3 0 0 1-1 2l-1-1Zm-116 0a1 1 0 0 1 0-1v-4c0-4 1-6 2-6l1 2-1 6-2 3Zm-55-1h1l-1 1a1 1 0 0 1 0-1Zm154 0 1-1 1 1a2 2 0 0 1-2 0Zm-147-1-2-6c-2-7-2-22 2-44l1-8c0-3 1-5 2-5s2 3 1 5c-1 4-2 7-2 16l-1 14a71 71 0 0 0 0 11l1 13-1 5a1 1 0 0 1-1-1Zm89-3a32 32 0 0 1 0-7v-16l3-5v21c-1 10-2 13-3 7Zm-81 2c-3-4-3-19-1-32l1-7a23 23 0 0 1 0-5 23 23 0 0 0 1-5l2-6v4l-1 11c-1 10-2 26-1 33v8a1 1 0 0 1-1-1Zm131-1a15 15 0 0 1 0-3v-8a133 133 0 0 1 3-19l2-3 1 3a7 7 0 0 1-1 3l-1 12v8c0 5-1 6-2 8l-1 1-1-2Zm100 2v-1h1a1 1 0 0 1-1 1Zm-249-3c-2-1-2-2-2-13l1-12c2-1 1-2 2 6a64 64 0 0 0 1 9v12l-2-2Zm92 1c-1-1 0-23 1-24 2-2 3 0 2 5a45 45 0 0 0-1 6v7c0 6 0 8-2 6Zm75 0c-2-2-2-3-1-3 2-2 2-1 2 2v2l-1-1Zm-10-2v-14a33 33 0 0 0 1-6c1-5 1-7 3-6 1 1 1 7-1 23a7 7 0 0 1-1 4c-1 1-1 1-2-1Zm91 0a1 1 0 0 1 2-1 1 1 0 0 1 0 2 2 2 0 0 1-2-1Zm-311 0c-1-1 0-2 1-2v1l-1 1Zm47-2-1-13c0-11 1-15 2-11a21 21 0 0 1 1 5 15 15 0 0 0 1 6v13h-3Zm-64-1-1-5v-8c-2-12-2-10-1-41l1-21a26 26 0 0 0 0-6c0-5 1-11 2-10l1 10v11a2236 2236 0 0 1-2 70Zm114 0a3 3 0 0 1-1-3 17 17 0 0 0 1-5 15 15 0 0 1 0-5 8 8 0 0 0 1-3l3-10a2 2 0 0 1 1 0l1 3a15 15 0 0 0-1 3 5 5 0 0 1-1 3c-1 1-2 2-1 4v6a4 4 0 0 0-1 3 6 6 0 0 1 0 3l-1 2-1-1Zm-108-4a11 11 0 0 1 1-4 3 3 0 0 0 0-2v-18l1 10 1 6a2 2 0 0 1 0 2 8 8 0 0 0-1 4l-1 6-1-4Zm17 1c-2-2-2-3-2-10a34 34 0 0 0 0-8 9 9 0 0 1 0-4l1-21 1-24c0-5 1-11 3-11l1 1-2 23v16a11 11 0 0 0 1 4 16 16 0 0 1 0 7 98 98 0 0 0 0 22c2 8 1 9-3 5Zm26-3c-2-4-2-11-1-13a2 2 0 0 0 0-3v-13l1-1 1 7a40 40 0 0 0 0 7v2a2 2 0 0 0 0 2c2 2 2 15 1 16l-2-4Zm197 0c-1-5-1-8 1-12 1-3 2-3 3 0v6a51 51 0 0 0-1 7c0 2-1 3-2 3l-1-4Zm-232 2a504 504 0 0 1 1-46c1 1 2 21 1 23s-1 5 1 9a14 14 0 0 1 0 6v6c-1 3-2 4-3 2Zm27-1c-2-5-3-6-2-24l2-13 1 20a51 51 0 0 0 1 8c2 8 0 15-2 9Zm30 1c-1-2-1-10 1-10s3 9 3 10-3 1-4 0Zm-39-2c-2-3-2-11-1-14l1-4v4l2 8c1 7 0 10-2 6Zm155-6a2 2 0 0 1 0-2c1-1 2 1 1 2h-1Zm-131-1v-19h1v6a31 31 0 0 0 1 6v7a1 1 0 0 1-2 0Zm15-3v-17a50 50 0 0 0 1-8c1-6 2-10 3-9v6a208 208 0 0 0-2 21c0 4-1 9-2 7Zm117-4 1-6c1 0 2 3 1 8-1 3-2 3-2-2Zm-109-9c1-6 2-11 4-11v5c0 6-2 10-3 10l-1-4Zm-48 3v-13c0-17 1-23 3-21a2 2 0 0 1 1 2l-2 19-1 13h-1Zm-99-2a1 1 0 1 1 0 1 1 1 0 0 1 0-1Zm0-3a8 8 0 0 1 0-3l-1-3 1-6c1 0 2 3 1 5v3a4 4 0 0 1 1 2c0 2-1 3-2 2Zm131 0c0-6 1-12 3-12 1 0 1 9-1 11-1 2-2 3-2 1Zm298-8h2a1 1 0 0 1-1 1l-1-1Zm-313-2 1-1a1 1 0 0 1 1 1 2 2 0 0 1-1 1v-1Zm298 0a1 1 0 0 1 0-1 2 2 0 0 1 2 1l-1 1-1-1Zm-297-4a3 3 0 0 1 1-2l1 1a3 3 0 0 1-1 2l-1-1Zm313 0a7 7 0 0 1 0-3l-1-3v-8c2 0 2 3 2 9 0 5 0 7-1 5Zm-431-1c-1-1 0-9 1-9v1a6 6 0 0 0 1 3v4c-1 2-2 3-2 1Zm75 0a9 9 0 0 1 1-4 44 44 0 0 0 0-8l1-6 1 5v7c-1 6-2 9-3 6Zm315-2c0-2 1-3 2-1l-1 2-1-1Zm-263-2c-1-2 0-3 1-2v2h-1Zm-9-4 1-3 1 3c0 4-1 4-2 0Zm-8 2v-1l1 1c0 1 0 0 0 0a1 1 0 0 1-1 0Zm-26-14c0-12 1-17 2-17v2a4 4 0 0 0 1 2 2 2 0 0 1 0 2l-1 10c0 9 0 13-2 13v-12Zm26 9c0-4 1-7 2-7v8c-1 2-2 2-2-1Zm320-5a54 54 0 0 1-1-5c0-4 0-5 1-4l1 3 1 3c2 0 1 2 0 3-2 2-2 2-2 0Zm-328-1c-1-2-1-4 1-4v4h-1Zm-26-4a2 2 0 0 1 0-1l1-31c0-8 0-12 2-12s3 12 1 22l-1 18c-1 5-2 7-3 4Zm312 0c-1-1 0-3 1-3v4a1 1 0 0 1-1-1Zm0-5 1-1a2 2 0 0 1 1 2 1 1 0 0 1-1 0l-1-1Zm-1-3a2 2 0 0 1 0-1h1l-1 2a1 1 0 0 1 0-1Zm-302-10 2-5v5h-2Zm-16-8 1-9a299 299 0 0 0 1 9h-2Zm2-16c0-4 0-5 1-4s0 8-1 8v-4Zm354-4c1-2 2-2 2 0a1 1 0 0 1-1 1l-1-1Zm-367-1a3 3 0 0 1 0-2 89 89 0 0 0 1-11c1-4 2-3 2 0 1 7 0 13-1 14l-2-1Zm307 0h2a1 1 0 0 1-1 1l-1-1Zm-294-3 2-7v6c0 1-1 2-2 1Zm352-3a18 18 0 0 0-1-3l1-3 1-2a27 27 0 0 1 1 4c0 4-1 7-2 4Zm-41-2c-2-1-2-2 0-2 1 0 3-2 4-5s1-3-1-4a4 4 0 0 1-1-3l-2-1a8 8 0 0 1-4-2l-2-2 4-3c4-4 4-6-1-6-4 1-5 0-5-3 0-2 0-2 2-3 5-2 6-5 3-6a18 18 0 0 1-3-1l-6-1c-7 0-8-1-4-5l5-4a8 8 0 0 1 3-2 9 9 0 0 0 2-2c3-1 4-1 6 2v2c-2 1-5 3-4 4h6c4 0 5 0 5 2a9 9 0 0 1 1 2 4 4 0 0 0 2 3l2 1-4 1a13 13 0 0 0-3 2l6 4c3 0 5 4 3 6-1 1 0 1 2 3 5 4 5 4 4 5a4 4 0 0 1-2 1c-1 0-2 1-2 3s0 2 2 1c1-2 5-2 5 0l-3 2a10 10 0 0 0-5 2 21 21 0 0 1-5 4 45 45 0 0 0-5 4c-3 2-4 2-5 1Zm-308-12 1-2v2a3 3 0 0 1 0 2l-1-2Zm-14-1a11 11 0 0 1 0-4 16 16 0 0 0 0-4 1 1 0 0 1 1-1c2 0 2 5 1 8-2 3-2 3-2 1Zm32-15a1 1 0 1 1 1 1 1 1 0 0 1-1-1Zm-31-1a2 2 0 0 1 0-2c1-1 1-1 1 1s0 3-1 1Zm22-1v-2l1-4a21 21 0 0 1 1-6 37 37 0 0 0 2-7l4-18c1-2 2 0 0 4v5a136 136 0 0 0-4 27l-3 2a3 3 0 0 1-1-1Zm9-1c-1-1 1-3 2-1l-1 3-1-2Zm-75-3a23 23 0 0 0 1-3 4 4 0 0 1 1-2c1-1 1 0 1 2l-2 5-1-2Zm77-3-1-6a15 15 0 0 0 1-4l2-7a82 82 0 0 0 3-17 25 25 0 0 1 1-5 100 100 0 0 0 2-10 57 57 0 0 1 2-9 7 7 0 0 0 1-3 6 6 0 0 1 1-2c1-2 2 1 1 3a4 4 0 0 0-1 2v5l-2 14-2 6a4 4 0 0 0 0 4 11 11 0 0 1-1 4 73 73 0 0 0-1 8l-1 8-1 5-3 6-1-2Zm-31 1a41 41 0 0 1 0-7l1-10 1-4c-1-1 0-4 1-5a5 5 0 0 0 0-3 50 50 0 0 1 2-11 7 7 0 0 0 0-3l2-7a75 75 0 0 0 2-9c0-3 2-8 4-8v4l-3 9a1 1 0 0 1 0 2l-1 3v2l-1 3a28 28 0 0 1-1 7l-1 4v4c-2 4-2 4-3 17a17 17 0 0 1-1 5 7 7 0 0 0 0 4l-1 3h-1Zm-43-12 1-5c1-1 1-1 2 1 0 2-2 5-3 4Zm344-14a2 2 0 0 1 0-2h2a1 1 0 0 1 0 1l-2 1Zm-31-7c-1-1 0-4 1-4v4a2 2 0 0 1-1 0Zm-242-2c1-3 1-3 2-2s-1 4-1 4l-1-2Zm254-3-1-5c1-1 3 1 3 3a19 19 0 0 0 0 4c1 4-1 2-2-2Zm-287 3c-1-1 1-5 2-5s1 2 0 4l-2 1Zm91-2v-1a1 1 0 0 1 1 1 2 2 0 0 1-1 1v-1Zm8 0h1a1 1 0 0 1-1 1v-1Zm176-2a6 6 0 0 1 0-3l-1-3a1 1 0 0 1 0-1 5 5 0 0 0-1-3c-1-3-2-10 0-11s1 0 1 2a34 34 0 0 0 1 6 43 43 0 0 1 1 9c1 4 0 5-1 4Zm-166-5a4 4 0 0 1 0-3 26 26 0 0 0 0-7c0-6 1-9 2-7a3 3 0 0 1 0 2 52 52 0 0 0 0 8l-1 7a1 1 0 0 1-1 0Zm57-10c-1-1 0-2 1-2v1l-1 1Zm48-2 1-3v5l-1-2Zm-86 0v-1l1 1h-1Zm57-2v-2l1 2h-1Zm-47-9c0-2 1-4 2-3s0 6-1 6l-1-3Zm0-8 1-4c1-1 2 1 1 3a3 3 0 0 0 0 2 1 1 0 0 1-1 1l-1-2Z" data-name="Graphic Elements" style="fill:#242424"/></svg>